<?xml version="1.0" encoding="UTF-8"?>
<svg id="_레이어_1" data-name="레이어_1" xmlns="http://www.w3.org/2000/svg" version="1.1" viewBox="0 0 270 270">
  <!-- Generator: Adobe Illustrator 29.7.1, SVG Export Plug-In . SVG Version: 2.1.1 Build 8)  -->
  <path d="M135,11.61c-68.04,0-123.39,55.35-123.39,123.39s55.35,123.39,123.39,123.39,123.39-55.35,123.39-123.39S203.04,11.61,135,11.61ZM60.51,214.12c1.95-32.1,24.79-59.84,56.03-67.79l9.43-2.4-8.8-4.16c-14.58-6.88-24-21.74-24-37.85,0-23.07,18.77-41.83,41.83-41.83s41.83,18.77,41.83,41.83c0,16.11-9.42,30.96-24,37.85l-8.8,4.16,9.43,2.4c31.23,7.95,54.08,35.69,56.03,67.79-17.54,17.09-39.93,27.44-64.03,29.77-.05,0-.1,0-.15.01-.79.07-1.58.14-2.37.2-.24.02-.48.03-.72.05-.62.04-1.24.08-1.87.11-.45.02-.9.04-1.35.05-.44.02-.87.04-1.31.05-.87.02-1.75.03-2.63.03-.03,0-.05,0-.08,0-.03,0-.06,0-.08,0-.88,0-1.75-.01-2.62-.03-.44-.01-.88-.03-1.31-.05-.45-.02-.89-.03-1.34-.05-.62-.03-1.25-.07-1.87-.11-.24-.02-.48-.03-.72-.05-.79-.06-1.58-.12-2.37-.2-.05,0-.1,0-.14-.01-24.11-2.33-46.49-12.68-64.03-29.77ZM215.98,208.47c-3.83-30.18-24.52-56.09-53.01-66.52,12.89-9.05,20.87-24,20.87-40.02,0-26.93-21.91-48.83-48.83-48.83s-48.83,21.91-48.83,48.83c0,16.02,7.98,30.98,20.87,40.02-28.5,10.43-49.19,36.34-53.01,66.52-17.65-19.43-28.41-45.22-28.41-73.47,0-60.32,49.07-109.39,109.39-109.39s109.39,49.07,109.39,109.39c0,28.25-10.77,54.04-28.41,73.47Z"/>
</svg>