<?xml version="1.0" encoding="UTF-8"?>
<svg id="_레이어_1" data-name="레이어_1" xmlns="http://www.w3.org/2000/svg" version="1.1" viewBox="0 0 270 270">
  <!-- Generator: Adobe Illustrator 29.7.1, SVG Export Plug-In . SVG Version: 2.1.1 Build 8)  -->
  <path d="M258.79,243.37l-23.05-23.05c.99-5.17-.51-10.72-4.51-14.73l-9.13-9.13c-1.34-1.34-2.85-2.38-4.46-3.15,13.55-18.91,21.54-42.06,21.54-67.04,0-63.6-51.74-115.33-115.33-115.33S8.51,62.67,8.51,126.27s51.74,115.33,115.33,115.33c27.35,0,52.51-9.58,72.3-25.55.72,1.3,1.62,2.53,2.73,3.63l9.13,9.13c3.21,3.21,7.41,4.81,11.61,4.81,1.04,0,2.09-.1,3.12-.3l23.06,23.05c1.8,1.79,4.15,2.69,6.5,2.69s4.71-.9,6.5-2.69c3.59-3.59,3.59-9.41,0-13ZM123.85,223.21c-53.46,0-96.95-43.49-96.95-96.95S70.39,29.32,123.85,29.32s96.95,43.49,96.95,96.95-43.49,96.95-96.95,96.95Z"/>
</svg>