<?xml version="1.0" encoding="UTF-8"?>
<svg id="_레이어_1" data-name="레이어_1" xmlns="http://www.w3.org/2000/svg" version="1.1" viewBox="0 0 1920 763.53">
  <!-- Generator: Adobe Illustrator 29.6.0, SVG Export Plug-In . SVG Version: 2.1.1 Build 207)  -->
  <defs>
    <style>
      .st0 {
        font-family: Dotum, Dotum;
      }

      .st0, .st1, .st2 {
        font-size: 22px;
      }

      .st3 {
        font-size: 20px;
        letter-spacing: -.04em;
      }

      .st3, .st4, .st1, .st2 {
        font-family: NanumGothic, NanumGothic;
      }

      .st4 {
        font-size: 19.4px;
      }

      .st5 {
        stroke-width: 2px;
      }

      .st5, .st6 {
        fill: none;
        stroke: #000;
        stroke-miterlimit: 10;
      }

      .st7 {
        fill: #ffc364;
      }

      .st2 {
        glyph-orientation-vertical: 0deg;
        letter-spacing: .74em;
        text-orientation: upright;
        writing-mode: tb;
      }

      .st6 {
        stroke-width: 3px;
      }

      .st8 {
        fill: #ffe5c0;
      }

      .st9 {
        font-family: NanumGothicOTFBold-KSCpc-EUC-H, NanumGothicOTF;
        font-size: 30.25px;
      }
    </style>
  </defs>
  <rect class="st7" x="55.46" y="470.67" width="90.91" height="203.72"/>
  <rect class="st8" x="55.46" y="264.94" width="90.91" height="203.72"/>
  <rect class="st7" x="146.37" y="606.75" width="1718.79" height="69.66"/>
  <rect class="st8" x="146.37" y="401.01" width="1718.79" height="69.66"/>
  <text class="st9" transform="translate(92.15 81.58)"><tspan x="0" y="0">개별시설(공공건물 및 공중이용시설, 공동주택, 통신시설 등) 인증</tspan></text>
  <g>
    <path d="M408.22,204.71c-.22-.06-.32-.23-.29-.52l.09-.88c.03-.18.15-.23.36-.14.63.26,1.23.44,1.79.54.56.11,1.22.17,1.97.18,1.18.01,2.18-.29,2.99-.9.95-.63,1.42-1.55,1.42-2.77,0-2.13-1.6-3.19-4.79-3.19h-1.17c-.2,0-.29-.08-.29-.25v-.83c0-.2.1-.29.29-.29h.11c1.61,0,2.86-.17,3.76-.52,1.37-.52,2.05-1.47,2.05-2.83,0-.43-.12-.84-.35-1.2-.23-.37-.54-.68-.93-.93-.36-.21-.77-.37-1.22-.5-.45-.12-.92-.18-1.42-.18s-1.07.07-1.69.2c-.62.13-1.21.31-1.78.54-.2.08-.31.02-.34-.18l-.09-.83c-.04-.21.05-.36.29-.45.68-.23,1.31-.39,1.89-.5.58-.1,1.21-.16,1.87-.16,1.51,0,2.75.32,3.71.97,1.09.74,1.64,1.81,1.64,3.22,0,1-.36,1.88-1.08,2.61-.6.64-1.38,1.12-2.34,1.42.48.06.93.19,1.34.38.41.2.77.46,1.07.81.34.38.61.8.79,1.27.18.47.27.99.27,1.56,0,.75-.15,1.43-.46,2.04s-.75,1.13-1.32,1.56c-.56.41-1.19.72-1.91.96s-1.52.34-2.41.33c-.79-.01-1.48-.06-2.06-.13-.58-.08-1.17-.21-1.77-.41Z"/>
    <path d="M431.17,196.68c0,5.67-1.83,8.5-5.49,8.5s-5.54-2.83-5.54-8.5c0-2.35.36-4.27,1.08-5.74.92-1.85,2.4-2.77,4.46-2.77s3.5.92,4.43,2.77c.34.73.61,1.58.79,2.52.18.95.27,2.02.27,3.22ZM429.55,196.68c0-4.71-1.29-7.07-3.87-7.07s-3.87,2.36-3.87,7.07,1.29,7.09,3.87,7.09,3.87-2.36,3.87-7.09Z"/>
    <path d="M443.46,196.68c0,5.67-1.83,8.5-5.49,8.5s-5.54-2.83-5.54-8.5c0-2.35.36-4.27,1.08-5.74.92-1.85,2.4-2.77,4.46-2.77s3.5.92,4.43,2.77c.34.73.61,1.58.79,2.52.18.95.27,2.02.27,3.22ZM441.83,196.68c0-4.71-1.29-7.07-3.87-7.07s-3.87,2.36-3.87,7.07,1.29,7.09,3.87,7.09,3.87-2.36,3.87-7.09Z"/>
    <path d="M445.73,189.3c0-.63.12-1.05.36-1.27.24-.22.69-.33,1.35-.33h6.19c.36,0,.65.02.87.07s.39.13.52.25c.13.12.21.28.26.49.04.21.07.47.07.79v6.95c0,.63-.12,1.05-.36,1.27-.24.22-.69.33-1.35.33h-6.19c-.36,0-.65-.02-.87-.07s-.39-.13-.52-.26-.21-.29-.26-.5-.07-.46-.07-.78v-6.95ZM447.82,189.05c-.21,0-.35.04-.43.12-.08.08-.11.24-.11.46v6.28c0,.22.04.38.11.46s.22.12.43.12h5.42c.21,0,.35-.04.43-.12s.11-.24.11-.46v-6.28c0-.22-.04-.38-.11-.46-.08-.08-.22-.12-.43-.12h-5.42ZM461.68,206.51c0,.09-.04.16-.11.2s-.15.07-.22.07h-11.45c-.71,0-1.17-.13-1.38-.41-.22-.27-.33-.71-.33-1.33v-4.39c0-.21.1-.32.31-.32h.92c.21,0,.31.11.31.32v4.3c0,.21.03.34.1.39.07.05.21.08.42.08h11.09c.08,0,.15.03.22.08s.11.12.11.19v.81ZM460.67,201.06c0,.21-.11.31-.32.31h-.92c-.21,0-.32-.1-.32-.31v-14.31c0-.21.1-.31.32-.31h.92c.21,0,.32.1.32.31v6.44h3.1c.09,0,.17.03.24.08.07.05.1.12.1.21v.77c0,.08-.03.14-.1.2-.07.06-.15.09-.24.09h-3.1v6.53Z"/>
    <path d="M465.26,195.69c0-.63,0-1.13-.02-1.5-.02-.37-.04-.72-.07-1.05,0-.21.1-.32.31-.32h.83c.21,0,.31.11.31.32v1.21c.34-.55.81-.99,1.4-1.32s1.3-.48,2.16-.48c.9,0,1.69.22,2.36.66.67.44,1.09,1.09,1.24,1.95.31-.85.82-1.5,1.52-1.95.7-.44,1.5-.66,2.42-.66.58,0,1.11.1,1.59.31s.88.5,1.21.87c.34.37.6.8.78,1.29.18.5.27,1.02.27,1.58v8.08c0,.21-.11.32-.32.32h-.85c-.21,0-.32-.1-.32-.29v-7.79c0-2.05-.86-3.08-2.59-3.08-.53,0-.99.12-1.41.35-.41.23-.77.55-1.06.96-.29.41-.51.88-.65,1.42s-.21,1.11-.19,1.71v6.41c0,.21-.11.32-.32.32h-.9c-.21,0-.31-.11-.31-.32v-7.76c0-2.05-.87-3.08-2.61-3.08-1.02,0-1.82.33-2.41.99s-.88,1.53-.88,2.61v7.25c0,.21-.1.32-.31.32h-.88c-.21,0-.31-.11-.31-.32v-9Z"/>
    <path d="M488.81,196.81h-5.08c-.08,0-.11-.04-.11-.13v-.47s.01-.09.03-.13.05-.08.08-.11l1.8-2.16c.55-.67.99-1.3,1.32-1.87.32-.57.48-1.09.48-1.55,0-.78-.44-1.17-1.3-1.17-.3,0-.63.05-.98.15-.35.1-.7.23-1.05.39-.01.01-.04.02-.07.02-.04,0-.08-.04-.11-.11l-.07-.83c-.03-.12,0-.2.11-.25.41-.17.81-.3,1.2-.39.4-.1.77-.15,1.11-.15.81,0,1.43.2,1.87.61.44.4.65.98.65,1.73,0,.53-.18,1.13-.54,1.81-.36.68-.89,1.44-1.58,2.26l-.79.95h3.02c.12,0,.18.05.18.16v1.1c0,.11-.06.16-.18.16Z"/>
    <path d="M492.23,189.72c0-.63.12-1.05.36-1.27s.69-.33,1.35-.33h6.62c.36,0,.65.02.87.07s.39.13.52.25c.13.12.21.29.26.5s.07.47.07.79v9.97c0,.63-.12,1.05-.36,1.27-.24.22-.69.33-1.35.33h-6.62c-.36,0-.65-.02-.87-.07-.22-.04-.39-.13-.52-.26s-.21-.29-.26-.5c-.05-.2-.07-.46-.07-.78v-9.97ZM494.33,189.48c-.21,0-.35.04-.43.12s-.11.24-.11.46v9.29c0,.22.04.38.11.46.08.08.22.12.43.12h5.85c.21,0,.35-.04.43-.12.08-.08.11-.24.11-.46v-9.29c0-.22-.04-.38-.11-.46s-.22-.12-.43-.12h-5.85ZM507.87,206.87c0,.21-.1.32-.31.32h-.92c-.21,0-.32-.11-.32-.32v-20.12c0-.21.11-.31.32-.31h.92c.21,0,.31.1.31.31v20.12Z"/>
    <path d="M511.94,189.3c0-.63.12-1.05.36-1.27.24-.22.69-.33,1.35-.33h6.19c.36,0,.65.02.87.07s.39.13.52.25c.13.12.21.28.26.49.04.21.07.47.07.79v6.95c0,.63-.12,1.05-.36,1.27-.24.22-.69.33-1.35.33h-6.19c-.36,0-.65-.02-.87-.07s-.39-.13-.52-.26-.21-.29-.26-.5-.07-.46-.07-.78v-6.95ZM514.04,189.05c-.21,0-.35.04-.43.12-.08.08-.11.24-.11.46v6.28c0,.22.04.38.11.46s.22.12.43.12h5.42c.21,0,.35-.04.43-.12s.11-.24.11-.46v-6.28c0-.22-.04-.38-.11-.46-.08-.08-.22-.12-.43-.12h-5.42ZM527.9,206.51c0,.09-.04.16-.11.2s-.15.07-.22.07h-11.45c-.71,0-1.17-.13-1.38-.41-.22-.27-.33-.71-.33-1.33v-4.39c0-.21.1-.32.31-.32h.92c.21,0,.31.11.31.32v4.3c0,.21.03.34.1.39.07.05.21.08.42.08h11.09c.08,0,.15.03.22.08s.11.12.11.19v.81ZM526.88,201.06c0,.21-.11.31-.32.31h-.92c-.21,0-.32-.1-.32-.31v-14.31c0-.21.1-.31.32-.31h.92c.21,0,.32.1.32.31v6.44h3.1c.09,0,.17.03.24.08.07.05.1.12.1.21v.77c0,.08-.03.14-.1.2-.07.06-.15.09-.24.09h-3.1v6.53Z"/>
    <path d="M432.24,235.02c-.1,0-.17,0-.19-.01-.02,0-.06-.05-.12-.12-1.37-1.71-2.38-3.44-3.04-5.2-.66-1.76-.99-3.57-.99-5.45s.33-3.67.99-5.42,1.67-3.49,3.04-5.22c.06-.08.1-.12.12-.12.02,0,.07-.01.15-.01h.63c.09,0,.14,0,.14.02s-.02.06-.07.13c-2.36,3.69-3.53,7.23-3.53,10.62,0,1.72.3,3.46.9,5.22.6,1.75,1.49,3.56,2.66,5.4.07.1.04.16-.11.16h-.56Z"/>
    <path d="M441.98,217.06c-.23.87-.5,1.72-.83,2.55-.33.83-.71,1.65-1.15,2.46.22.45.49.91.8,1.38s.64.93,1,1.38c.36.45.73.87,1.11,1.27.38.4.76.75,1.14,1.05.08.08.11.15.1.23s-.04.14-.1.2l-.54.61c-.06.06-.12.1-.18.11-.06.02-.15-.03-.27-.13-.33-.29-.68-.62-1.04-.99-.36-.38-.71-.77-1.06-1.19-.35-.42-.67-.84-.99-1.27-.32-.43-.59-.84-.83-1.25-.68,1.03-1.45,2.02-2.32,2.95s-1.82,1.79-2.86,2.56c-.08.04-.15.08-.24.1-.08.02-.15,0-.19-.06l-.58-.7c-.06-.07-.08-.15-.06-.22s.07-.13.15-.18c1.88-1.47,3.4-3.07,4.59-4.81,1.18-1.74,2.06-3.72,2.63-5.94.06-.21.06-.36.01-.45-.05-.09-.18-.14-.39-.14h-5.71c-.18,0-.27-.1-.27-.29v-.79c0-.18.11-.27.32-.27h6.28c.78,0,1.27.13,1.46.38.19.25.2.73.02,1.44ZM445.47,220.95v-6.82c0-.21.1-.32.31-.32h.86c.21,0,.31.11.31.32v18.88c0,.21-.1.31-.31.31h-.86c-.21,0-.31-.11-.31-.31v-10.71h-3.24c-.09,0-.17-.03-.24-.09-.07-.06-.1-.13-.1-.2v-.76c0-.09.03-.16.1-.21s.15-.08.24-.08h3.24ZM450.94,233.87c0,.21-.11.32-.32.32h-.86c-.21,0-.31-.11-.31-.32v-20.12c0-.21.1-.31.31-.31h.86c.21,0,.32.1.32.31v20.12Z"/>
    <path d="M460.18,231.78c0,.21-.11.32-.32.32h-.92c-.21,0-.32-.1-.32-.32v-14.62c-.46.39-.9.76-1.3,1.1-.41.35-.83.71-1.28,1.1-.17.13-.31.12-.45-.04l-.45-.54c-.04-.07-.07-.15-.07-.24s.04-.15.11-.21l3.49-2.92c.06-.06.15-.09.27-.09h.61c.31,0,.5.03.55.08s.08.24.08.55v15.84Z"/>
    <path d="M467.56,214.34c0-.09.04-.16.11-.2s.15-.07.23-.07h11.9c.36,0,.65.04.87.11.22.08.39.18.51.33s.21.33.26.55c.05.22.08.49.08.81.03,1.17-.04,2.36-.21,3.58-.17,1.22-.41,2.53-.71,3.94h3.71c.07,0,.15.03.22.08s.11.12.11.21v.76c0,.08-.04.14-.11.2-.08.06-.15.09-.22.09h-8.84v8.98c0,.09-.03.17-.08.24s-.12.1-.21.1h-.97c-.08,0-.14-.03-.2-.1-.06-.07-.09-.15-.09-.24v-8.98h-8.73c-.09,0-.17-.03-.24-.09-.07-.06-.1-.13-.1-.2v-.76c0-.09.03-.16.1-.21s.15-.08.24-.08h13.88c.15-.58.29-1.22.43-1.91.13-.69.24-1.38.33-2.07.08-.69.14-1.34.17-1.96s.03-1.13,0-1.55c-.03-.21-.07-.34-.12-.39s-.18-.08-.39-.08h-11.56c-.08,0-.15-.03-.23-.08s-.11-.12-.11-.19v-.81Z"/>
    <path d="M495.53,216.27c-.38,2.19-1.32,4.14-2.85,5.86s-3.61,3.13-6.27,4.24c-.09.03-.18.04-.28.04s-.17-.06-.21-.18l-.34-.74c-.06-.12-.06-.22-.01-.29s.12-.13.19-.16c1.09-.45,2.1-.98,3.03-1.6s1.73-1.28,2.43-2c.7-.72,1.27-1.49,1.72-2.29.45-.81.75-1.64.9-2.5.09-.42-.09-.63-.54-.63h-6.93c-.18,0-.27-.1-.27-.29v-.79c0-.18.09-.27.27-.27h7.45c.72,0,1.21.13,1.46.38s.34.66.25,1.21ZM502.3,233.51c0,.09-.04.16-.11.2s-.15.07-.22.07h-11.45c-.71,0-1.17-.13-1.38-.39-.22-.26-.33-.7-.33-1.32v-4.32c0-.21.1-.31.31-.31h.92c.21,0,.31.1.31.31v4.21c0,.21.03.34.1.39.07.05.21.08.42.08h11.09c.08,0,.15.03.22.08s.11.12.11.19v.81ZM501.29,228.2c0,.21-.11.32-.32.32h-.92c-.21,0-.32-.11-.32-.32v-14.45c0-.21.1-.31.32-.31h.92c.21,0,.32.1.32.31v6.5h3.1c.09,0,.17.03.24.08.07.05.1.12.1.21v.77c0,.08-.03.14-.1.2-.07.06-.15.09-.24.09h-3.1v6.59Z"/>
    <path d="M504.82,235.02c-.13,0-.17-.05-.09-.16,1.17-1.84,2.05-3.65,2.64-5.4s.89-3.5.89-5.22-.29-3.45-.88-5.21-1.46-3.57-2.63-5.41c-.04-.08-.07-.12-.07-.13s.04-.02.11-.02h.63c.08,0,.12,0,.15.01.02,0,.07.05.15.12,1.37,1.73,2.37,3.46,3.03,5.22.65,1.75.98,3.56.98,5.42s-.33,3.69-.98,5.45c-.65,1.75-1.66,3.49-3.03,5.2-.08.08-.12.12-.15.12-.02,0-.09.01-.19.01h-.56Z"/>
  </g>
  <g>
    <path d="M660.51,206.21c-.22-.06-.32-.23-.29-.52l.09-.88c.03-.18.15-.22.36-.13.63.25,1.23.44,1.79.54.56.11,1.22.17,1.97.18,1.18.02,2.18-.28,2.99-.9.95-.63,1.42-1.55,1.42-2.77,0-2.13-1.6-3.2-4.79-3.2h-1.17c-.2,0-.29-.08-.29-.25v-.83c0-.19.1-.29.29-.29h.11c1.61,0,2.86-.17,3.76-.52,1.37-.53,2.05-1.47,2.05-2.83,0-.44-.12-.84-.35-1.2-.23-.37-.54-.68-.93-.93-.36-.21-.77-.38-1.22-.5-.45-.12-.92-.18-1.42-.18s-1.07.07-1.69.2c-.62.13-1.21.32-1.78.54-.2.08-.31.01-.34-.18l-.09-.83c-.04-.21.05-.36.29-.45.68-.22,1.31-.39,1.89-.5.58-.1,1.21-.16,1.87-.16,1.51,0,2.75.32,3.71.97,1.09.74,1.64,1.81,1.64,3.22,0,1-.36,1.88-1.08,2.61-.6.65-1.38,1.12-2.34,1.42.48.06.93.19,1.34.38.41.2.77.47,1.07.81.34.38.61.8.79,1.27.18.47.27.99.27,1.56,0,.75-.15,1.43-.46,2.04s-.75,1.13-1.32,1.56c-.56.41-1.19.72-1.91.96s-1.52.34-2.41.33c-.79-.02-1.48-.06-2.06-.14-.58-.08-1.17-.21-1.77-.4Z"/>
    <path d="M683.01,198.17c0,5.67-1.83,8.51-5.49,8.51s-5.54-2.84-5.54-8.51c0-2.35.36-4.27,1.08-5.74.92-1.84,2.4-2.77,4.46-2.77s3.5.92,4.43,2.77c.34.74.61,1.58.79,2.52.18.94.27,2.02.27,3.22ZM681.39,198.17c0-4.71-1.29-7.06-3.87-7.06s-3.87,2.35-3.87,7.06,1.29,7.09,3.87,7.09,3.87-2.36,3.87-7.09Z"/>
    <path d="M694.84,198.17c0,5.67-1.83,8.51-5.49,8.51s-5.54-2.84-5.54-8.51c0-2.35.36-4.27,1.08-5.74.92-1.84,2.4-2.77,4.46-2.77s3.5.92,4.43,2.77c.34.74.61,1.58.79,2.52.18.94.27,2.02.27,3.22ZM693.22,198.17c0-4.71-1.29-7.06-3.87-7.06s-3.87,2.35-3.87,7.06,1.29,7.09,3.87,7.09,3.87-2.36,3.87-7.09Z"/>
    <path d="M696.66,190.79c0-.63.12-1.05.36-1.27.24-.22.69-.33,1.35-.33h6.19c.36,0,.65.02.87.07.22.04.39.13.52.25.13.12.21.29.26.5s.07.47.07.79v6.95c0,.63-.12,1.05-.36,1.27-.24.22-.69.33-1.35.33h-6.19c-.36,0-.65-.02-.87-.07s-.39-.13-.52-.26-.21-.29-.26-.49c-.04-.2-.07-.46-.07-.78v-6.95ZM698.75,190.55c-.21,0-.35.04-.43.12-.08.08-.11.24-.11.46v6.28c0,.22.04.38.11.46.08.08.22.12.43.12h5.42c.21,0,.35-.04.43-.12.08-.08.11-.24.11-.46v-6.28c0-.23-.04-.38-.11-.46-.08-.08-.22-.12-.43-.12h-5.42ZM712.62,208.01c0,.09-.04.16-.11.2s-.15.07-.22.07h-11.45c-.71,0-1.17-.13-1.38-.4-.22-.27-.33-.71-.33-1.33v-4.39c0-.21.1-.31.31-.31h.92c.21,0,.31.11.31.31v4.3c0,.21.03.34.1.39s.21.08.42.08h11.09c.08,0,.15.03.22.08.08.05.11.12.11.19v.81ZM711.6,202.56c0,.21-.11.32-.32.32h-.92c-.21,0-.32-.11-.32-.32v-14.31c0-.21.1-.32.32-.32h.92c.21,0,.32.11.32.32v6.43h3.1c.09,0,.17.03.24.08s.1.12.1.21v.76c0,.08-.03.14-.1.2-.07.06-.15.09-.24.09h-3.1v6.52Z"/>
    <path d="M715.74,197.18c0-.63,0-1.13-.02-1.5-.02-.37-.04-.72-.07-1.05,0-.21.1-.31.31-.31h.83c.21,0,.31.1.31.31v1.21c.34-.55.81-.99,1.4-1.32.58-.32,1.3-.48,2.16-.48.9,0,1.69.22,2.36.66s1.09,1.09,1.24,1.95c.31-.86.82-1.5,1.52-1.95s1.5-.66,2.42-.66c.58,0,1.11.11,1.59.32s.88.5,1.21.87c.34.37.6.8.78,1.29.18.5.27,1.02.27,1.58v8.08c0,.21-.11.31-.32.31h-.85c-.21,0-.32-.1-.32-.29v-7.79c0-2.05-.86-3.08-2.59-3.08-.53,0-.99.12-1.41.35-.41.23-.77.55-1.06.96-.29.4-.51.88-.65,1.42s-.21,1.11-.19,1.71v6.41c0,.21-.11.31-.32.31h-.9c-.21,0-.31-.1-.31-.31v-7.76c0-2.05-.87-3.08-2.61-3.08-1.02,0-1.82.33-2.41.99s-.88,1.53-.88,2.61v7.25c0,.21-.1.31-.31.31h-.88c-.21,0-.31-.1-.31-.31v-9Z"/>
    <path d="M738.85,198.31h-5.08c-.08,0-.11-.04-.11-.14v-.47s.01-.09.03-.14.05-.08.08-.11l1.8-2.16c.55-.67.99-1.3,1.32-1.87.32-.57.48-1.09.48-1.55,0-.78-.44-1.17-1.3-1.17-.3,0-.63.05-.98.15-.35.1-.7.23-1.05.39-.01.02-.04.02-.07.02-.04,0-.08-.04-.11-.11l-.07-.83c-.03-.12,0-.2.11-.25.41-.17.81-.3,1.2-.39.4-.1.77-.15,1.11-.15.81,0,1.43.2,1.87.61.44.41.65.98.65,1.73,0,.53-.18,1.13-.54,1.81-.36.68-.89,1.44-1.58,2.26l-.79.95h3.02c.12,0,.18.05.18.16v1.1c0,.11-.06.16-.18.16Z"/>
    <path d="M752.19,196.51c0,.84-.1,1.69-.3,2.54-.2.85-.52,1.63-.96,2.32-.44.69-.99,1.26-1.68,1.7s-1.5.66-2.46.66-1.83-.22-2.51-.65c-.68-.43-1.23-1-1.64-1.7-.41-.7-.71-1.47-.89-2.33-.18-.86-.27-1.7-.27-2.54,0-.88.09-1.76.27-2.62.18-.86.48-1.64.89-2.33.41-.69.96-1.25,1.64-1.67s1.52-.63,2.51-.63,1.78.21,2.46.63,1.24.97,1.68,1.65c.43.68.75,1.46.96,2.32.2.86.3,1.74.3,2.64ZM750.59,196.48c0-.69-.07-1.39-.21-2.09s-.36-1.34-.66-1.9c-.3-.56-.69-1.02-1.17-1.37-.48-.35-1.06-.53-1.75-.53s-1.32.18-1.79.53c-.47.35-.85.81-1.14,1.37s-.49,1.2-.61,1.9-.18,1.4-.18,2.09.06,1.34.17,2.04c.11.7.31,1.33.6,1.91s.67,1.05,1.15,1.42c.48.37,1.08.55,1.8.55s1.28-.18,1.75-.55c.48-.37.87-.84,1.17-1.42.3-.58.52-1.21.66-1.91.14-.7.21-1.38.21-2.04ZM757.46,208.37c0,.21-.1.31-.31.31h-.92c-.21,0-.32-.11-.32-.31v-20.12c0-.21.11-.32.32-.32h.92c.21,0,.31.11.31.32v20.12Z"/>
    <path d="M766.93,188.75c0,1.09-.11,2.11-.34,3.06.18.63.43,1.23.75,1.8.32.57.7,1.1,1.14,1.6.44.5.91.94,1.43,1.34.52.4,1.06.73,1.63,1,.09.04.13.11.12.19,0,.08-.03.15-.06.21l-.47.74c-.04.08-.1.13-.16.16-.06.03-.16,0-.29-.07-.34-.18-.74-.42-1.18-.73-.44-.31-.89-.67-1.34-1.09s-.88-.88-1.28-1.38c-.41-.5-.74-1.02-1.01-1.56-.5,1.14-1.16,2.17-2,3.11-.84.93-1.82,1.76-2.95,2.5-.08.04-.16.08-.25.09-.09.02-.17-.01-.23-.09l-.56-.74c-.04-.06-.05-.14-.02-.23s.08-.16.16-.2c1.79-1.09,3.13-2.48,4.03-4.14.9-1.67,1.33-3.53,1.3-5.58,0-.24.09-.36.27-.36l1.06.07c.17,0,.25.11.25.32ZM763.26,204.65c0-.63.16-1.2.47-1.7.32-.5.76-.93,1.33-1.28s1.25-.62,2.05-.81,1.68-.28,2.66-.28c.9,0,1.74.09,2.53.28.79.19,1.48.45,2.07.8.59.34,1.06.77,1.41,1.27.35.5.52,1.08.52,1.72s-.17,1.22-.52,1.73c-.34.51-.81.94-1.41,1.29s-1.28.62-2.07.81c-.79.19-1.63.28-2.53.28-.98,0-1.86-.09-2.66-.28s-1.48-.46-2.05-.81-1.01-.78-1.33-1.29-.47-1.09-.47-1.73ZM764.86,204.72c0,.44.12.82.36,1.16.24.34.57.62,1,.84.43.22.94.4,1.54.52.6.12,1.26.18,1.98.18.64,0,1.27-.06,1.87-.18.6-.12,1.13-.29,1.59-.52.46-.23.82-.51,1.09-.84.27-.34.4-.72.4-1.16s-.13-.85-.4-1.19c-.27-.34-.63-.63-1.09-.87-.46-.23-.99-.41-1.59-.54-.6-.13-1.22-.19-1.87-.19-.72,0-1.38.06-1.98.19-.6.13-1.11.31-1.54.54s-.76.52-1,.87c-.24.34-.36.74-.36,1.19ZM776.02,200.15c0,.21-.11.31-.32.31h-.92c-.21,0-.32-.1-.32-.31v-11.9c0-.21.1-.32.32-.32h.92c.21,0,.32.11.32.32v5.42h3.1c.09,0,.17.03.24.08s.1.12.1.21v.76c0,.08-.03.14-.1.2-.07.06-.15.09-.24.09h-3.1v5.13Z"/>
    <path d="M795.32,197.41c.12.17.18.27.18.33s-.06.18-.18.37c-.72,1.2-1.65,1.8-2.79,1.8-.57,0-1.49-.28-2.77-.85-1.26-.6-2.06-.9-2.38-.9-.56,0-1.18.46-1.87,1.37-.13.2-.22.29-.27.29s-.13-.1-.27-.29l-.34-.47c-.12-.18-.18-.31-.17-.39,0-.08.07-.23.19-.44.72-1.12,1.63-1.69,2.75-1.69.63,0,1.55.29,2.77.86,1.21.6,2.01.9,2.38.9.3,0,.61-.12.93-.37.32-.25.65-.6.98-1.05.12-.17.2-.25.23-.26.03,0,.1.07.22.24l.41.56Z"/>
    <path d="M808.26,206.27c0,.21-.11.31-.32.31h-.92c-.21,0-.32-.1-.32-.31v-14.62c-.46.39-.9.76-1.3,1.1-.41.34-.83.71-1.28,1.1-.17.13-.31.12-.45-.04l-.45-.54c-.04-.08-.07-.15-.07-.24s.04-.15.11-.21l3.49-2.92c.06-.06.15-.09.27-.09h.61c.31,0,.5.03.55.08.05.05.08.24.08.55v15.84Z"/>
    <path d="M816.36,205.13c.2,0,.29.03.29.1s-.02.15-.04.24l-1.49,4.03c-.06.12-.12.2-.17.24-.05.04-.13.06-.24.06h-.94c-.2,0-.27-.11-.23-.32l1.06-3.96c.03-.09.08-.18.13-.26.06-.08.17-.12.34-.12h1.28Z"/>
    <path d="M829.21,198.17c0,5.67-1.83,8.51-5.49,8.51s-5.54-2.84-5.54-8.51c0-2.35.36-4.27,1.08-5.74.92-1.84,2.4-2.77,4.46-2.77s3.5.92,4.43,2.77c.34.74.61,1.58.79,2.52.18.94.27,2.02.27,3.22ZM827.59,198.17c0-4.71-1.29-7.06-3.87-7.06s-3.87,2.35-3.87,7.06,1.29,7.09,3.87,7.09,3.87-2.36,3.87-7.09Z"/>
    <path d="M841.04,198.17c0,5.67-1.83,8.51-5.49,8.51s-5.54-2.84-5.54-8.51c0-2.35.36-4.27,1.08-5.74.92-1.84,2.4-2.77,4.46-2.77s3.5.92,4.43,2.77c.34.74.61,1.58.79,2.52.18.94.27,2.02.27,3.22ZM839.42,198.17c0-4.71-1.29-7.06-3.87-7.06s-3.87,2.35-3.87,7.06,1.29,7.09,3.87,7.09,3.87-2.36,3.87-7.09Z"/>
    <path d="M852.88,198.17c0,5.67-1.83,8.51-5.49,8.51s-5.54-2.84-5.54-8.51c0-2.35.36-4.27,1.08-5.74.92-1.84,2.4-2.77,4.46-2.77s3.5.92,4.43,2.77c.34.74.61,1.58.79,2.52.18.94.27,2.02.27,3.22ZM851.26,198.17c0-4.71-1.29-7.06-3.87-7.06s-3.87,2.35-3.87,7.06,1.29,7.09,3.87,7.09,3.87-2.36,3.87-7.09Z"/>
    <path d="M854.7,190.79c0-.63.12-1.05.36-1.27.24-.22.69-.33,1.35-.33h6.19c.36,0,.65.02.87.07.22.04.39.13.52.25.13.12.21.29.26.5s.07.47.07.79v6.95c0,.63-.12,1.05-.36,1.27-.24.22-.69.33-1.35.33h-6.19c-.36,0-.65-.02-.87-.07s-.39-.13-.52-.26-.21-.29-.26-.49c-.04-.2-.07-.46-.07-.78v-6.95ZM856.79,190.55c-.21,0-.35.04-.43.12-.08.08-.11.24-.11.46v6.28c0,.22.04.38.11.46.08.08.22.12.43.12h5.42c.21,0,.35-.04.43-.12.08-.08.11-.24.11-.46v-6.28c0-.23-.04-.38-.11-.46-.08-.08-.22-.12-.43-.12h-5.42ZM870.65,208.01c0,.09-.04.16-.11.2s-.15.07-.22.07h-11.45c-.71,0-1.17-.13-1.38-.4-.22-.27-.33-.71-.33-1.33v-4.39c0-.21.1-.31.31-.31h.92c.21,0,.31.11.31.31v4.3c0,.21.03.34.1.39s.21.08.42.08h11.09c.08,0,.15.03.22.08.08.05.11.12.11.19v.81ZM869.64,202.56c0,.21-.11.32-.32.32h-.92c-.21,0-.32-.11-.32-.32v-14.31c0-.21.1-.32.32-.32h.92c.21,0,.32.11.32.32v6.43h3.1c.09,0,.17.03.24.08s.1.12.1.21v.76c0,.08-.03.14-.1.2-.07.06-.15.09-.24.09h-3.1v6.52Z"/>
    <path d="M873.78,197.18c0-.63,0-1.13-.02-1.5-.02-.37-.04-.72-.07-1.05,0-.21.1-.31.31-.31h.83c.21,0,.31.1.31.31v1.21c.34-.55.81-.99,1.4-1.32.58-.32,1.3-.48,2.16-.48.9,0,1.69.22,2.36.66s1.09,1.09,1.24,1.95c.31-.86.82-1.5,1.52-1.95s1.5-.66,2.42-.66c.58,0,1.11.11,1.59.32s.88.5,1.21.87c.34.37.6.8.78,1.29.18.5.27,1.02.27,1.58v8.08c0,.21-.11.31-.32.31h-.85c-.21,0-.32-.1-.32-.29v-7.79c0-2.05-.86-3.08-2.59-3.08-.53,0-.99.12-1.41.35-.41.23-.77.55-1.06.96-.29.4-.51.88-.65,1.42s-.21,1.11-.19,1.71v6.41c0,.21-.11.31-.32.31h-.9c-.21,0-.31-.1-.31-.31v-7.76c0-2.05-.87-3.08-2.61-3.08-1.02,0-1.82.33-2.41.99s-.88,1.53-.88,2.61v7.25c0,.21-.1.31-.31.31h-.88c-.21,0-.31-.1-.31-.31v-9Z"/>
    <path d="M896.89,198.31h-5.08c-.08,0-.11-.04-.11-.14v-.47s.01-.09.03-.14.05-.08.08-.11l1.8-2.16c.55-.67.99-1.3,1.32-1.87.32-.57.48-1.09.48-1.55,0-.78-.44-1.17-1.3-1.17-.3,0-.63.05-.98.15-.35.1-.7.23-1.05.39-.01.02-.04.02-.07.02-.04,0-.08-.04-.11-.11l-.07-.83c-.03-.12,0-.2.11-.25.41-.17.81-.3,1.2-.39.4-.1.77-.15,1.11-.15.81,0,1.43.2,1.87.61.44.41.65.98.65,1.73,0,.53-.18,1.13-.54,1.81-.36.68-.89,1.44-1.58,2.26l-.79.95h3.02c.12,0,.18.05.18.16v1.1c0,.11-.06.16-.18.16Z"/>
    <path d="M899.86,191.22c0-.63.12-1.05.36-1.27.24-.22.69-.33,1.35-.33h6.62c.36,0,.65.02.87.07s.39.13.52.25c.13.12.21.29.26.5s.07.47.07.79v9.97c0,.63-.12,1.05-.36,1.27-.24.22-.69.33-1.35.33h-6.62c-.36,0-.65-.02-.87-.07-.22-.04-.39-.13-.52-.26-.13-.13-.21-.29-.26-.5-.05-.2-.07-.46-.07-.78v-9.97ZM901.95,190.97c-.21,0-.35.04-.43.12-.08.08-.11.24-.11.46v9.29c0,.23.04.38.11.46.08.08.22.12.43.12h5.85c.21,0,.35-.04.43-.12.08-.08.11-.24.11-.46v-9.29c0-.23-.04-.38-.11-.46-.08-.08-.22-.12-.43-.12h-5.85ZM915.49,208.37c0,.21-.1.31-.31.31h-.92c-.21,0-.32-.11-.32-.31v-20.12c0-.21.11-.32.32-.32h.92c.21,0,.31.11.31.32v20.12Z"/>
    <path d="M919.12,190.79c0-.63.12-1.05.36-1.27.24-.22.69-.33,1.35-.33h6.19c.36,0,.65.02.87.07.22.04.39.13.52.25.13.12.21.29.26.5s.07.47.07.79v6.95c0,.63-.12,1.05-.36,1.27-.24.22-.69.33-1.35.33h-6.19c-.36,0-.65-.02-.87-.07s-.39-.13-.52-.26-.21-.29-.26-.49c-.04-.2-.07-.46-.07-.78v-6.95ZM921.21,190.55c-.21,0-.35.04-.43.12-.08.08-.11.24-.11.46v6.28c0,.22.04.38.11.46.08.08.22.12.43.12h5.42c.21,0,.35-.04.43-.12.08-.08.11-.24.11-.46v-6.28c0-.23-.04-.38-.11-.46-.08-.08-.22-.12-.43-.12h-5.42ZM935.07,208.01c0,.09-.04.16-.11.2s-.15.07-.22.07h-11.45c-.71,0-1.17-.13-1.38-.4-.22-.27-.33-.71-.33-1.33v-4.39c0-.21.1-.31.31-.31h.92c.21,0,.31.11.31.31v4.3c0,.21.03.34.1.39s.21.08.42.08h11.09c.08,0,.15.03.22.08.08.05.11.12.11.19v.81ZM934.06,202.56c0,.21-.11.32-.32.32h-.92c-.21,0-.32-.11-.32-.32v-14.31c0-.21.1-.32.32-.32h.92c.21,0,.32.11.32.32v6.43h3.1c.09,0,.17.03.24.08s.1.12.1.21v.76c0,.08-.03.14-.1.2-.07.06-.15.09-.24.09h-3.1v6.52Z"/>
    <path d="M763.09,236.51c-.1,0-.17,0-.19-.01s-.06-.05-.12-.12c-1.37-1.71-2.38-3.44-3.04-5.2s-.99-3.57-.99-5.45.33-3.67.99-5.42,1.67-3.5,3.04-5.22c.06-.07.1-.12.12-.12s.07-.01.15-.01h.63c.09,0,.14,0,.14.02,0,.02-.02.06-.07.14-2.36,3.69-3.53,7.23-3.53,10.62,0,1.73.3,3.47.9,5.22.6,1.75,1.49,3.55,2.66,5.4.07.11.04.16-.11.16h-.56Z"/>
    <path d="M772.39,218.56c-.23.87-.5,1.72-.83,2.55-.33.83-.71,1.65-1.15,2.46.22.45.49.91.8,1.38.31.47.64.93,1,1.38.36.45.73.87,1.11,1.27.38.4.76.75,1.14,1.05.08.08.11.15.1.22s-.04.14-.1.2l-.54.61c-.06.06-.12.1-.18.11-.06.01-.15-.03-.27-.14-.33-.28-.68-.61-1.04-.99-.36-.38-.71-.77-1.06-1.19-.35-.42-.67-.84-.99-1.27s-.59-.84-.83-1.25c-.68,1.04-1.45,2.02-2.32,2.95-.87.93-1.82,1.79-2.86,2.57-.08.04-.15.08-.24.1-.08.02-.15,0-.19-.06l-.58-.7c-.06-.08-.08-.15-.06-.23.02-.07.07-.13.15-.18,1.88-1.47,3.4-3.08,4.59-4.82,1.18-1.74,2.06-3.72,2.63-5.94.06-.21.06-.36.01-.45s-.18-.13-.39-.13h-5.71c-.18,0-.27-.1-.27-.29v-.79c0-.18.11-.27.32-.27h6.28c.78,0,1.27.13,1.46.38.19.25.2.74.02,1.44ZM775.87,222.45v-6.82c0-.21.1-.31.31-.31h.86c.21,0,.31.11.31.31v18.88c0,.21-.1.32-.31.32h-.86c-.21,0-.31-.11-.31-.32v-10.71h-3.24c-.09,0-.17-.03-.24-.09s-.1-.13-.1-.2v-.76c0-.09.03-.16.1-.21.07-.05.15-.08.24-.08h3.24ZM781.34,235.37c0,.21-.11.31-.32.31h-.86c-.21,0-.31-.11-.31-.31v-20.12c0-.21.1-.32.31-.32h.86c.21,0,.32.11.32.32v20.12Z"/>
    <path d="M783.86,233.59c-.17,0-.29,0-.37-.01-.08,0-.14-.03-.18-.07s-.06-.1-.07-.18c0-.08-.01-.21-.01-.37l.02-.5c0-.19.06-.35.18-.47l3.71-4.1c2.76-2.98,4.14-5.25,4.14-6.79,0-.9-.3-1.65-.9-2.25-.58-.58-1.31-.88-2.18-.88-1.21,0-2.48.34-3.8,1.01-.21.11-.33.06-.36-.13l-.13-.74c-.04-.25.03-.41.22-.47.76-.34,1.46-.6,2.07-.76.61-.17,1.25-.25,1.89-.25,1.44,0,2.59.36,3.44,1.08.96.78,1.44,1.89,1.44,3.33,0,.55-.13,1.16-.41,1.82-.27.66-.65,1.35-1.12,2.07-.3.42-.72.97-1.27,1.64s-1.17,1.39-1.88,2.16c-.52.57-1.05,1.15-1.56,1.73s-1.04,1.16-1.56,1.73h7.88c.21,0,.31.11.31.31v.77c0,.21-.1.31-.31.31h-9.18Z"/>
    <path d="M797.07,215.84c0-.09.04-.16.11-.2.08-.04.15-.07.23-.07h11.9c.36,0,.65.04.87.11.22.08.39.18.51.33s.21.33.26.55.08.5.08.81c.03,1.17-.04,2.36-.21,3.58-.17,1.21-.41,2.53-.71,3.94h3.71c.07,0,.15.03.22.08s.11.12.11.21v.77c0,.08-.04.14-.11.2-.08.06-.15.09-.22.09h-8.84v8.98c0,.09-.03.17-.08.24s-.12.1-.21.1h-.97c-.08,0-.14-.03-.2-.1-.06-.07-.09-.15-.09-.24v-8.98h-8.73c-.09,0-.17-.03-.24-.09-.07-.06-.1-.13-.1-.2v-.77c0-.09.03-.16.1-.21s.15-.08.24-.08h13.88c.15-.58.29-1.22.43-1.91.13-.69.24-1.38.33-2.07.08-.69.14-1.34.17-1.96.03-.61.03-1.13,0-1.55-.03-.21-.07-.34-.12-.39-.05-.05-.18-.08-.39-.08h-11.56c-.08,0-.15-.03-.23-.08s-.11-.12-.11-.19v-.81Z"/>
    <path d="M824.58,217.77c-.38,2.19-1.32,4.14-2.85,5.86-1.52,1.72-3.61,3.13-6.27,4.24-.09.03-.18.04-.28.04s-.17-.06-.21-.18l-.34-.74c-.06-.12-.06-.22-.01-.29s.12-.13.19-.16c1.09-.45,2.1-.98,3.03-1.6s1.73-1.28,2.43-2c.7-.72,1.27-1.48,1.72-2.29.45-.81.75-1.64.9-2.5.09-.42-.09-.63-.54-.63h-6.93c-.18,0-.27-.1-.27-.29v-.79c0-.18.09-.27.27-.27h7.45c.72,0,1.21.13,1.46.38s.34.66.25,1.21ZM831.36,235.01c0,.09-.04.16-.11.2s-.15.07-.22.07h-11.45c-.71,0-1.17-.13-1.38-.39-.22-.26-.33-.7-.33-1.32v-4.32c0-.21.1-.32.31-.32h.92c.21,0,.31.11.31.32v4.21c0,.21.03.34.1.39s.21.08.42.08h11.09c.08,0,.15.03.22.08.08.05.11.12.11.19v.81ZM830.34,229.69c0,.21-.11.32-.32.32h-.92c-.21,0-.32-.1-.32-.32v-14.44c0-.21.1-.32.32-.32h.92c.21,0,.32.11.32.32v6.5h3.1c.09,0,.17.03.24.08s.1.12.1.21v.76c0,.08-.03.14-.1.2-.07.06-.15.09-.24.09h-3.1v6.59Z"/>
    <path d="M833.43,236.51c-.13,0-.17-.05-.09-.16,1.17-1.84,2.05-3.64,2.64-5.4s.89-3.5.89-5.22-.29-3.45-.88-5.21-1.46-3.57-2.63-5.41c-.04-.08-.07-.12-.07-.14,0-.01.04-.02.11-.02h.63c.08,0,.12,0,.15.01s.07.05.15.12c1.37,1.73,2.37,3.47,3.03,5.22.65,1.75.98,3.56.98,5.42s-.33,3.69-.98,5.45c-.65,1.75-1.66,3.49-3.03,5.2-.08.08-.12.12-.15.12s-.09.01-.19.01h-.56Z"/>
  </g>
  <g>
    <path d="M977.87,204.72c0,.21-.11.32-.32.32h-.92c-.21,0-.32-.11-.32-.32v-14.62c-.46.39-.9.76-1.3,1.1-.41.35-.83.71-1.28,1.1-.17.13-.31.12-.45-.04l-.45-.54c-.04-.07-.07-.15-.07-.24s.04-.15.11-.21l3.49-2.92c.06-.06.15-.09.27-.09h.61c.31,0,.5.03.55.08.05.05.08.24.08.55v15.84Z"/>
    <path d="M985.97,203.57c.2,0,.29.03.29.1s-.02.15-.04.24l-1.49,4.03c-.06.12-.12.2-.17.24-.05.04-.13.06-.24.06h-.94c-.2,0-.27-.11-.23-.32l1.06-3.96c.03-.09.08-.18.13-.26.06-.08.17-.12.34-.12h1.28Z"/>
    <path d="M998.81,196.62c0,5.67-1.83,8.51-5.49,8.51s-5.54-2.84-5.54-8.51c0-2.35.36-4.27,1.08-5.74.92-1.85,2.4-2.77,4.46-2.77s3.5.92,4.43,2.77c.34.73.61,1.57.79,2.52.18.95.27,2.02.27,3.22ZM997.19,196.62c0-4.71-1.29-7.06-3.87-7.06s-3.87,2.36-3.87,7.06,1.29,7.09,3.87,7.09,3.87-2.36,3.87-7.09Z"/>
    <path d="M1010.65,196.62c0,5.67-1.83,8.51-5.49,8.51s-5.54-2.84-5.54-8.51c0-2.35.36-4.27,1.08-5.74.92-1.85,2.4-2.77,4.46-2.77s3.5.92,4.43,2.77c.34.73.61,1.57.79,2.52.18.95.27,2.02.27,3.22ZM1009.03,196.62c0-4.71-1.29-7.06-3.87-7.06s-3.87,2.36-3.87,7.06,1.29,7.09,3.87,7.09,3.87-2.36,3.87-7.09Z"/>
    <path d="M1022.48,196.62c0,5.67-1.83,8.51-5.49,8.51s-5.54-2.84-5.54-8.51c0-2.35.36-4.27,1.08-5.74.92-1.85,2.4-2.77,4.46-2.77s3.5.92,4.43,2.77c.34.73.61,1.57.79,2.52.18.95.27,2.02.27,3.22ZM1020.86,196.62c0-4.71-1.29-7.06-3.87-7.06s-3.87,2.36-3.87,7.06,1.29,7.09,3.87,7.09,3.87-2.36,3.87-7.09Z"/>
    <path d="M1024.31,189.24c0-.63.12-1.05.36-1.27.24-.22.69-.33,1.35-.33h6.19c.36,0,.65.02.87.07.22.04.39.13.52.25.13.12.21.29.26.5s.07.47.07.79v6.95c0,.63-.12,1.05-.36,1.27-.24.22-.69.33-1.35.33h-6.19c-.36,0-.65-.02-.87-.07s-.39-.13-.52-.26c-.13-.13-.21-.29-.26-.49-.04-.2-.07-.46-.07-.78v-6.95ZM1026.4,188.99c-.21,0-.35.04-.43.12s-.11.24-.11.46v6.28c0,.22.04.38.11.46s.22.12.43.12h5.42c.21,0,.35-.04.43-.12s.11-.24.11-.46v-6.28c0-.23-.04-.38-.11-.46s-.22-.12-.43-.12h-5.42ZM1040.26,206.45c0,.09-.04.16-.11.2s-.15.07-.22.07h-11.45c-.71,0-1.17-.13-1.38-.41-.22-.27-.33-.71-.33-1.33v-4.39c0-.21.1-.31.31-.31h.92c.21,0,.31.11.31.31v4.3c0,.21.03.34.1.39s.21.08.42.08h11.09c.08,0,.15.03.22.08s.11.12.11.19v.81ZM1039.25,201.01c0,.21-.11.31-.32.31h-.92c-.21,0-.32-.11-.32-.31v-14.31c0-.21.1-.31.32-.31h.92c.21,0,.32.1.32.31v6.44h3.1c.09,0,.17.03.24.08s.1.12.1.21v.76c0,.08-.03.14-.1.2s-.15.09-.24.09h-3.1v6.53Z"/>
    <path d="M1043.39,195.63c0-.63,0-1.13-.02-1.5-.02-.37-.04-.71-.07-1.04,0-.21.1-.32.31-.32h.83c.21,0,.31.1.31.32v1.21c.34-.55.81-.99,1.4-1.32s1.3-.48,2.16-.48c.9,0,1.69.22,2.36.66.67.44,1.09,1.09,1.24,1.95.31-.85.82-1.5,1.52-1.95.7-.44,1.5-.66,2.42-.66.58,0,1.11.11,1.59.32s.88.5,1.21.87c.34.37.6.8.78,1.29.18.5.27,1.02.27,1.58v8.08c0,.21-.11.32-.32.32h-.85c-.21,0-.32-.1-.32-.29v-7.79c0-2.05-.86-3.08-2.59-3.08-.53,0-.99.12-1.41.35-.41.23-.77.55-1.06.96-.29.4-.51.88-.65,1.42-.14.54-.21,1.11-.19,1.71v6.41c0,.21-.11.32-.32.32h-.9c-.21,0-.31-.11-.31-.32v-7.76c0-2.05-.87-3.08-2.61-3.08-1.02,0-1.82.33-2.41.99s-.88,1.53-.88,2.61v7.25c0,.21-.1.32-.31.32h-.88c-.21,0-.31-.11-.31-.32v-9Z"/>
    <path d="M1066.49,196.75h-5.08c-.08,0-.11-.04-.11-.14v-.47s.01-.09.03-.14.05-.08.08-.11l1.8-2.16c.55-.68.99-1.3,1.32-1.87.32-.57.48-1.09.48-1.55,0-.78-.44-1.17-1.3-1.17-.3,0-.63.05-.98.15-.35.1-.7.23-1.05.39-.01.02-.04.02-.07.02-.04,0-.08-.04-.11-.11l-.07-.83c-.03-.12,0-.2.11-.25.41-.16.81-.3,1.2-.39.4-.1.77-.15,1.11-.15.81,0,1.43.2,1.87.61.44.4.65.98.65,1.73,0,.53-.18,1.13-.54,1.81-.36.68-.89,1.44-1.58,2.26l-.79.95h3.02c.12,0,.18.05.18.16v1.1c0,.11-.06.16-.18.16Z"/>
    <path d="M1079.83,194.95c0,.84-.1,1.69-.3,2.54-.2.85-.52,1.63-.96,2.32-.44.69-.99,1.26-1.68,1.7s-1.5.66-2.46.66-1.83-.22-2.51-.65c-.68-.44-1.23-1-1.64-1.7-.41-.7-.71-1.47-.89-2.33-.18-.85-.27-1.7-.27-2.54,0-.88.09-1.76.27-2.62.18-.86.48-1.64.89-2.33.41-.69.96-1.25,1.64-1.67s1.52-.63,2.51-.63,1.78.21,2.46.63,1.24.97,1.68,1.65c.43.68.75,1.46.96,2.32.2.86.3,1.74.3,2.64ZM1078.24,194.93c0-.69-.07-1.39-.21-2.09s-.36-1.34-.66-1.9c-.3-.56-.69-1.02-1.17-1.37-.48-.35-1.06-.53-1.75-.53s-1.32.18-1.79.53c-.47.35-.85.81-1.14,1.37s-.49,1.2-.61,1.9-.18,1.4-.18,2.09.06,1.34.17,2.04c.11.7.31,1.33.6,1.91.29.58.67,1.05,1.15,1.42.48.37,1.08.55,1.8.55s1.28-.18,1.75-.55c.48-.37.87-.84,1.17-1.42.3-.58.52-1.21.66-1.91s.21-1.38.21-2.04ZM1085.1,206.81c0,.21-.1.31-.31.31h-.92c-.21,0-.32-.11-.32-.31v-20.12c0-.21.11-.31.32-.31h.92c.21,0,.31.1.31.31v20.12Z"/>
    <path d="M1094.57,187.19c0,1.09-.11,2.11-.34,3.06.18.63.43,1.23.75,1.8.32.57.7,1.1,1.14,1.6.44.49.91.94,1.43,1.34.52.4,1.06.73,1.63,1,.09.04.13.11.12.19,0,.08-.03.15-.06.21l-.47.74c-.04.08-.1.13-.16.16-.06.03-.16,0-.29-.07-.34-.18-.74-.42-1.18-.73-.44-.31-.89-.67-1.34-1.09s-.88-.88-1.28-1.38c-.41-.5-.74-1.02-1.01-1.56-.5,1.14-1.16,2.18-2,3.11s-1.82,1.76-2.95,2.5c-.08.05-.16.08-.25.09-.09.01-.17-.02-.23-.09l-.56-.74c-.04-.06-.05-.14-.02-.23s.08-.16.16-.2c1.79-1.09,3.13-2.48,4.03-4.14.9-1.67,1.33-3.53,1.3-5.58,0-.24.09-.36.27-.36l1.06.07c.17,0,.25.11.25.32ZM1090.9,203.1c0-.63.16-1.2.47-1.7.32-.5.76-.93,1.33-1.28.57-.35,1.25-.62,2.05-.81s1.68-.28,2.66-.28c.9,0,1.74.09,2.53.28.79.19,1.48.45,2.07.8s1.06.77,1.41,1.27c.35.5.52,1.08.52,1.72s-.17,1.22-.52,1.73c-.34.51-.81.94-1.41,1.29s-1.28.62-2.07.81c-.79.19-1.63.28-2.53.28-.98,0-1.86-.09-2.66-.28s-1.48-.46-2.05-.81-1.01-.78-1.33-1.29-.47-1.09-.47-1.73ZM1092.5,203.17c0,.43.12.82.36,1.16.24.34.57.62,1,.84s.94.4,1.54.52c.6.12,1.26.18,1.98.18.64,0,1.27-.06,1.87-.18.6-.12,1.13-.29,1.59-.52.46-.22.82-.51,1.09-.84.27-.34.4-.72.4-1.16s-.13-.85-.4-1.19c-.27-.34-.63-.63-1.09-.87-.46-.23-.99-.41-1.59-.54-.6-.13-1.22-.19-1.87-.19-.72,0-1.38.06-1.98.19-.6.13-1.11.31-1.54.54-.43.23-.76.52-1,.87-.24.35-.36.74-.36,1.19ZM1103.66,198.6c0,.21-.11.31-.32.31h-.92c-.21,0-.32-.1-.32-.31v-11.9c0-.21.1-.31.32-.31h.92c.21,0,.32.1.32.31v5.42h3.1c.09,0,.17.03.24.08s.1.12.1.21v.77c0,.07-.03.14-.1.2s-.15.09-.24.09h-3.1v5.13Z"/>
    <path d="M1122.97,195.85c.12.16.18.27.18.33s-.06.18-.18.37c-.72,1.2-1.65,1.8-2.79,1.8-.57,0-1.49-.28-2.77-.85-1.26-.6-2.06-.9-2.38-.9-.56,0-1.18.46-1.87,1.37-.13.2-.22.29-.27.29s-.13-.1-.27-.29l-.34-.47c-.12-.18-.18-.31-.17-.39,0-.08.07-.23.19-.44.72-1.12,1.63-1.69,2.75-1.69.63,0,1.55.29,2.77.86,1.21.6,2.01.9,2.38.9.3,0,.61-.12.93-.37.32-.25.65-.6.98-1.05.12-.16.2-.25.23-.26.03,0,.1.07.22.24l.41.56Z"/>
    <path d="M1129.33,204.65c-.22-.06-.32-.23-.29-.52l.09-.88c.03-.18.15-.23.36-.14.63.25,1.23.44,1.79.54.56.11,1.22.17,1.97.18,1.18.02,2.18-.28,2.99-.9.95-.63,1.42-1.55,1.42-2.77,0-2.13-1.6-3.19-4.79-3.19h-1.17c-.2,0-.29-.08-.29-.25v-.83c0-.2.1-.29.29-.29h.11c1.61,0,2.86-.17,3.76-.52,1.37-.53,2.05-1.47,2.05-2.83,0-.43-.12-.84-.35-1.2-.23-.37-.54-.68-.93-.93-.36-.21-.77-.38-1.22-.5-.45-.12-.92-.18-1.42-.18s-1.07.07-1.69.2c-.62.13-1.21.32-1.78.54-.2.08-.31.01-.34-.18l-.09-.83c-.04-.21.05-.36.29-.45.68-.23,1.31-.39,1.89-.5.58-.1,1.21-.16,1.87-.16,1.51,0,2.75.32,3.71.97,1.09.74,1.64,1.81,1.64,3.22,0,1-.36,1.88-1.08,2.61-.6.64-1.38,1.12-2.34,1.42.48.06.93.19,1.34.38.41.2.77.47,1.07.81.34.38.61.8.79,1.27.18.47.27.99.27,1.56,0,.75-.15,1.43-.46,2.04s-.75,1.13-1.32,1.56c-.56.4-1.19.72-1.91.96s-1.52.34-2.41.33c-.79-.01-1.48-.06-2.06-.14-.58-.07-1.17-.21-1.77-.4Z"/>
    <path d="M1144,203.57c.2,0,.29.03.29.1s-.02.15-.04.24l-1.49,4.03c-.06.12-.12.2-.17.24-.05.04-.13.06-.24.06h-.94c-.2,0-.27-.11-.23-.32l1.06-3.96c.03-.09.08-.18.13-.26.06-.08.17-.12.34-.12h1.28Z"/>
    <path d="M1156.85,196.62c0,5.67-1.83,8.51-5.49,8.51s-5.54-2.84-5.54-8.51c0-2.35.36-4.27,1.08-5.74.92-1.85,2.4-2.77,4.46-2.77s3.5.92,4.43,2.77c.34.73.61,1.57.79,2.52.18.95.27,2.02.27,3.22ZM1155.23,196.62c0-4.71-1.29-7.06-3.87-7.06s-3.87,2.36-3.87,7.06,1.29,7.09,3.87,7.09,3.87-2.36,3.87-7.09Z"/>
    <path d="M1168.69,196.62c0,5.67-1.83,8.51-5.49,8.51s-5.54-2.84-5.54-8.51c0-2.35.36-4.27,1.08-5.74.92-1.85,2.4-2.77,4.46-2.77s3.5.92,4.43,2.77c.34.73.61,1.57.79,2.52.18.95.27,2.02.27,3.22ZM1167.07,196.62c0-4.71-1.29-7.06-3.87-7.06s-3.87,2.36-3.87,7.06,1.29,7.09,3.87,7.09,3.87-2.36,3.87-7.09Z"/>
    <path d="M1180.52,196.62c0,5.67-1.83,8.51-5.49,8.51s-5.54-2.84-5.54-8.51c0-2.35.36-4.27,1.08-5.74.92-1.85,2.4-2.77,4.46-2.77s3.5.92,4.43,2.77c.34.73.61,1.57.79,2.52.18.95.27,2.02.27,3.22ZM1178.9,196.62c0-4.71-1.29-7.06-3.87-7.06s-3.87,2.36-3.87,7.06,1.29,7.09,3.87,7.09,3.87-2.36,3.87-7.09Z"/>
    <path d="M1182.34,189.24c0-.63.12-1.05.36-1.27.24-.22.69-.33,1.35-.33h6.19c.36,0,.65.02.87.07.22.04.39.13.52.25.13.12.21.29.26.5s.07.47.07.79v6.95c0,.63-.12,1.05-.36,1.27-.24.22-.69.33-1.35.33h-6.19c-.36,0-.65-.02-.87-.07s-.39-.13-.52-.26c-.13-.13-.21-.29-.26-.49-.04-.2-.07-.46-.07-.78v-6.95ZM1184.44,188.99c-.21,0-.35.04-.43.12s-.11.24-.11.46v6.28c0,.22.04.38.11.46s.22.12.43.12h5.42c.21,0,.35-.04.43-.12s.11-.24.11-.46v-6.28c0-.23-.04-.38-.11-.46s-.22-.12-.43-.12h-5.42ZM1198.3,206.45c0,.09-.04.16-.11.2s-.15.07-.22.07h-11.45c-.71,0-1.17-.13-1.38-.41-.22-.27-.33-.71-.33-1.33v-4.39c0-.21.1-.31.31-.31h.92c.21,0,.31.11.31.31v4.3c0,.21.03.34.1.39s.21.08.42.08h11.09c.08,0,.15.03.22.08s.11.12.11.19v.81ZM1197.28,201.01c0,.21-.11.31-.32.31h-.92c-.21,0-.32-.11-.32-.31v-14.31c0-.21.1-.31.32-.31h.92c.21,0,.32.1.32.31v6.44h3.1c.09,0,.17.03.24.08s.1.12.1.21v.76c0,.08-.03.14-.1.2s-.15.09-.24.09h-3.1v6.53Z"/>
    <path d="M1201.42,195.63c0-.63,0-1.13-.02-1.5-.02-.37-.04-.71-.07-1.04,0-.21.1-.32.31-.32h.83c.21,0,.31.1.31.32v1.21c.34-.55.81-.99,1.4-1.32s1.3-.48,2.16-.48c.9,0,1.69.22,2.36.66.67.44,1.09,1.09,1.24,1.95.31-.85.82-1.5,1.52-1.95.7-.44,1.5-.66,2.42-.66.58,0,1.11.11,1.59.32s.88.5,1.21.87c.34.37.6.8.78,1.29.18.5.27,1.02.27,1.58v8.08c0,.21-.11.32-.32.32h-.85c-.21,0-.32-.1-.32-.29v-7.79c0-2.05-.86-3.08-2.59-3.08-.53,0-.99.12-1.41.35-.41.23-.77.55-1.06.96-.29.4-.51.88-.65,1.42-.14.54-.21,1.11-.19,1.71v6.41c0,.21-.11.32-.32.32h-.9c-.21,0-.31-.11-.31-.32v-7.76c0-2.05-.87-3.08-2.61-3.08-1.02,0-1.82.33-2.41.99s-.88,1.53-.88,2.61v7.25c0,.21-.1.32-.31.32h-.88c-.21,0-.31-.11-.31-.32v-9Z"/>
    <path d="M1224.53,196.75h-5.08c-.08,0-.11-.04-.11-.14v-.47s.01-.09.03-.14.05-.08.08-.11l1.8-2.16c.55-.68.99-1.3,1.32-1.87.32-.57.48-1.09.48-1.55,0-.78-.44-1.17-1.3-1.17-.3,0-.63.05-.98.15-.35.1-.7.23-1.05.39-.01.02-.04.02-.07.02-.04,0-.08-.04-.11-.11l-.07-.83c-.03-.12,0-.2.11-.25.41-.16.81-.3,1.2-.39.4-.1.77-.15,1.11-.15.81,0,1.43.2,1.87.61.44.4.65.98.65,1.73,0,.53-.18,1.13-.54,1.81-.36.68-.89,1.44-1.58,2.26l-.79.95h3.02c.12,0,.18.05.18.16v1.1c0,.11-.06.16-.18.16Z"/>
    <path d="M1227.5,189.67c0-.63.12-1.05.36-1.27.24-.22.69-.33,1.35-.33h6.62c.36,0,.65.02.87.07s.39.13.52.25c.13.12.21.29.26.5s.07.47.07.79v9.97c0,.63-.12,1.05-.36,1.27-.24.22-.69.33-1.35.33h-6.62c-.36,0-.65-.02-.87-.07-.22-.04-.39-.13-.52-.26-.13-.13-.21-.29-.26-.5-.05-.2-.07-.46-.07-.78v-9.97ZM1229.59,189.42c-.21,0-.35.04-.43.12-.08.08-.11.24-.11.46v9.29c0,.23.04.38.11.46.08.08.22.12.43.12h5.85c.21,0,.35-.04.43-.12.08-.08.11-.24.11-.46v-9.29c0-.23-.04-.38-.11-.46-.08-.08-.22-.12-.43-.12h-5.85ZM1243.14,206.81c0,.21-.1.31-.31.31h-.92c-.21,0-.32-.11-.32-.31v-20.12c0-.21.11-.31.32-.31h.92c.21,0,.31.1.31.31v20.12Z"/>
    <path d="M1246.76,189.24c0-.63.12-1.05.36-1.27.24-.22.69-.33,1.35-.33h6.19c.36,0,.65.02.87.07.22.04.39.13.52.25.13.12.21.29.26.5s.07.47.07.79v6.95c0,.63-.12,1.05-.36,1.27-.24.22-.69.33-1.35.33h-6.19c-.36,0-.65-.02-.87-.07s-.39-.13-.52-.26c-.13-.13-.21-.29-.26-.49-.04-.2-.07-.46-.07-.78v-6.95ZM1248.85,188.99c-.21,0-.35.04-.43.12s-.11.24-.11.46v6.28c0,.22.04.38.11.46s.22.12.43.12h5.42c.21,0,.35-.04.43-.12s.11-.24.11-.46v-6.28c0-.23-.04-.38-.11-.46s-.22-.12-.43-.12h-5.42ZM1262.71,206.45c0,.09-.04.16-.11.2s-.15.07-.22.07h-11.45c-.71,0-1.17-.13-1.38-.41-.22-.27-.33-.71-.33-1.33v-4.39c0-.21.1-.31.31-.31h.92c.21,0,.31.11.31.31v4.3c0,.21.03.34.1.39s.21.08.42.08h11.09c.08,0,.15.03.22.08s.11.12.11.19v.81ZM1261.7,201.01c0,.21-.11.31-.32.31h-.92c-.21,0-.32-.11-.32-.31v-14.31c0-.21.1-.31.32-.31h.92c.21,0,.32.1.32.31v6.44h3.1c.09,0,.17.03.24.08s.1.12.1.21v.76c0,.08-.03.14-.1.2s-.15.09-.24.09h-3.1v6.53Z"/>
    <path d="M1082.31,234.96c-.1,0-.17,0-.19-.01-.02,0-.06-.05-.12-.12-1.37-1.71-2.38-3.44-3.04-5.2-.66-1.75-.99-3.57-.99-5.45s.33-3.67.99-5.42,1.67-3.49,3.04-5.22c.06-.07.1-.12.12-.12s.07-.01.15-.01h.63c.09,0,.14,0,.14.02,0,.01-.02.06-.07.13-2.36,3.69-3.53,7.23-3.53,10.62,0,1.73.3,3.47.9,5.22.6,1.75,1.49,3.55,2.66,5.4.07.1.04.16-.11.16h-.56Z"/>
    <path d="M1091.6,217c-.23.87-.5,1.72-.83,2.55s-.71,1.65-1.15,2.46c.22.45.49.91.8,1.38s.64.93,1,1.38c.36.45.73.88,1.11,1.27.38.4.76.75,1.14,1.05.08.08.11.15.1.22,0,.08-.04.14-.1.2l-.54.61c-.06.06-.12.1-.18.11-.06.01-.15-.03-.27-.14-.33-.28-.68-.61-1.04-.99-.36-.38-.71-.77-1.06-1.19-.35-.42-.67-.84-.99-1.27s-.59-.84-.83-1.25c-.68,1.03-1.45,2.02-2.32,2.95s-1.82,1.79-2.86,2.56c-.08.04-.15.08-.24.1-.08.02-.15,0-.19-.06l-.58-.7c-.06-.07-.08-.15-.06-.22.02-.08.07-.13.15-.18,1.88-1.47,3.4-3.08,4.59-4.82,1.18-1.74,2.06-3.72,2.63-5.94.06-.21.06-.36.01-.45-.05-.09-.18-.14-.39-.14h-5.71c-.18,0-.27-.1-.27-.29v-.79c0-.18.11-.27.32-.27h6.28c.78,0,1.27.13,1.46.38.19.26.2.74.02,1.44ZM1095.09,220.89v-6.82c0-.21.1-.32.31-.32h.86c.21,0,.31.11.31.32v18.88c0,.21-.1.32-.31.32h-.86c-.21,0-.31-.11-.31-.32v-10.71h-3.24c-.09,0-.17-.03-.24-.09s-.1-.13-.1-.2v-.77c0-.09.03-.16.1-.21s.15-.08.24-.08h3.24ZM1100.56,233.81c0,.21-.11.31-.32.31h-.86c-.21,0-.31-.11-.31-.31v-20.12c0-.21.1-.31.31-.31h.86c.21,0,.32.1.32.31v20.12Z"/>
    <path d="M1102.78,231.65c-.22-.06-.32-.23-.29-.52l.09-.88c.03-.18.15-.23.36-.14.63.25,1.23.44,1.79.54.56.11,1.22.17,1.97.18,1.18.02,2.18-.28,2.99-.9.95-.63,1.42-1.55,1.42-2.77,0-2.13-1.6-3.19-4.79-3.19h-1.17c-.2,0-.29-.08-.29-.25v-.83c0-.2.1-.29.29-.29h.11c1.61,0,2.86-.17,3.76-.52,1.37-.53,2.05-1.47,2.05-2.83,0-.43-.12-.84-.35-1.2-.23-.37-.54-.68-.93-.93-.36-.21-.77-.38-1.22-.5-.45-.12-.92-.18-1.42-.18s-1.07.07-1.69.2c-.62.13-1.21.32-1.78.54-.2.08-.31.01-.34-.18l-.09-.83c-.04-.21.05-.36.29-.45.68-.23,1.31-.39,1.89-.5.58-.1,1.21-.16,1.87-.16,1.51,0,2.75.32,3.71.97,1.09.74,1.64,1.81,1.64,3.22,0,1-.36,1.88-1.08,2.61-.6.64-1.38,1.12-2.34,1.42.48.06.93.19,1.34.38.41.2.77.47,1.07.81.34.38.61.8.79,1.27.18.47.27.99.27,1.56,0,.75-.15,1.43-.46,2.04s-.75,1.13-1.32,1.56c-.56.4-1.19.72-1.91.96s-1.52.34-2.41.33c-.79-.01-1.48-.06-2.06-.14-.58-.07-1.17-.21-1.77-.4Z"/>
    <path d="M1116.28,214.28c0-.09.04-.16.11-.2s.15-.07.23-.07h11.9c.36,0,.65.04.87.11.22.08.39.18.51.33s.21.33.26.55.08.5.08.81c.03,1.17-.04,2.36-.21,3.58-.17,1.22-.41,2.53-.71,3.94h3.71c.07,0,.15.03.22.08s.11.12.11.21v.77c0,.08-.04.14-.11.2-.08.06-.15.09-.22.09h-8.84v8.98c0,.09-.03.17-.08.24-.05.07-.12.1-.21.1h-.97c-.08,0-.14-.03-.2-.1-.06-.07-.09-.15-.09-.24v-8.98h-8.73c-.09,0-.17-.03-.24-.09-.07-.06-.1-.13-.1-.2v-.77c0-.09.03-.16.1-.21s.15-.08.24-.08h13.88c.15-.58.29-1.22.43-1.91.13-.69.24-1.38.33-2.07.08-.69.14-1.34.17-1.96.03-.61.03-1.13,0-1.55-.03-.21-.07-.34-.12-.39s-.18-.08-.39-.08h-11.56c-.08,0-.15-.03-.23-.08s-.11-.12-.11-.19v-.81Z"/>
    <path d="M1143.8,216.21c-.38,2.19-1.32,4.14-2.85,5.86-1.52,1.72-3.61,3.13-6.27,4.24-.09.03-.18.04-.28.04s-.17-.06-.21-.18l-.34-.74c-.06-.12-.06-.22-.01-.29.05-.08.12-.13.19-.16,1.09-.45,2.1-.98,3.03-1.6s1.73-1.28,2.43-2c.7-.72,1.27-1.49,1.72-2.29.45-.81.75-1.64.9-2.5.09-.42-.09-.63-.54-.63h-6.93c-.18,0-.27-.1-.27-.29v-.79c0-.18.09-.27.27-.27h7.45c.72,0,1.21.13,1.46.38.25.26.34.66.25,1.21ZM1150.57,233.45c0,.09-.04.16-.11.2s-.15.07-.22.07h-11.45c-.71,0-1.17-.13-1.38-.39-.22-.26-.33-.7-.33-1.32v-4.32c0-.21.1-.32.31-.32h.92c.21,0,.31.11.31.32v4.21c0,.21.03.34.1.39s.21.08.42.08h11.09c.08,0,.15.03.22.08s.11.12.11.19v.81ZM1149.56,228.14c0,.21-.11.31-.32.31h-.92c-.21,0-.32-.1-.32-.31v-14.45c0-.21.1-.31.32-.31h.92c.21,0,.32.1.32.31v6.5h3.1c.09,0,.17.03.24.08.07.05.1.12.1.21v.77c0,.07-.03.14-.1.2s-.15.09-.24.09h-3.1v6.59Z"/>
    <path d="M1152.64,234.96c-.13,0-.17-.05-.09-.16,1.17-1.85,2.05-3.65,2.64-5.4s.89-3.5.89-5.22-.29-3.45-.88-5.21-1.46-3.57-2.63-5.41c-.04-.08-.07-.12-.07-.13,0-.02.04-.02.11-.02h.63c.08,0,.12,0,.15.01s.07.05.15.12c1.37,1.73,2.37,3.47,3.03,5.22.65,1.75.98,3.56.98,5.42s-.33,3.69-.98,5.45c-.65,1.76-1.66,3.49-3.03,5.2-.08.08-.12.12-.15.12-.02,0-.09.01-.19.01h-.56Z"/>
  </g>
  <g>
    <path d="M1295.53,204.71c-.22-.06-.32-.23-.29-.52l.09-.88c.03-.18.15-.23.36-.14.63.26,1.23.44,1.79.54.56.11,1.22.17,1.97.18,1.18.01,2.18-.29,2.99-.9.95-.63,1.42-1.55,1.42-2.77,0-2.13-1.6-3.19-4.79-3.19h-1.17c-.2,0-.29-.08-.29-.25v-.83c0-.2.1-.29.29-.29h.11c1.61,0,2.86-.17,3.76-.52,1.37-.52,2.05-1.47,2.05-2.83,0-.43-.12-.84-.35-1.2-.23-.37-.54-.68-.93-.93-.36-.21-.77-.37-1.22-.5-.45-.12-.92-.18-1.42-.18s-1.07.07-1.69.2c-.62.13-1.21.31-1.78.54-.2.08-.31.02-.34-.18l-.09-.83c-.04-.21.05-.36.29-.45.68-.23,1.31-.39,1.89-.5.58-.1,1.21-.16,1.87-.16,1.51,0,2.75.32,3.71.97,1.09.74,1.64,1.81,1.64,3.22,0,1-.36,1.88-1.08,2.61-.6.64-1.38,1.12-2.34,1.42.48.06.93.19,1.34.38.41.2.77.46,1.07.81.34.38.61.8.79,1.27.18.47.27.99.27,1.56,0,.75-.15,1.43-.46,2.04s-.75,1.13-1.32,1.56c-.56.41-1.19.72-1.91.96s-1.52.34-2.41.33c-.79-.01-1.48-.06-2.06-.13-.58-.08-1.17-.21-1.77-.41Z"/>
    <path d="M1310.2,203.63c.2,0,.29.03.29.1s-.02.15-.04.24l-1.49,4.03c-.06.12-.12.2-.17.24-.05.04-.13.06-.24.06h-.94c-.2,0-.27-.11-.23-.32l1.06-3.96c.03-.09.08-.18.13-.26.06-.08.17-.12.34-.12h1.28Z"/>
    <path d="M1323.04,196.68c0,5.67-1.83,8.5-5.49,8.5s-5.54-2.83-5.54-8.5c0-2.35.36-4.27,1.08-5.74.92-1.85,2.4-2.77,4.46-2.77s3.5.92,4.43,2.77c.34.73.61,1.58.79,2.52.18.95.27,2.02.27,3.22ZM1321.42,196.68c0-4.71-1.29-7.07-3.87-7.07s-3.87,2.36-3.87,7.07,1.29,7.09,3.87,7.09,3.87-2.36,3.87-7.09Z"/>
    <path d="M1334.88,196.68c0,5.67-1.83,8.5-5.49,8.5s-5.54-2.83-5.54-8.5c0-2.35.36-4.27,1.08-5.74.92-1.85,2.4-2.77,4.46-2.77s3.5.92,4.43,2.77c.34.73.61,1.58.79,2.52.18.95.27,2.02.27,3.22ZM1333.26,196.68c0-4.71-1.29-7.07-3.87-7.07s-3.87,2.36-3.87,7.07,1.29,7.09,3.87,7.09,3.87-2.36,3.87-7.09Z"/>
    <path d="M1346.71,196.68c0,5.67-1.83,8.5-5.49,8.5s-5.54-2.83-5.54-8.5c0-2.35.36-4.27,1.08-5.74.92-1.85,2.4-2.77,4.46-2.77s3.5.92,4.43,2.77c.34.73.61,1.58.79,2.52.18.95.27,2.02.27,3.22ZM1345.09,196.68c0-4.71-1.29-7.07-3.87-7.07s-3.87,2.36-3.87,7.07,1.29,7.09,3.87,7.09,3.87-2.36,3.87-7.09Z"/>
    <path d="M1348.53,189.3c0-.63.12-1.05.36-1.27.24-.22.69-.33,1.35-.33h6.19c.36,0,.65.02.87.07s.39.13.52.25c.13.12.21.28.26.49.04.21.07.47.07.79v6.95c0,.63-.12,1.05-.36,1.27-.24.22-.69.33-1.35.33h-6.19c-.36,0-.65-.02-.87-.07s-.39-.13-.52-.26-.21-.29-.26-.5-.07-.46-.07-.78v-6.95ZM1350.63,189.05c-.21,0-.35.04-.43.12-.08.08-.11.24-.11.46v6.28c0,.22.04.38.11.46s.22.12.43.12h5.42c.21,0,.35-.04.43-.12s.11-.24.11-.46v-6.28c0-.22-.04-.38-.11-.46-.08-.08-.22-.12-.43-.12h-5.42ZM1364.49,206.51c0,.09-.04.16-.11.2s-.15.07-.22.07h-11.45c-.71,0-1.17-.13-1.38-.41-.22-.27-.33-.71-.33-1.33v-4.39c0-.21.1-.32.31-.32h.92c.21,0,.31.11.31.32v4.3c0,.21.03.34.1.39.07.05.21.08.42.08h11.09c.08,0,.15.03.22.08s.11.12.11.19v.81ZM1363.47,201.06c0,.21-.11.31-.32.31h-.92c-.21,0-.32-.1-.32-.31v-14.31c0-.21.1-.31.32-.31h.92c.21,0,.32.1.32.31v6.44h3.1c.09,0,.17.03.24.08.07.05.1.12.1.21v.77c0,.08-.03.14-.1.2-.07.06-.15.09-.24.09h-3.1v6.53Z"/>
    <path d="M1367.61,195.69c0-.63,0-1.13-.02-1.5-.02-.37-.04-.72-.07-1.05,0-.21.1-.32.31-.32h.83c.21,0,.31.11.31.32v1.21c.34-.55.81-.99,1.4-1.32s1.3-.48,2.16-.48c.9,0,1.69.22,2.36.66.67.44,1.09,1.09,1.24,1.95.31-.85.82-1.5,1.52-1.95.7-.44,1.5-.66,2.42-.66.58,0,1.11.1,1.59.31s.88.5,1.21.87c.34.37.6.8.78,1.29.18.5.27,1.02.27,1.58v8.08c0,.21-.11.32-.32.32h-.85c-.21,0-.32-.1-.32-.29v-7.79c0-2.05-.86-3.08-2.59-3.08-.53,0-.99.12-1.41.35-.41.23-.77.55-1.06.96-.29.41-.51.88-.65,1.42s-.21,1.11-.19,1.71v6.41c0,.21-.11.32-.32.32h-.9c-.21,0-.31-.11-.31-.32v-7.76c0-2.05-.87-3.08-2.61-3.08-1.02,0-1.82.33-2.41.99s-.88,1.53-.88,2.61v7.25c0,.21-.1.32-.31.32h-.88c-.21,0-.31-.11-.31-.32v-9Z"/>
    <path d="M1390.72,196.81h-5.08c-.08,0-.11-.04-.11-.13v-.47s.01-.09.03-.13.05-.08.08-.11l1.8-2.16c.55-.67.99-1.3,1.32-1.87.32-.57.48-1.09.48-1.55,0-.78-.44-1.17-1.3-1.17-.3,0-.63.05-.98.15-.35.1-.7.23-1.05.39-.01.01-.04.02-.07.02-.04,0-.08-.04-.11-.11l-.07-.83c-.03-.12,0-.2.11-.25.41-.17.81-.3,1.2-.39.4-.1.77-.15,1.11-.15.81,0,1.43.2,1.87.61.44.4.65.98.65,1.73,0,.53-.18,1.13-.54,1.81-.36.68-.89,1.44-1.58,2.26l-.79.95h3.02c.12,0,.18.05.18.16v1.1c0,.11-.06.16-.18.16Z"/>
    <path d="M1404.06,195.01c0,.84-.1,1.69-.3,2.54-.2.86-.52,1.63-.96,2.32-.44.69-.99,1.26-1.68,1.7s-1.5.66-2.46.66-1.83-.22-2.51-.65c-.68-.44-1.23-1-1.64-1.7-.41-.7-.71-1.47-.89-2.33-.18-.85-.27-1.7-.27-2.54,0-.88.09-1.76.27-2.62.18-.86.48-1.64.89-2.33.41-.69.96-1.25,1.64-1.67s1.52-.63,2.51-.63,1.78.21,2.46.63,1.24.97,1.68,1.65c.43.68.75,1.46.96,2.32.2.86.3,1.74.3,2.64ZM1402.47,194.99c0-.69-.07-1.39-.21-2.09s-.36-1.34-.66-1.9c-.3-.56-.69-1.02-1.17-1.37-.48-.35-1.06-.53-1.75-.53s-1.32.18-1.79.53c-.47.35-.85.81-1.14,1.37s-.49,1.2-.61,1.9-.18,1.4-.18,2.09.06,1.34.17,2.04c.11.7.31,1.33.6,1.91.29.58.67,1.05,1.15,1.42.48.37,1.08.55,1.8.55s1.28-.18,1.75-.55c.48-.37.87-.84,1.17-1.42.3-.58.52-1.21.66-1.91s.21-1.38.21-2.04ZM1409.33,206.87c0,.21-.1.32-.31.32h-.92c-.21,0-.32-.11-.32-.32v-20.12c0-.21.11-.31.32-.31h.92c.21,0,.31.1.31.31v20.12Z"/>
    <path d="M1418.8,187.25c0,1.1-.11,2.12-.34,3.06.18.63.43,1.23.75,1.8.32.57.7,1.1,1.14,1.6.44.5.91.94,1.43,1.34.52.4,1.06.73,1.63,1,.09.04.13.11.12.19,0,.08-.03.15-.06.21l-.47.74c-.04.08-.1.13-.16.16-.06.03-.16,0-.29-.07-.34-.18-.74-.42-1.18-.73-.44-.31-.89-.67-1.34-1.09s-.88-.88-1.28-1.38c-.41-.5-.74-1.02-1.01-1.56-.5,1.14-1.16,2.17-2,3.1-.84.93-1.82,1.76-2.95,2.5-.08.05-.16.08-.25.09-.09.01-.17-.01-.23-.09l-.56-.74c-.04-.06-.05-.13-.02-.22s.08-.16.16-.2c1.79-1.09,3.13-2.47,4.03-4.14.9-1.67,1.33-3.52,1.3-5.58,0-.24.09-.36.27-.36l1.06.07c.17,0,.25.1.25.31ZM1415.13,203.16c0-.63.16-1.2.47-1.7s.76-.93,1.33-1.28,1.25-.62,2.05-.81,1.68-.28,2.66-.28c.9,0,1.74.09,2.53.28.79.19,1.48.45,2.07.8.59.35,1.06.77,1.41,1.27.35.5.52,1.08.52,1.72s-.17,1.22-.52,1.73c-.34.51-.81.94-1.41,1.29s-1.28.62-2.07.81c-.79.19-1.63.28-2.53.28-.98,0-1.86-.09-2.66-.28s-1.48-.46-2.05-.81-1.01-.78-1.33-1.29-.47-1.09-.47-1.73ZM1416.73,203.22c0,.43.12.82.36,1.16.24.34.57.62,1,.84.43.23.94.4,1.54.52s1.26.18,1.98.18c.64,0,1.27-.06,1.87-.18.6-.12,1.13-.29,1.59-.52.46-.22.82-.51,1.09-.84.27-.34.4-.72.4-1.16s-.13-.85-.4-1.19c-.27-.34-.63-.63-1.09-.87-.46-.23-.99-.41-1.59-.54-.6-.13-1.22-.19-1.87-.19-.72,0-1.38.06-1.98.19-.6.13-1.11.31-1.54.54-.43.23-.76.52-1,.87-.24.35-.36.74-.36,1.19ZM1427.89,198.66c0,.21-.11.32-.32.32h-.92c-.21,0-.32-.1-.32-.32v-11.9c0-.21.1-.31.32-.31h.92c.21,0,.32.1.32.31v5.42h3.1c.09,0,.17.03.24.08s.1.12.1.21v.77c0,.08-.03.14-.1.2-.07.06-.15.09-.24.09h-3.1v5.13Z"/>
    <path d="M1447.2,195.91c.12.17.18.27.18.33s-.06.18-.18.37c-.72,1.2-1.65,1.8-2.79,1.8-.57,0-1.49-.29-2.77-.86-1.26-.6-2.06-.9-2.38-.9-.56,0-1.18.46-1.87,1.37-.13.2-.22.29-.27.29s-.13-.1-.27-.29l-.34-.47c-.12-.18-.18-.31-.17-.39,0-.08.07-.23.19-.44.72-1.12,1.63-1.69,2.75-1.69.63,0,1.55.29,2.77.86,1.21.6,2.01.9,2.38.9.3,0,.61-.12.93-.37.32-.25.65-.6.98-1.05.12-.17.2-.25.23-.26.03,0,.1.07.22.24l.41.56Z"/>
    <path d="M1460.13,204.78c0,.21-.11.32-.32.32h-.92c-.21,0-.32-.1-.32-.32v-14.62c-.46.39-.9.76-1.3,1.1-.41.35-.83.71-1.28,1.1-.17.13-.31.12-.45-.04l-.45-.54c-.04-.07-.07-.15-.07-.24s.04-.15.11-.21l3.49-2.92c.06-.06.15-.09.27-.09h.61c.31,0,.5.03.55.08s.08.24.08.55v15.84Z"/>
    <path d="M1476.06,196.68c0,5.67-1.83,8.5-5.49,8.5s-5.54-2.83-5.54-8.5c0-2.35.36-4.27,1.08-5.74.92-1.85,2.4-2.77,4.46-2.77s3.5.92,4.43,2.77c.34.73.61,1.58.79,2.52.18.95.27,2.02.27,3.22ZM1474.44,196.68c0-4.71-1.29-7.07-3.87-7.07s-3.87,2.36-3.87,7.07,1.29,7.09,3.87,7.09,3.87-2.36,3.87-7.09Z"/>
    <path d="M1480.07,203.63c.2,0,.29.03.29.1s-.02.15-.04.24l-1.49,4.03c-.06.12-.12.2-.17.24-.05.04-.13.06-.24.06h-.94c-.2,0-.27-.11-.23-.32l1.06-3.96c.03-.09.08-.18.13-.26.06-.08.17-.12.34-.12h1.28Z"/>
    <path d="M1492.91,196.68c0,5.67-1.83,8.5-5.49,8.5s-5.54-2.83-5.54-8.5c0-2.35.36-4.27,1.08-5.74.92-1.85,2.4-2.77,4.46-2.77s3.5.92,4.43,2.77c.34.73.61,1.58.79,2.52.18.95.27,2.02.27,3.22ZM1491.29,196.68c0-4.71-1.29-7.07-3.87-7.07s-3.87,2.36-3.87,7.07,1.29,7.09,3.87,7.09,3.87-2.36,3.87-7.09Z"/>
    <path d="M1504.75,196.68c0,5.67-1.83,8.5-5.49,8.5s-5.54-2.83-5.54-8.5c0-2.35.36-4.27,1.08-5.74.92-1.85,2.4-2.77,4.46-2.77s3.5.92,4.43,2.77c.34.73.61,1.58.79,2.52.18.95.27,2.02.27,3.22ZM1503.13,196.68c0-4.71-1.29-7.07-3.87-7.07s-3.87,2.36-3.87,7.07,1.29,7.09,3.87,7.09,3.87-2.36,3.87-7.09Z"/>
    <path d="M1516.58,196.68c0,5.67-1.83,8.5-5.49,8.5s-5.54-2.83-5.54-8.5c0-2.35.36-4.27,1.08-5.74.92-1.85,2.4-2.77,4.46-2.77s3.5.92,4.43,2.77c.34.73.61,1.58.79,2.52.18.95.27,2.02.27,3.22ZM1514.96,196.68c0-4.71-1.29-7.07-3.87-7.07s-3.87,2.36-3.87,7.07,1.29,7.09,3.87,7.09,3.87-2.36,3.87-7.09Z"/>
    <path d="M1518.41,189.3c0-.63.12-1.05.36-1.27.24-.22.69-.33,1.35-.33h6.19c.36,0,.65.02.87.07s.39.13.52.25c.13.12.21.28.26.49.04.21.07.47.07.79v6.95c0,.63-.12,1.05-.36,1.27-.24.22-.69.33-1.35.33h-6.19c-.36,0-.65-.02-.87-.07s-.39-.13-.52-.26-.21-.29-.26-.5-.07-.46-.07-.78v-6.95ZM1520.5,189.05c-.21,0-.35.04-.43.12-.08.08-.11.24-.11.46v6.28c0,.22.04.38.11.46s.22.12.43.12h5.42c.21,0,.35-.04.43-.12s.11-.24.11-.46v-6.28c0-.22-.04-.38-.11-.46-.08-.08-.22-.12-.43-.12h-5.42ZM1534.36,206.51c0,.09-.04.16-.11.2s-.15.07-.22.07h-11.45c-.71,0-1.17-.13-1.38-.41-.22-.27-.33-.71-.33-1.33v-4.39c0-.21.1-.32.31-.32h.92c.21,0,.31.11.31.32v4.3c0,.21.03.34.1.39.07.05.21.08.42.08h11.09c.08,0,.15.03.22.08s.11.12.11.19v.81ZM1533.35,201.06c0,.21-.11.31-.32.31h-.92c-.21,0-.32-.1-.32-.31v-14.31c0-.21.1-.31.32-.31h.92c.21,0,.32.1.32.31v6.44h3.1c.09,0,.17.03.24.08.07.05.1.12.1.21v.77c0,.08-.03.14-.1.2-.07.06-.15.09-.24.09h-3.1v6.53Z"/>
    <path d="M1537.49,195.69c0-.63,0-1.13-.02-1.5-.02-.37-.04-.72-.07-1.05,0-.21.1-.32.31-.32h.83c.21,0,.31.11.31.32v1.21c.34-.55.81-.99,1.4-1.32s1.3-.48,2.16-.48c.9,0,1.69.22,2.36.66.67.44,1.09,1.09,1.24,1.95.31-.85.82-1.5,1.52-1.95.7-.44,1.5-.66,2.42-.66.58,0,1.11.1,1.59.31s.88.5,1.21.87c.34.37.6.8.78,1.29.18.5.27,1.02.27,1.58v8.08c0,.21-.11.32-.32.32h-.85c-.21,0-.32-.1-.32-.29v-7.79c0-2.05-.86-3.08-2.59-3.08-.53,0-.99.12-1.41.35-.41.23-.77.55-1.06.96-.29.41-.51.88-.65,1.42s-.21,1.11-.19,1.71v6.41c0,.21-.11.32-.32.32h-.9c-.21,0-.31-.11-.31-.32v-7.76c0-2.05-.87-3.08-2.61-3.08-1.02,0-1.82.33-2.41.99s-.88,1.53-.88,2.61v7.25c0,.21-.1.32-.31.32h-.88c-.21,0-.31-.11-.31-.32v-9Z"/>
    <path d="M1560.59,196.81h-5.08c-.08,0-.11-.04-.11-.13v-.47s.01-.09.03-.13.05-.08.08-.11l1.8-2.16c.55-.67.99-1.3,1.32-1.87.32-.57.48-1.09.48-1.55,0-.78-.44-1.17-1.3-1.17-.3,0-.63.05-.98.15-.35.1-.7.23-1.05.39-.01.01-.04.02-.07.02-.04,0-.08-.04-.11-.11l-.07-.83c-.03-.12,0-.2.11-.25.41-.17.81-.3,1.2-.39.4-.1.77-.15,1.11-.15.81,0,1.43.2,1.87.61.44.4.65.98.65,1.73,0,.53-.18,1.13-.54,1.81-.36.68-.89,1.44-1.58,2.26l-.79.95h3.02c.12,0,.18.05.18.16v1.1c0,.11-.06.16-.18.16Z"/>
    <path d="M1563.56,189.72c0-.63.12-1.05.36-1.27s.69-.33,1.35-.33h6.62c.36,0,.65.02.87.07s.39.13.52.25c.13.12.21.29.26.5s.07.47.07.79v9.97c0,.63-.12,1.05-.36,1.27-.24.22-.69.33-1.35.33h-6.62c-.36,0-.65-.02-.87-.07-.22-.04-.39-.13-.52-.26s-.21-.29-.26-.5c-.05-.2-.07-.46-.07-.78v-9.97ZM1565.66,189.48c-.21,0-.35.04-.43.12s-.11.24-.11.46v9.29c0,.22.04.38.11.46.08.08.22.12.43.12h5.85c.21,0,.35-.04.43-.12.08-.08.11-.24.11-.46v-9.29c0-.22-.04-.38-.11-.46s-.22-.12-.43-.12h-5.85ZM1579.2,206.87c0,.21-.1.32-.31.32h-.92c-.21,0-.32-.11-.32-.32v-20.12c0-.21.11-.31.32-.31h.92c.21,0,.31.1.31.31v20.12Z"/>
    <path d="M1582.82,189.3c0-.63.12-1.05.36-1.27.24-.22.69-.33,1.35-.33h6.19c.36,0,.65.02.87.07s.39.13.52.25c.13.12.21.28.26.49.04.21.07.47.07.79v6.95c0,.63-.12,1.05-.36,1.27-.24.22-.69.33-1.35.33h-6.19c-.36,0-.65-.02-.87-.07s-.39-.13-.52-.26-.21-.29-.26-.5-.07-.46-.07-.78v-6.95ZM1584.92,189.05c-.21,0-.35.04-.43.12-.08.08-.11.24-.11.46v6.28c0,.22.04.38.11.46s.22.12.43.12h5.42c.21,0,.35-.04.43-.12s.11-.24.11-.46v-6.28c0-.22-.04-.38-.11-.46-.08-.08-.22-.12-.43-.12h-5.42ZM1598.78,206.51c0,.09-.04.16-.11.2s-.15.07-.22.07h-11.45c-.71,0-1.17-.13-1.38-.41-.22-.27-.33-.71-.33-1.33v-4.39c0-.21.1-.32.31-.32h.92c.21,0,.31.11.31.32v4.3c0,.21.03.34.1.39.07.05.21.08.42.08h11.09c.08,0,.15.03.22.08s.11.12.11.19v.81ZM1597.76,201.06c0,.21-.11.31-.32.31h-.92c-.21,0-.32-.1-.32-.31v-14.31c0-.21.1-.31.32-.31h.92c.21,0,.32.1.32.31v6.44h3.1c.09,0,.17.03.24.08.07.05.1.12.1.21v.77c0,.08-.03.14-.1.2-.07.06-.15.09-.24.09h-3.1v6.53Z"/>
    <path d="M1412.46,235.02c-.1,0-.17,0-.19-.01-.02,0-.06-.05-.12-.12-1.37-1.71-2.38-3.44-3.04-5.2-.66-1.76-.99-3.57-.99-5.45s.33-3.67.99-5.42,1.67-3.49,3.04-5.22c.06-.08.1-.12.12-.12.02,0,.07-.01.15-.01h.63c.09,0,.14,0,.14.02s-.02.06-.07.13c-2.36,3.69-3.53,7.23-3.53,10.62,0,1.72.3,3.46.9,5.22.6,1.75,1.49,3.56,2.66,5.4.07.1.04.16-.11.16h-.56Z"/>
    <path d="M1421.75,217.06c-.23.87-.5,1.72-.83,2.55-.33.83-.71,1.65-1.15,2.46.22.45.49.91.8,1.38s.64.93,1,1.38c.36.45.73.87,1.11,1.27.38.4.76.75,1.14,1.05.08.08.11.15.1.23s-.04.14-.1.2l-.54.61c-.06.06-.12.1-.18.11-.06.02-.15-.03-.27-.13-.33-.29-.68-.62-1.04-.99-.36-.38-.71-.77-1.06-1.19-.35-.42-.67-.84-.99-1.27-.32-.43-.59-.84-.83-1.25-.68,1.03-1.45,2.02-2.32,2.95s-1.82,1.79-2.86,2.56c-.08.04-.15.08-.24.1-.08.02-.15,0-.19-.06l-.58-.7c-.06-.07-.08-.15-.06-.22s.07-.13.15-.18c1.88-1.47,3.4-3.07,4.59-4.81,1.18-1.74,2.06-3.72,2.63-5.94.06-.21.06-.36.01-.45-.05-.09-.18-.14-.39-.14h-5.71c-.18,0-.27-.1-.27-.29v-.79c0-.18.11-.27.32-.27h6.28c.78,0,1.27.13,1.46.38.19.25.2.73.02,1.44ZM1425.24,220.95v-6.82c0-.21.1-.32.31-.32h.86c.21,0,.31.11.31.32v18.88c0,.21-.1.31-.31.31h-.86c-.21,0-.31-.11-.31-.31v-10.71h-3.24c-.09,0-.17-.03-.24-.09-.07-.06-.1-.13-.1-.2v-.76c0-.09.03-.16.1-.21s.15-.08.24-.08h3.24ZM1430.7,233.87c0,.21-.11.32-.32.32h-.86c-.21,0-.31-.11-.31-.32v-20.12c0-.21.1-.31.31-.31h.86c.21,0,.32.1.32.31v20.12Z"/>
    <path d="M1441.55,231.78c0,.21-.1.32-.31.32h-.9c-.21,0-.31-.1-.31-.32v-3.64h-7.43c-.31,0-.5-.03-.55-.08-.05-.05-.08-.24-.08-.55v-.7c0-.13,0-.22.02-.27.02-.04.06-.13.14-.25l7.18-10.71c.09-.14.15-.21.19-.24s.14-.03.3-.03h1.12c.32,0,.5.03.55.08.05.05.08.24.08.55v10.82h2.23c.21,0,.32.11.32.32v.74c0,.21-.11.32-.32.32h-2.23v3.64ZM1440.02,226.76v-10.03c-1.11,1.68-2.21,3.35-3.31,5.02-1.1,1.67-2.21,3.34-3.33,5.02h6.64Z"/>
    <path d="M1446.43,214.34c0-.09.04-.16.11-.2s.15-.07.23-.07h11.9c.36,0,.65.04.87.11.22.08.39.18.51.33s.21.33.26.55c.05.22.08.49.08.81.03,1.17-.04,2.36-.21,3.58-.17,1.22-.41,2.53-.71,3.94h3.71c.07,0,.15.03.22.08s.11.12.11.21v.76c0,.08-.04.14-.11.2-.08.06-.15.09-.22.09h-8.84v8.98c0,.09-.03.17-.08.24s-.12.1-.21.1h-.97c-.08,0-.14-.03-.2-.1-.06-.07-.09-.15-.09-.24v-8.98h-8.73c-.09,0-.17-.03-.24-.09-.07-.06-.1-.13-.1-.2v-.76c0-.09.03-.16.1-.21s.15-.08.24-.08h13.88c.15-.58.29-1.22.43-1.91.13-.69.24-1.38.33-2.07.08-.69.14-1.34.17-1.96s.03-1.13,0-1.55c-.03-.21-.07-.34-.12-.39s-.18-.08-.39-.08h-11.56c-.08,0-.15-.03-.23-.08s-.11-.12-.11-.19v-.81Z"/>
    <path d="M1473.95,216.27c-.38,2.19-1.32,4.14-2.85,5.86s-3.61,3.13-6.27,4.24c-.09.03-.18.04-.28.04s-.17-.06-.21-.18l-.34-.74c-.06-.12-.06-.22-.01-.29s.12-.13.19-.16c1.09-.45,2.1-.98,3.03-1.6s1.73-1.28,2.43-2c.7-.72,1.27-1.49,1.72-2.29.45-.81.75-1.64.9-2.5.09-.42-.09-.63-.54-.63h-6.93c-.18,0-.27-.1-.27-.29v-.79c0-.18.09-.27.27-.27h7.45c.72,0,1.21.13,1.46.38s.34.66.25,1.21ZM1480.72,233.51c0,.09-.04.16-.11.2s-.15.07-.22.07h-11.45c-.71,0-1.17-.13-1.38-.39-.22-.26-.33-.7-.33-1.32v-4.32c0-.21.1-.31.31-.31h.92c.21,0,.31.1.31.31v4.21c0,.21.03.34.1.39.07.05.21.08.42.08h11.09c.08,0,.15.03.22.08s.11.12.11.19v.81ZM1479.71,228.2c0,.21-.11.32-.32.32h-.92c-.21,0-.32-.11-.32-.32v-14.45c0-.21.1-.31.32-.31h.92c.21,0,.32.1.32.31v6.5h3.1c.09,0,.17.03.24.08.07.05.1.12.1.21v.77c0,.08-.03.14-.1.2-.07.06-.15.09-.24.09h-3.1v6.59Z"/>
    <path d="M1482.79,235.02c-.13,0-.17-.05-.09-.16,1.17-1.84,2.05-3.65,2.64-5.4s.89-3.5.89-5.22-.29-3.45-.88-5.21-1.46-3.57-2.63-5.41c-.04-.08-.07-.12-.07-.13s.04-.02.11-.02h.63c.08,0,.12,0,.15.01.02,0,.07.05.15.12,1.37,1.73,2.37,3.46,3.03,5.22.65,1.75.98,3.56.98,5.42s-.33,3.69-.98,5.45c-.65,1.75-1.66,3.49-3.03,5.2-.08.08-.12.12-.15.12-.02,0-.09.01-.19.01h-.56Z"/>
  </g>
  <g>
    <path d="M1658.06,204.78c0,.21-.11.32-.32.32h-.92c-.21,0-.31-.1-.31-.32v-14.62c-.46.39-.9.76-1.3,1.1-.41.35-.83.71-1.28,1.1-.17.13-.31.12-.45-.04l-.45-.54c-.04-.07-.07-.15-.07-.24s.04-.15.11-.21l3.49-2.92c.06-.06.15-.09.27-.09h.61c.31,0,.5.03.55.08s.08.24.08.55v15.84Z"/>
    <path d="M1674.44,196.68c0,5.67-1.83,8.5-5.49,8.5s-5.54-2.83-5.54-8.5c0-2.35.36-4.27,1.08-5.74.92-1.85,2.4-2.77,4.46-2.77s3.5.92,4.43,2.77c.34.73.61,1.58.79,2.52.18.95.27,2.02.27,3.22ZM1672.82,196.68c0-4.71-1.29-7.07-3.87-7.07s-3.87,2.36-3.87,7.07,1.29,7.09,3.87,7.09,3.87-2.36,3.87-7.09Z"/>
    <path d="M1678.89,203.63c.2,0,.29.03.29.1s-.02.15-.04.24l-1.49,4.03c-.06.12-.12.2-.17.24-.05.04-.13.06-.24.06h-.95c-.2,0-.27-.11-.22-.32l1.06-3.96c.03-.09.08-.18.13-.26.06-.08.17-.12.34-.12h1.28Z"/>
    <path d="M1692.19,196.68c0,5.67-1.83,8.5-5.49,8.5s-5.54-2.83-5.54-8.5c0-2.35.36-4.27,1.08-5.74.92-1.85,2.4-2.77,4.46-2.77s3.5.92,4.43,2.77c.34.73.61,1.58.79,2.52.18.95.27,2.02.27,3.22ZM1690.57,196.68c0-4.71-1.29-7.07-3.87-7.07s-3.87,2.36-3.87,7.07,1.29,7.09,3.87,7.09,3.87-2.36,3.87-7.09Z"/>
    <path d="M1704.47,196.68c0,5.67-1.83,8.5-5.49,8.5s-5.54-2.83-5.54-8.5c0-2.35.36-4.27,1.08-5.74.91-1.85,2.4-2.77,4.46-2.77s3.5.92,4.43,2.77c.35.73.61,1.58.79,2.52.18.95.27,2.02.27,3.22ZM1702.85,196.68c0-4.71-1.29-7.07-3.87-7.07s-3.87,2.36-3.87,7.07,1.29,7.09,3.87,7.09,3.87-2.36,3.87-7.09Z"/>
    <path d="M1716.76,196.68c0,5.67-1.83,8.5-5.49,8.5s-5.54-2.83-5.54-8.5c0-2.35.36-4.27,1.08-5.74.91-1.85,2.4-2.77,4.46-2.77s3.5.92,4.43,2.77c.35.73.61,1.58.79,2.52.18.95.27,2.02.27,3.22ZM1715.14,196.68c0-4.71-1.29-7.07-3.87-7.07s-3.87,2.36-3.87,7.07,1.29,7.09,3.87,7.09,3.87-2.36,3.87-7.09Z"/>
    <path d="M1719.03,189.3c0-.63.12-1.05.36-1.27.24-.22.69-.33,1.35-.33h6.19c.36,0,.65.02.87.07.22.04.39.13.52.25s.21.28.26.49c.04.21.07.47.07.79v6.95c0,.63-.12,1.05-.36,1.27-.24.22-.69.33-1.35.33h-6.19c-.36,0-.65-.02-.87-.07-.22-.04-.39-.13-.52-.26-.13-.13-.21-.29-.26-.5s-.07-.46-.07-.78v-6.95ZM1721.12,189.05c-.21,0-.35.04-.43.12-.07.08-.11.24-.11.46v6.28c0,.22.04.38.11.46.08.08.22.12.43.12h5.42c.21,0,.35-.04.43-.12.08-.08.11-.24.11-.46v-6.28c0-.22-.04-.38-.11-.46-.07-.08-.22-.12-.43-.12h-5.42ZM1734.98,206.51c0,.09-.04.16-.11.2-.08.04-.15.07-.22.07h-11.45c-.71,0-1.17-.13-1.38-.41-.22-.27-.33-.71-.33-1.33v-4.39c0-.21.1-.32.31-.32h.92c.21,0,.31.11.31.32v4.3c0,.21.04.34.1.39.07.05.21.08.42.08h11.09c.07,0,.15.03.22.08.07.05.11.12.11.19v.81ZM1733.97,201.06c0,.21-.11.31-.31.31h-.92c-.21,0-.32-.1-.32-.31v-14.31c0-.21.11-.31.32-.31h.92c.21,0,.31.1.31.31v6.44h3.11c.09,0,.17.03.24.08.07.05.1.12.1.21v.77c0,.08-.04.14-.1.2-.07.06-.15.09-.24.09h-3.11v6.53Z"/>
    <path d="M1738.56,195.69c0-.63,0-1.13-.02-1.5-.02-.37-.04-.72-.07-1.05,0-.21.11-.32.31-.32h.83c.21,0,.31.11.31.32v1.21c.34-.55.81-.99,1.39-1.32.59-.32,1.3-.48,2.16-.48.9,0,1.69.22,2.36.66.67.44,1.09,1.09,1.24,1.95.31-.85.82-1.5,1.52-1.95.7-.44,1.5-.66,2.42-.66.59,0,1.11.1,1.59.31s.88.5,1.21.87c.34.37.6.8.78,1.29s.27,1.02.27,1.58v8.08c0,.21-.11.32-.31.32h-.86c-.21,0-.31-.1-.31-.29v-7.79c0-2.05-.86-3.08-2.59-3.08-.53,0-.99.12-1.41.35s-.77.55-1.06.96c-.29.41-.51.88-.65,1.42s-.21,1.11-.19,1.71v6.41c0,.21-.11.32-.32.32h-.9c-.21,0-.31-.11-.31-.32v-7.76c0-2.05-.87-3.08-2.61-3.08-1.02,0-1.82.33-2.41.99-.58.66-.88,1.53-.88,2.61v7.25c0,.21-.11.32-.31.32h-.88c-.21,0-.31-.11-.31-.32v-9Z"/>
    <path d="M1762.12,196.81h-5.09c-.07,0-.11-.04-.11-.13v-.47s.01-.09.04-.13c.02-.04.05-.08.08-.11l1.8-2.16c.55-.67.99-1.3,1.32-1.87.32-.57.48-1.09.48-1.55,0-.78-.44-1.17-1.3-1.17-.3,0-.63.05-.98.15-.35.1-.7.23-1.05.39-.01.01-.04.02-.07.02-.04,0-.08-.04-.11-.11l-.07-.83c-.03-.12,0-.2.11-.25.41-.17.81-.3,1.21-.39.4-.1.77-.15,1.11-.15.81,0,1.43.2,1.87.61.44.4.65.98.65,1.73,0,.53-.18,1.13-.54,1.81-.36.68-.89,1.44-1.58,2.26l-.79.95h3.02c.12,0,.18.05.18.16v1.1c0,.11-.06.16-.18.16Z"/>
    <path d="M1775.91,195.01c0,.84-.1,1.69-.3,2.54-.2.86-.52,1.63-.96,2.32-.44.69-.99,1.26-1.68,1.7-.68.44-1.5.66-2.46.66s-1.83-.22-2.51-.65c-.68-.44-1.23-1-1.64-1.7s-.71-1.47-.89-2.33c-.18-.85-.27-1.7-.27-2.54,0-.88.09-1.76.27-2.62s.48-1.64.89-2.33c.41-.69.96-1.25,1.64-1.67.68-.42,1.52-.63,2.51-.63s1.78.21,2.46.63c.68.42,1.24.97,1.68,1.65s.75,1.46.96,2.32c.2.86.3,1.74.3,2.64ZM1774.31,194.99c0-.69-.07-1.39-.21-2.09s-.36-1.34-.66-1.9-.69-1.02-1.17-1.37-1.06-.53-1.76-.53-1.32.18-1.79.53c-.47.35-.85.81-1.14,1.37s-.49,1.2-.61,1.9c-.12.71-.18,1.4-.18,2.09s.05,1.34.17,2.04.31,1.33.6,1.91c.29.58.67,1.05,1.15,1.42.48.37,1.08.55,1.8.55s1.28-.18,1.76-.55c.48-.37.87-.84,1.17-1.42.3-.58.52-1.21.66-1.91s.21-1.38.21-2.04ZM1781.17,206.87c0,.21-.11.32-.31.32h-.92c-.21,0-.31-.11-.31-.32v-20.12c0-.21.11-.31.31-.31h.92c.21,0,.31.1.31.31v20.12Z"/>
    <path d="M1791.1,187.25c0,1.1-.11,2.12-.34,3.06.18.63.43,1.23.75,1.8s.7,1.1,1.14,1.6.91.94,1.43,1.34c.52.4,1.06.73,1.63,1,.09.04.13.11.12.19,0,.08-.03.15-.06.21l-.47.74c-.04.08-.1.13-.16.16s-.16,0-.29-.07c-.35-.18-.74-.42-1.18-.73-.44-.31-.89-.67-1.34-1.09-.45-.42-.88-.88-1.28-1.38s-.74-1.02-1.01-1.56c-.5,1.14-1.16,2.17-2,3.1-.84.93-1.82,1.76-2.95,2.5-.07.05-.16.08-.25.09-.09.01-.17-.01-.23-.09l-.56-.74c-.04-.06-.05-.13-.02-.22.03-.09.08-.16.16-.2,1.79-1.09,3.13-2.47,4.03-4.14.9-1.67,1.33-3.52,1.3-5.58,0-.24.09-.36.27-.36l1.06.07c.17,0,.25.1.25.31ZM1787.43,203.16c0-.63.16-1.2.47-1.7.32-.5.76-.93,1.33-1.28s1.25-.62,2.05-.81,1.68-.28,2.66-.28c.9,0,1.74.09,2.53.28.79.19,1.48.45,2.07.8.59.35,1.06.77,1.41,1.27.35.5.52,1.08.52,1.72s-.17,1.22-.52,1.73c-.34.51-.81.94-1.41,1.29-.59.35-1.28.62-2.07.81-.79.19-1.63.28-2.53.28-.98,0-1.86-.09-2.66-.28s-1.48-.46-2.05-.81-1.01-.78-1.33-1.29c-.31-.51-.47-1.09-.47-1.73ZM1789.03,203.22c0,.43.12.82.36,1.16.24.34.57.62,1,.84.43.23.94.4,1.54.52s1.26.18,1.98.18c.64,0,1.27-.06,1.87-.18s1.13-.29,1.59-.52c.46-.22.82-.51,1.09-.84.27-.34.4-.72.4-1.16s-.13-.85-.4-1.19c-.27-.34-.63-.63-1.09-.87-.46-.23-.99-.41-1.59-.54-.6-.13-1.22-.19-1.87-.19-.72,0-1.38.06-1.98.19-.6.13-1.11.31-1.54.54-.43.23-.76.52-1,.87-.24.35-.36.74-.36,1.19ZM1800.19,198.66c0,.21-.11.32-.31.32h-.92c-.21,0-.32-.1-.32-.32v-11.9c0-.21.11-.31.32-.31h.92c.21,0,.31.1.31.31v5.42h3.11c.09,0,.17.03.24.08.07.05.1.12.1.21v.77c0,.08-.04.14-.1.2-.07.06-.15.09-.24.09h-3.11v5.13Z"/>
    <path d="M1690.52,235.02c-.11,0-.17,0-.19-.01-.02,0-.06-.05-.12-.12-1.37-1.71-2.38-3.44-3.04-5.2-.66-1.76-.99-3.57-.99-5.45s.33-3.67.99-5.42,1.67-3.49,3.04-5.22c.06-.08.1-.12.12-.12.02,0,.07-.01.15-.01h.63c.09,0,.14,0,.14.02s-.02.06-.07.13c-2.36,3.69-3.53,7.23-3.53,10.62,0,1.72.3,3.46.9,5.22s1.49,3.56,2.66,5.4c.07.1.04.16-.11.16h-.56Z"/>
    <path d="M1700.27,217.06c-.22.87-.5,1.72-.83,2.55-.33.83-.71,1.65-1.15,2.46.22.45.49.91.8,1.38.31.47.64.93,1,1.38s.73.87,1.11,1.27.76.75,1.14,1.05c.07.08.11.15.1.23s-.04.14-.1.2l-.54.61c-.06.06-.12.1-.18.11-.06.02-.15-.03-.27-.13-.33-.29-.68-.62-1.04-.99s-.71-.77-1.06-1.19c-.35-.42-.68-.84-.99-1.27-.32-.43-.59-.84-.83-1.25-.68,1.03-1.45,2.02-2.32,2.95-.87.93-1.82,1.79-2.86,2.56-.08.04-.15.08-.24.1s-.15,0-.19-.06l-.58-.7c-.06-.07-.08-.15-.06-.22.02-.08.07-.13.15-.18,1.88-1.47,3.4-3.07,4.59-4.81,1.18-1.74,2.06-3.72,2.63-5.94.06-.21.06-.36,0-.45-.05-.09-.18-.14-.39-.14h-5.71c-.18,0-.27-.1-.27-.29v-.79c0-.18.11-.27.32-.27h6.28c.78,0,1.27.13,1.46.38.19.25.2.73.02,1.44ZM1703.75,220.95v-6.82c0-.21.1-.32.31-.32h.86c.21,0,.31.11.31.32v18.88c0,.21-.11.31-.31.31h-.86c-.21,0-.31-.11-.31-.31v-10.71h-3.24c-.09,0-.17-.03-.24-.09-.07-.06-.1-.13-.1-.2v-.76c0-.09.03-.16.1-.21.07-.05.15-.08.24-.08h3.24ZM1709.22,233.87c0,.21-.11.32-.31.32h-.86c-.21,0-.31-.11-.31-.32v-20.12c0-.21.1-.31.31-.31h.86c.21,0,.31.1.31.31v20.12Z"/>
    <path d="M1712.75,231.75c-.21-.07-.32-.21-.32-.4v-.95c0-.25.11-.33.32-.23.54.26,1.07.44,1.59.54.52.11,1.08.16,1.7.16,1.32,0,2.39-.32,3.22-.97.9-.69,1.35-1.68,1.35-2.97,0-2.54-1.45-3.8-4.34-3.8-.57,0-1.08.03-1.54.09-.46.06-.96.17-1.52.32-.17.04-.3.03-.4-.06-.11-.08-.16-.21-.16-.37l.13-7.18c0-.31.03-.5.08-.55s.24-.08.55-.08h7.69c.21,0,.32.11.32.32v.74c0,.21-.11.31-.32.31h-6.79c-.01.95-.03,1.87-.05,2.77-.02.9-.04,1.82-.06,2.77.73-.28,1.63-.43,2.68-.43,1.57,0,2.85.43,3.82,1.28.97.88,1.46,2.07,1.46,3.55,0,1.82-.56,3.22-1.69,4.21-1.08.94-2.56,1.42-4.43,1.42-.67,0-1.26-.04-1.75-.11-.5-.08-1.01-.2-1.53-.38Z"/>
    <path d="M1725.85,214.34c0-.09.04-.16.11-.2.08-.04.15-.07.23-.07h11.9c.36,0,.65.04.87.11s.39.18.51.33c.12.14.21.33.26.55.05.22.08.49.08.81.03,1.17-.04,2.36-.21,3.58-.17,1.22-.41,2.53-.71,3.94h3.71c.07,0,.15.03.22.08.07.05.11.12.11.21v.76c0,.08-.04.14-.11.2-.08.06-.15.09-.22.09h-8.84v8.98c0,.09-.03.17-.08.24s-.12.1-.21.1h-.97c-.07,0-.14-.03-.2-.1-.06-.07-.09-.15-.09-.24v-8.98h-8.73c-.09,0-.17-.03-.24-.09-.07-.06-.1-.13-.1-.2v-.76c0-.09.03-.16.1-.21.07-.05.15-.08.24-.08h13.88c.15-.58.29-1.22.43-1.91.13-.69.24-1.38.33-2.07.08-.69.14-1.34.17-1.96.03-.62.03-1.13,0-1.55-.03-.21-.07-.34-.12-.39s-.18-.08-.39-.08h-11.56c-.08,0-.15-.03-.23-.08-.07-.05-.11-.12-.11-.19v-.81Z"/>
    <path d="M1753.82,216.27c-.38,2.19-1.32,4.14-2.85,5.86-1.52,1.72-3.61,3.13-6.27,4.24-.09.03-.18.04-.28.04s-.17-.06-.21-.18l-.34-.74c-.06-.12-.06-.22-.01-.29s.12-.13.19-.16c1.1-.45,2.1-.98,3.03-1.6.92-.62,1.73-1.28,2.43-2s1.27-1.49,1.72-2.29c.45-.81.75-1.64.9-2.5.09-.42-.09-.63-.54-.63h-6.93c-.18,0-.27-.1-.27-.29v-.79c0-.18.09-.27.27-.27h7.45c.72,0,1.21.13,1.46.38.26.25.34.66.25,1.21ZM1760.59,233.51c0,.09-.04.16-.11.2-.08.04-.15.07-.22.07h-11.45c-.71,0-1.17-.13-1.38-.39-.22-.26-.33-.7-.33-1.32v-4.32c0-.21.1-.31.31-.31h.92c.21,0,.31.1.31.31v4.21c0,.21.04.34.1.39.07.05.21.08.42.08h11.09c.07,0,.15.03.22.08.07.05.11.12.11.19v.81ZM1759.58,228.2c0,.21-.11.32-.31.32h-.92c-.21,0-.32-.11-.32-.32v-14.45c0-.21.11-.31.32-.31h.92c.21,0,.31.1.31.31v6.5h3.11c.09,0,.17.03.24.08.07.05.1.12.1.21v.77c0,.08-.04.14-.1.2-.07.06-.15.09-.24.09h-3.11v6.59Z"/>
    <path d="M1763.11,235.02c-.13,0-.17-.05-.09-.16,1.17-1.84,2.05-3.65,2.64-5.4.59-1.75.89-3.5.89-5.22s-.29-3.45-.88-5.21c-.59-1.76-1.46-3.57-2.63-5.41-.04-.08-.07-.12-.07-.13s.04-.02.11-.02h.63c.07,0,.12,0,.15.01.02,0,.07.05.14.12,1.37,1.73,2.38,3.46,3.03,5.22s.98,3.56.98,5.42-.33,3.69-.98,5.45c-.65,1.75-1.66,3.49-3.03,5.2-.07.08-.12.12-.14.12-.02,0-.09.01-.19.01h-.56Z"/>
  </g>
  <text class="st4" transform="translate(1723.22 136.53)"><tspan x="0" y="0">[단위:연면적, 원]</tspan></text>
  <text class="st1" transform="translate(172.61 306.46)"><tspan x="0" y="0">기준 수수료</tspan></text>
  <text class="st1" transform="translate(161.94 221.38)"><tspan x="0" y="0">구분</tspan></text>
  <text class="st1" transform="translate(183.9 372.61)"><tspan x="0" y="0">적용요율</tspan></text>
  <text class="st1" transform="translate(196.92 442.84)"><tspan x="0" y="0">수수료</tspan></text>
  <text class="st1" transform="translate(173.65 510.85)"><tspan x="0" y="0">기준 수수료</tspan></text>
  <text class="st1" transform="translate(183.78 577.95)"><tspan x="0" y="0">적용요율</tspan></text>
  <text class="st0" transform="translate(196.45 646.51)"><tspan x="0" y="0">수수료</tspan></text>
  <text class="st2" transform="translate(101.83 316.55)"><tspan x="0" y="0">본인증</tspan></text>
  <text class="st2" transform="translate(101.83 501.81)"><tspan x="0" y="0">예비인증</tspan></text>
  <text class="st1" transform="translate(454.86 372.1)"><tspan x="0" y="0">0.5</tspan></text>
  <text class="st1" transform="translate(418.48 441.54)"><tspan x="0" y="0">2,015,000</tspan></text>
  <text class="st1" transform="translate(455.08 577.69)"><tspan x="0" y="0">0.5</tspan></text>
  <text class="st1" transform="translate(418.5 645.68)"><tspan x="0" y="0">1,030,000</tspan></text>
  <text class="st1" transform="translate(779.88 372.31)"><tspan x="0" y="0">0.8</tspan></text>
  <text class="st1" transform="translate(744.56 441.38)"><tspan x="0" y="0">3,224,000</tspan></text>
  <text class="st1" transform="translate(780.09 577.54)"><tspan x="0" y="0">0.8</tspan></text>
  <text class="st1" transform="translate(744.08 645.46)"><tspan x="0" y="0">1,648,000</tspan></text>
  <text class="st1" transform="translate(1105.15 372.09) scale(1.02 1)"><tspan x="0" y="0">1.0</tspan></text>
  <text class="st1" transform="translate(1033.89 304.78) scale(1.02 1)"><tspan x="0" y="0">4,030,000</tspan></text>
  <text class="st1" transform="translate(1069.46 441.99) scale(1.02 1)"><tspan x="0" y="0">4,030,000</tspan></text>
  <text class="st1" transform="translate(1034.54 509.59) scale(1.02 1)"><tspan x="0" y="0">2,060,000</tspan></text>
  <text class="st1" transform="translate(1105.01 577.01) scale(1.02 1)"><tspan x="0" y="0">1.0</tspan></text>
  <text class="st1" transform="translate(1069.98 645.8) scale(1.02 1)"><tspan x="0" y="0">2,060,000</tspan></text>
  <text class="st1" transform="translate(1431.1 372.24) scale(1.02 1)"><tspan x="0" y="0">1.2</tspan></text>
  <text class="st1" transform="translate(1394.41 442) scale(1.02 1)"><tspan x="0" y="0">4,836,000</tspan></text>
  <text class="st1" transform="translate(1431.04 577.39) scale(1.02 1)"><tspan x="0" y="0">1.2</tspan></text>
  <text class="st1" transform="translate(1395.35 645.56) scale(1.02 1)"><tspan x="0" y="0">2,472,000</tspan></text>
  <text class="st1" transform="translate(1720.18 372.15) scale(1.02 1)"><tspan x="0" y="0">1.5</tspan></text>
  <text class="st1" transform="translate(1684.37 441.44) scale(1.02 1)"><tspan x="0" y="0">6,045,000</tspan></text>
  <text class="st1" transform="translate(1720.54 576.99) scale(1.02 1)"><tspan x="0" y="0">1.5</tspan></text>
  <text class="st1" transform="translate(1685.04 645.06) scale(1.02 1)"><tspan x="0" y="0">3,090,000</tspan></text>
  <text class="st3" transform="translate(661.71 713.79)"><tspan x="0" y="0">※단, 개별시설의 제5구간은 이 고시 시행일로부터 1년이 경관하는 전날까지 1.25요율 적용(본인증:5,037,500원, 예비인증:2,575,000원),부가세 별도</tspan></text>
  <line class="st5" x1="55.69" y1="264.93" x2="1862.42" y2="264.93"/>
  <line class="st5" x1="146.37" y1="334.15" x2="1862.42" y2="334.15"/>
  <line class="st5" x1="146.37" y1="401.13" x2="1862.42" y2="401.13"/>
  <line class="st5" x1="55.69" y1="469.67" x2="1862.42" y2="469.67"/>
  <line class="st5" x1="146.37" y1="538.21" x2="1862.42" y2="538.21"/>
  <line class="st5" x1="146.37" y1="606.75" x2="1865.16" y2="606.75"/>
  <line class="st6" x1="54.84" y1="163.25" x2="1863.48" y2="163.22"/>
  <line class="st6" x1="56.52" y1="674.39" x2="1865.16" y2="674.37"/>
  <line class="st5" x1="309.8" y1="163.25" x2="309.79" y2="674.39"/>
  <line class="st5" x1="146.36" y1="264.64" x2="146.36" y2="674.38"/>
  <line class="st5" x1="634.3" y1="163.25" x2="634.3" y2="264.93"/>
  <line class="st5" x1="959.06" y1="163.25" x2="959.05" y2="264.93"/>
  <line class="st5" x1="1285.31" y1="163.25" x2="1285.3" y2="264.93"/>
  <line class="st5" x1="959.06" y1="334.16" x2="959.05" y2="467.59"/>
  <line class="st5" x1="1285.31" y1="334.16" x2="1285.3" y2="467.59"/>
  <line class="st5" x1="959.06" y1="540.03" x2="959.05" y2="673.46"/>
  <line class="st5" x1="634.3" y1="334.16" x2="634.29" y2="467.59"/>
  <line class="st5" x1="634.3" y1="540.03" x2="634.29" y2="673.46"/>
  <line class="st5" x1="1285.31" y1="540.03" x2="1285.3" y2="673.46"/>
  <line class="st5" x1="1609.81" y1="163.25" x2="1609.8" y2="264.93"/>
  <line class="st5" x1="1609.81" y1="334.16" x2="1609.8" y2="467.59"/>
  <line class="st5" x1="1609.81" y1="540.03" x2="1609.8" y2="673.46"/>
</svg>