<?xml version="1.0" encoding="UTF-8"?>
<svg id="_레이어_1" data-name="레이어_1" xmlns="http://www.w3.org/2000/svg" version="1.1" viewBox="0 0 684.5 168.15">
  <!-- Generator: Adobe Illustrator 29.6.0, SVG Export Plug-In . SVG Version: 2.1.1 Build 207)  -->
  <defs>
    <style>
      .st0, .st1 {
        font-size: 9px;
      }

      .st0, .st1, .st2 {
        font-family: NanumGothicOTFBold-KSCpc-EUC-H, NanumGothicOTF;
      }

      .st0, .st3, .st2 {
        fill: #595757;
      }

      .st4 {
        stroke: #de5318;
        stroke-width: .75px;
      }

      .st4, .st5, .st6, .st7, .st8, .st9 {
        fill: none;
        stroke-miterlimit: 10;
      }

      .st1 {
        fill: #545454;
      }

      .st5 {
        stroke-dasharray: 2.02 2.02;
      }

      .st5, .st6, .st7, .st8, .st9 {
        stroke: #595757;
        stroke-width: .5px;
      }

      .st10 {
        fill: #1fa939;
      }

      .st2 {
        font-size: 8px;
      }

      .st7 {
        stroke-dasharray: 2.04 2.04;
      }

      .st11 {
        fill: #de5318;
      }

      .st8 {
        stroke-dasharray: 1.99 1.99;
      }

      .st12 {
        fill: #2ca03a;
      }

      .st9 {
        stroke-dasharray: 1.81 1.81;
      }
    </style>
  </defs>
  <g>
    <path class="st11" d="M248.35,99.7l-.42-.4c-.08-.08-.07-.17.03-.27.78-.72,1.33-1.59,1.67-2.58.3-.87.41-1.75.38-2.82,0-.07.06-.14.13-.14l.8.03c.06,0,.12.06.12.13,0,.74-.05,1.41-.16,2.04.22,1.14,1.07,2.4,1.86,3.02.1.07.1.17.02.29l-.38.46c-.06.08-.17.1-.29.02-.6-.46-1.37-1.45-1.66-2.23-.43,1-1.13,1.93-1.77,2.45-.12.09-.22.09-.32,0ZM254.2,101.61c-.08,0-.12-.04-.12-.12v-4.76h-1.85c-.06,0-.13-.05-.13-.12v-.64c0-.06.06-.11.13-.11h1.85v-2.68c0-.08.04-.12.12-.12h.8c.08,0,.12.04.12.12v8.31c0,.08-.04.12-.12.12h-.8Z"/>
    <path class="st11" d="M262.2,98.93v2.49c0,.08-.04.13-.13.13h-.78c-.08,0-.13-.04-.13-.13v-2.49h-1.88v2.49c0,.08-.04.13-.13.13h-.78c-.08,0-.13-.04-.13-.13v-2.49h-1.94c-.07,0-.13-.07-.13-.13v-.58c0-.07.05-.14.13-.14h7.84c.06,0,.14.08.14.14v.58c0,.06-.07.13-.14.13h-1.94ZM257.98,97.25c-.47,0-.6-.16-.6-.55v-1.31c0-.39.13-.55.59-.55h3.95c.1,0,.11-.08.11-.19v-.45c0-.1,0-.1-.12-.1h-4.41c-.06,0-.13-.04-.13-.11v-.62c0-.06.06-.12.13-.12h4.92c.5,0,.61.13.61.53v1.33c0,.42-.12.53-.61.53h-3.92c-.1,0-.11.02-.11.12v.53c0,.11,0,.11.12.11h4.59c.06,0,.14.04.14.12v.59c0,.07-.08.13-.13.13h-5.13Z"/>
    <path class="st11" d="M265.27,97.89l-.36-.42c-.13-.13-.08-.21.04-.28,1.34-.91,2.03-1.86,2.03-3.77,0-.1.07-.16.13-.16l.79.04c.08,0,.12.04.12.14,0,.57-.05,1.06-.16,1.5.4.86,1.26,1.56,1.88,1.85.1.04.12.12.05.22l-.31.5c-.06.1-.14.13-.25.08-.72-.32-1.35-.87-1.79-1.56-.42.76-1.04,1.32-1.87,1.9-.14.11-.22.07-.3-.03ZM267.33,101.48c-.54,0-.78-.17-.78-.64v-1.86c0-.46.19-.65.65-.65h3.92c.54,0,.69.18.69.66v1.85c0,.46-.19.63-.65.63h-3.83ZM270.77,99.28c0-.1-.02-.12-.12-.12h-2.95c-.11,0-.13,0-.13.11v1.26c0,.11.02.12.13.12h2.95c.1,0,.12,0,.12-.12v-1.25ZM271.81,97.77c0,.08-.04.12-.13.12h-.79c-.06,0-.13-.05-.13-.13v-4.57c0-.06.06-.12.13-.12h.79c.08,0,.13.04.13.12v4.58Z"/>
    <path class="st11" d="M273.64,99.61l-.42-.4c-.08-.08-.07-.18.03-.28.78-.71,1.33-1.58,1.67-2.57.29-.86.41-1.67.38-2.73,0-.07.06-.14.13-.14l.8.03c.06,0,.12.06.12.13,0,.73-.04,1.35-.15,1.94.24,1.13,1.07,2.31,1.85,2.94.1.07.1.16.02.28l-.38.46c-.06.08-.17.1-.29.02-.58-.46-1.32-1.4-1.64-2.17-.43,1-1.13,1.95-1.78,2.48-.12.09-.22.09-.31,0ZM279.97,97.22v4.28c0,.08-.04.12-.12.12h-.8c-.08,0-.12-.04-.12-.12v-8.31c0-.08.04-.12.12-.12h.8c.08,0,.12.04.12.12v3.17h1.22c.06,0,.13.04.13.11v.63c0,.07-.06.13-.13.13h-1.22Z"/>
    <path class="st11" d="M282.95,97.06c-.5,0-.68-.15-.68-.62v-2.49c0-.46.17-.61.63-.61h2.7c.46,0,.63.12.63.61v2.49c0,.47-.17.62-.63.62h-2.66ZM283.13,101.6l-.16-.55c-.03-.09.02-.14.14-.16,1.5-.24,2.86-.59,3.79-1.12.21-.11.12-.11.02-.11h-3.28c-.08,0-.12-.04-.12-.12v-.58c0-.07.04-.11.12-.11h4.11c.61,0,.88.19.88.37,0,.25-.14.43-.4.68-.19.19-.46.37-.81.56.58.17,1.31.32,1.88.42.07,0,.12.07.09.14l-.19.5c-.03.06-.09.13-.19.1-.74-.1-1.85-.38-2.7-.67-.9.35-1.93.59-2.94.73-.11,0-.21,0-.23-.09ZM285.25,94.24c0-.1-.03-.12-.13-.12h-1.73c-.11,0-.13,0-.13.11v1.92c0,.12.02.13.13.13h1.73c.11,0,.13,0,.13-.13v-1.91ZM284.91,98.44s-.14-.05-.14-.13v-.54c0-.08.09-.14.14-.14h2.3c.07,0,.14.07.14.14v.52c0,.07-.06.14-.14.14h-2.3ZM288.71,97.59c0,.08-.04.13-.12.13h-.8c-.08,0-.12-.04-.12-.14v-4.39c0-.08.04-.12.12-.12h.8c.08,0,.12.04.12.12v4.4Z"/>
    <path class="st11" d="M252.38,106.07c-.06,0-.13-.08-.13-.15v-.51c0-.06.08-.13.14-.13h4.71c.07,0,.13.06.13.13v.52c0,.07-.06.14-.13.14h-4.72ZM254.79,109.66c-1.11,0-1.94-.71-1.94-1.61s.83-1.62,1.94-1.62,1.94.72,1.94,1.62-.84,1.61-1.95,1.61ZM253.63,104.84s-.13-.05-.13-.13v-.51c0-.1.09-.14.13-.14h2.3c.07,0,.14.07.14.15v.5c0,.07-.06.14-.14.14h-2.3ZM254.8,108.88c.58,0,.96-.4.96-.84s-.39-.83-.96-.83-.96.4-.96.83.39.84.96.84ZM254.62,112.28c-.54,0-.68-.17-.68-.64v-1.43c0-.06.06-.14.13-.14h.77c.07,0,.13.07.13.14v1.06c0,.12.05.14.16.14h4.21c.06,0,.13.05.13.12v.64c0,.07-.04.11-.11.11h-4.74ZM256.97,106.64c0-.06.07-.11.14-.11h1.06v-2.56c0-.08.04-.12.12-.12h.8c.08,0,.12.04.12.12v6.31c0,.08-.04.12-.12.12h-.8c-.08,0-.12-.04-.12-.12v-1.4h-1.06c-.06,0-.14-.04-.14-.11v-.61c0-.06.07-.11.14-.11h1.06v-.71h-1.06c-.06,0-.14-.04-.14-.11v-.6Z"/>
    <path class="st11" d="M260.96,108.64l-.28-.45c-.06-.1-.03-.22.09-.28,1.33-.61,2.37-1.53,2.84-2.53.06-.11.07-.21-.12-.21h-2.26c-.08,0-.13-.07-.13-.14v-.59c0-.08.04-.13.13-.13h2.89c.53,0,.8.19.74.59-.03.13-.06.29-.11.4-.14.39-.39.77-.67,1.16.44.44,1.08.87,1.56,1.11.14.06.17.12.09.23l-.3.5c-.06.11-.15.13-.27.06-.43-.19-1.18-.73-1.67-1.22-.64.62-1.42,1.18-2.25,1.58-.08.04-.22.06-.29-.07ZM264.66,112.43c-1.65,0-2.68-.7-2.68-1.73s1.04-1.72,2.68-1.72c1.55,0,2.71.69,2.71,1.72s-1.16,1.73-2.71,1.73ZM264.66,109.8c-.96,0-1.61.32-1.61.93,0,.57.68.88,1.61.88.88,0,1.65-.32,1.65-.88s-.77-.93-1.65-.93ZM267.28,106.9v1.84c0,.06-.05.13-.12.13h-.8c-.06,0-.12-.06-.12-.13v-4.74c0-.08.04-.12.12-.12h.8c.08,0,.12.04.12.12v2.05h1.22c.07,0,.13.05.13.12v.63c0,.06-.06.12-.13.12h-1.22Z"/>
    <path class="st11" d="M269.5,108.69l-.36-.42c-.13-.13-.08-.21.04-.28,1.34-.91,2.03-1.86,2.03-3.77,0-.1.07-.16.13-.16l.79.04c.08,0,.12.04.12.14,0,.57-.05,1.06-.16,1.5.41.86,1.26,1.56,1.88,1.85.1.04.12.12.05.22l-.31.5c-.06.1-.14.13-.25.08-.72-.32-1.35-.87-1.79-1.56-.42.76-1.04,1.32-1.87,1.9-.14.11-.22.07-.3-.03ZM271.56,112.28c-.54,0-.78-.17-.78-.64v-1.86c0-.46.19-.65.65-.65h3.92c.54,0,.69.18.69.66v1.85c0,.46-.19.63-.65.63h-3.83ZM275,110.08c0-.1-.02-.12-.12-.12h-2.95c-.11,0-.13,0-.13.11v1.26c0,.11.02.12.13.12h2.95c.1,0,.12,0,.12-.12v-1.25ZM276.04,108.57c0,.08-.04.12-.13.12h-.79c-.06,0-.13-.05-.13-.13v-4.57c0-.06.06-.12.13-.12h.79c.08,0,.13.04.13.12v4.58Z"/>
    <path class="st11" d="M277.87,110.41l-.42-.4c-.08-.08-.07-.18.03-.28.78-.71,1.33-1.58,1.67-2.57.29-.86.41-1.67.38-2.73,0-.07.06-.14.13-.14l.8.03c.06,0,.12.06.12.13,0,.73-.04,1.35-.15,1.94.24,1.13,1.07,2.31,1.85,2.94.1.07.1.16.02.28l-.38.46c-.06.08-.17.1-.29.02-.58-.46-1.32-1.4-1.64-2.17-.43,1-1.13,1.95-1.78,2.48-.12.09-.22.09-.31,0ZM284.2,108.02v4.28c0,.08-.04.12-.12.12h-.8c-.08,0-.12-.04-.12-.12v-8.31c0-.08.04-.12.12-.12h.8c.08,0,.12.04.12.12v3.17h1.22c.06,0,.13.04.13.11v.63c0,.07-.06.13-.13.13h-1.22Z"/>
  </g>
  <g>
    <path class="st11" d="M627.32,95.16c-.06,0-.13-.08-.13-.15v-.51c0-.06.08-.13.14-.13h4.71c.07,0,.13.06.13.13v.52c0,.07-.06.14-.13.14h-4.72ZM629.73,98.75c-1.11,0-1.94-.71-1.94-1.61s.83-1.62,1.94-1.62,1.94.72,1.94,1.62-.84,1.61-1.95,1.61ZM628.57,93.93s-.13-.05-.13-.13v-.51c0-.1.09-.14.13-.14h2.3c.07,0,.14.07.14.15v.5c0,.07-.06.14-.14.14h-2.3ZM629.74,97.98c.58,0,.96-.4.96-.84s-.39-.83-.96-.83-.96.4-.96.83.39.84.96.84ZM629.56,101.37c-.54,0-.68-.17-.68-.64v-1.43c0-.06.06-.13.13-.13h.77c.07,0,.13.07.13.13v1.06c0,.12.04.14.16.14h4.21c.06,0,.13.05.13.12v.64c0,.07-.04.11-.11.11h-4.74ZM631.91,95.73c0-.06.07-.11.13-.11h1.06v-2.56c0-.08.04-.12.12-.12h.8c.08,0,.12.04.12.12v6.31c0,.08-.04.12-.12.12h-.8c-.08,0-.12-.04-.12-.12v-1.4h-1.06c-.06,0-.13-.04-.13-.11v-.61c0-.06.07-.11.13-.11h1.06v-.71h-1.06c-.06,0-.13-.04-.13-.11v-.6Z"/>
    <path class="st11" d="M636.48,96.97v-2.58h-.77c-.06,0-.15-.07-.15-.14v-.57c0-.06.09-.14.15-.14h4.56c.07,0,.13.06.13.14v.58c0,.07-.06.13-.13.13h-.56v2.44c.3-.03.58-.06.87-.1.06,0,.15.02.16.08l.06.53c0,.11-.08.19-.14.2-1.43.22-3.31.29-5.06.24-.07,0-.13-.06-.13-.13v-.57c0-.08.04-.13.13-.13.32,0,.59,0,.87,0ZM637.69,101.35c-.54,0-.69-.17-.69-.64v-1.92c0-.06.07-.13.13-.13h.77c.08,0,.14.06.14.13v1.55c0,.12.04.14.16.14h4.24c.06,0,.14.05.14.12v.64c0,.07-.07.11-.14.11h-4.75ZM638.73,94.39h-1.26v2.57c.43,0,.85-.02,1.26-.05v-2.51ZM642.23,96.57v2.34c0,.08-.04.12-.12.12h-.8c-.08,0-.12-.04-.12-.12v-5.83c0-.08.04-.12.12-.12h.8c.08,0,.12.04.12.12v2.63h1.22c.06,0,.13.04.13.11v.64c0,.06-.06.12-.13.12h-1.22Z"/>
    <path class="st11" d="M646.66,99.33l-.37-.43c-.06-.08-.05-.2.04-.26,1.44-1.01,2.39-2.63,2.6-3.88.04-.17.03-.23-.13-.23h-1.89c-.06,0-.1-.06-.1-.13v-.58c0-.09.04-.13.11-.13h2.39c.51,0,.73.17.73.49,0,.11,0,.26-.03.37-.13.67-.35,1.34-.68,1.98.36.65,1.04,1.48,1.45,1.76.13.1.11.18.03.28l-.34.42c-.08.11-.19.11-.31,0-.36-.26-.95-.97-1.34-1.59-.5.73-1.13,1.38-1.9,1.95-.07.06-.2.06-.27-.02ZM651.4,101.22c-.08,0-.13-.04-.13-.13v-4.33h-1.07c-.06,0-.13-.05-.13-.12v-.62c0-.06.06-.11.13-.11h1.07v-2.69c0-.08.05-.12.13-.12h.73c.08,0,.13.04.13.12v7.87c0,.08-.04.13-.13.13h-.73ZM653.06,101.52c-.08,0-.12-.04-.12-.12v-8.33c0-.08.04-.12.13-.12h.77c.08,0,.12.04.12.12v8.33c0,.08-.04.12-.12.12h-.78Z"/>
    <path class="st11" d="M655.35,97.73l-.28-.45c-.06-.1-.03-.21.09-.27,1.33-.61,2.37-1.54,2.84-2.54.06-.11.07-.21-.12-.21h-2.26c-.08,0-.13-.07-.13-.14v-.59c0-.08.04-.13.13-.13h2.89c.53,0,.8.19.74.58-.03.13-.06.29-.11.4-.14.39-.39.78-.68,1.17.44.44,1.08.86,1.57,1.11.14.06.17.12.09.23l-.3.5c-.06.11-.15.13-.27.07-.42-.22-1.19-.75-1.68-1.24-.64.62-1.41,1.18-2.24,1.58-.08.04-.22.06-.29-.07ZM660.76,101.49c-.07,0-.14-.06-.14-.13v-2c0-.14-.04-.15-.16-.15h-4.07c-.06,0-.13-.04-.13-.11v-.64c0-.07.06-.12.13-.12h4.67c.46,0,.6.17.6.63v2.39c0,.06-.06.13-.13.13h-.77ZM661.67,95.97v1.81c0,.08-.04.12-.12.12h-.8c-.08,0-.12-.04-.12-.13v-4.69c0-.08.04-.12.12-.12h.8c.08,0,.12.04.12.12v2.03h1.22c.07,0,.13.04.13.12v.63c0,.06-.06.12-.13.12h-1.22Z"/>
    <path class="st11" d="M664.64,96.95c-.5,0-.68-.15-.68-.62v-2.49c0-.46.17-.61.63-.61h2.7c.46,0,.63.12.63.61v2.49c0,.47-.17.62-.63.62h-2.66ZM664.82,101.49l-.16-.55c-.03-.09.02-.14.14-.16,1.5-.24,2.86-.58,3.79-1.12.21-.11.12-.11.02-.11h-3.28c-.08,0-.12-.04-.12-.12v-.58c0-.07.04-.11.12-.11h4.11c.61,0,.88.19.88.37,0,.25-.14.43-.4.67-.19.19-.46.37-.81.56.58.17,1.31.32,1.88.42.07,0,.12.07.09.14l-.19.5c-.03.06-.09.13-.19.1-.74-.1-1.85-.38-2.7-.67-.9.35-1.93.59-2.94.73-.11,0-.21,0-.23-.09ZM666.94,94.13c0-.1-.03-.12-.13-.12h-1.73c-.11,0-.13,0-.13.11v1.92c0,.12.02.13.13.13h1.73c.11,0,.13,0,.13-.13v-1.91ZM666.61,98.33s-.13-.05-.13-.14v-.54c0-.08.09-.13.13-.13h2.3c.07,0,.14.07.14.14v.52c0,.07-.06.14-.14.14h-2.3ZM670.4,97.48c0,.08-.04.13-.12.13h-.8c-.08,0-.12-.04-.12-.13v-4.39c0-.08.04-.12.12-.12h.8c.08,0,.12.04.12.12v4.4Z"/>
    <path class="st11" d="M629.53,108.47c-1.29,0-2.17-.97-2.17-2.17s.88-2.17,2.17-2.17,2.21,1.02,2.21,2.17-.91,2.17-2.21,2.17ZM629.53,105.06c-.68,0-1.16.57-1.16,1.26s.48,1.28,1.16,1.28,1.18-.56,1.18-1.28-.49-1.26-1.18-1.26ZM629.53,112.13c-.54,0-.68-.17-.68-.64v-2.03c0-.06.06-.13.13-.13h.78c.07,0,.13.06.13.13v1.67c0,.12.04.14.16.14h4.14c.06,0,.13.04.13.11v.65c0,.07-.07.11-.13.11h-4.66ZM634.05,109.71c0,.08-.04.12-.12.12h-.8c-.08,0-.12-.04-.12-.13v-5.83c0-.08.04-.12.12-.12h.8c.08,0,.12.04.12.12v5.83Z"/>
    <path class="st11" d="M635.47,108.5c-.08,0-.13-.04-.13-.14v-.59c0-.08.04-.13.13-.13h7.83c.06,0,.14.06.14.13v.59c0,.07-.07.14-.14.14h-7.83ZM641.54,105.02c-.22.24-.55.46-.95.7.59.17,1.51.38,2.16.48.1,0,.16.07.12.18l-.21.5c-.03.07-.1.13-.2.11-.83-.1-2.07-.43-2.96-.75-.96.39-2.08.71-3.16.89-.1.03-.16-.04-.19-.1l-.15-.54c-.03-.07.03-.15.09-.16,1.83-.39,3.09-.8,4.01-1.36.14-.09.27-.15,0-.15h-3.29c-.08,0-.12-.04-.12-.13v-.6c0-.07.04-.11.12-.11h4.35c.48,0,.72.14.73.41,0,.18-.12.4-.34.64ZM639.39,112.31c-1.83,0-2.84-.6-2.84-1.58s1.04-1.58,2.84-1.58,2.84.61,2.84,1.58-1.02,1.58-2.84,1.58ZM639.39,109.94c-1.2,0-1.82.37-1.82.8s.62.79,1.82.79,1.82-.37,1.82-.79-.62-.8-1.82-.8Z"/>
    <path class="st11" d="M644.45,110.4l-.42-.4c-.08-.08-.07-.17.03-.27.78-.72,1.33-1.59,1.67-2.57.3-.87.41-1.75.38-2.82,0-.07.06-.13.13-.13l.8.03c.06,0,.12.06.12.13,0,.74-.05,1.41-.16,2.03.22,1.14,1.07,2.4,1.86,3.03.1.07.1.17.02.29l-.38.46c-.06.08-.17.1-.29.02-.6-.46-1.37-1.45-1.66-2.23-.43,1-1.12,1.93-1.77,2.45-.12.09-.22.09-.32,0ZM650.29,112.3c-.08,0-.12-.04-.12-.12v-4.76h-1.86c-.06,0-.13-.05-.13-.12v-.64c0-.06.06-.11.13-.11h1.86v-2.68c0-.08.04-.12.12-.12h.8c.08,0,.12.04.12.12v8.31c0,.08-.04.12-.12.12h-.8Z"/>
    <path class="st11" d="M656.15,107.88c-.53,0-.68-.16-.68-.64v-3.25c0-.06.05-.11.12-.11h.78c.06,0,.13.04.13.11v1.18h1.91v-1.19c0-.06.05-.12.12-.12h.79c.06,0,.12.05.12.12v3.29c0,.4-.16.61-.68.61h-2.6ZM656.97,112.29c-.47,0-.6-.17-.6-.56v-1.07c0-.39.13-.54.59-.54h3.58c.1,0,.11-.02.11-.14v-.29c0-.13,0-.14-.12-.14h-4.06c-.06,0-.13-.04-.13-.11v-.59c0-.06.06-.12.13-.12h4.57c.5,0,.61.14.61.55v1.05c0,.42-.12.55-.61.55h-3.56c-.1,0-.11.02-.11.12v.35c0,.11,0,.11.12.11h4.26c.07,0,.13.05.13.13v.58c0,.06-.07.13-.12.13h-4.81ZM658.4,106.01h-1.91v.87c0,.1.05.15.16.15h1.58c.11,0,.16-.05.16-.15v-.87ZM661.66,106.43v1.76c0,.08-.04.13-.12.13h-.8c-.08,0-.12-.04-.12-.13v-4.3c0-.08.04-.12.12-.12h.8c.08,0,.12.04.12.12v1.69h1.22c.06,0,.13.04.13.11v.63c0,.06-.06.13-.13.13h-1.22Z"/>
    <path class="st11" d="M669.91,106.95h1.3c.06,0,.14.07.14.13v.58c0,.06-.07.14-.14.14h-7.84c-.07,0-.13-.08-.13-.14v-.58c0-.07.05-.13.13-.13h5.57c.11-.6.18-1.22.18-1.96,0-.17-.08-.19-.25-.19h-4.2c-.06,0-.14-.04-.14-.11v-.63c0-.07.07-.11.14-.11h4.86c.39,0,.59.2.59.64,0,.55-.05,1.54-.22,2.36ZM665.21,112.08c-.53,0-.68-.14-.68-.64v-2.76c0-.06.05-.11.12-.11h.79c.06,0,.13.04.13.11v.96h3.46v-.96c0-.06.05-.12.12-.12h.8c.06,0,.12.05.12.12v2.8c0,.4-.16.6-.67.6h-4.17ZM669.02,110.46h-3.46v.63c0,.1.05.15.17.15h3.12c.12,0,.17-.05.17-.15v-.63Z"/>
  </g>
  <line class="st4" x1="24.77" y1="71.25" x2="648.06" y2="71.25"/>
  <g>
    <path class="st11" d="M10.38,99.49c-1.14,0-1.93-.86-1.93-1.93s.78-1.93,1.93-1.93,1.96.9,1.96,1.93-.81,1.93-1.96,1.93ZM10.38,96.46c-.61,0-1.03.5-1.03,1.12s.42,1.14,1.03,1.14,1.05-.5,1.05-1.14-.43-1.12-1.05-1.12ZM10.38,102.74c-.48,0-.61-.15-.61-.57v-1.81c0-.06.06-.11.11-.11h.7c.06,0,.12.06.12.11v1.48c0,.1.04.13.14.13h3.68c.06,0,.12.04.12.1v.58c0,.06-.06.1-.12.1h-4.14ZM14.39,100.59c0,.07-.03.1-.1.1h-.71c-.07,0-.1-.04-.1-.11v-5.17c0-.07.03-.1.1-.1h.71c.07,0,.1.03.1.1v5.18Z"/>
    <path class="st11" d="M15.66,99.51c-.07,0-.11-.04-.11-.13v-.53c0-.07.04-.11.11-.11h6.96c.06,0,.12.06.12.11v.53c0,.06-.06.13-.12.13h-6.96ZM21.05,96.43c-.2.22-.49.41-.84.62.53.15,1.34.34,1.92.42.09,0,.14.06.1.16l-.18.44c-.02.06-.09.12-.18.1-.74-.09-1.84-.38-2.63-.66-.86.34-1.85.63-2.81.79-.09.02-.14-.03-.17-.09l-.14-.48c-.02-.06.02-.14.08-.14,1.62-.34,2.74-.71,3.56-1.21.13-.08.24-.14,0-.14h-2.92c-.07,0-.1-.04-.1-.11v-.54c0-.06.03-.1.1-.1h3.86c.42,0,.64.12.65.36,0,.16-.1.35-.3.57ZM19.14,102.9c-1.62,0-2.53-.54-2.53-1.41s.92-1.41,2.53-1.41,2.53.54,2.53,1.41-.9,1.41-2.53,1.41ZM19.14,100.79c-1.06,0-1.61.33-1.61.71s.55.7,1.61.7,1.62-.33,1.62-.7-.55-.71-1.62-.71Z"/>
    <path class="st11" d="M23.6,99.79l-.33-.38c-.1-.12-.06-.19.03-.26,1.18-.81,1.81-1.77,1.81-3.47,0-.07.06-.14.12-.14l.7.04c.07,0,.1.04.1.12,0,.45-.04.86-.11,1.23.26.9,1.08,1.66,1.7,1.98.08.04.09.1.03.19l-.3.43c-.06.08-.12.1-.21.05-.67-.33-1.24-.9-1.6-1.56-.38.7-.92,1.27-1.68,1.78-.14.09-.2.05-.26-.02ZM25.38,102.77c-.48,0-.61-.15-.61-.57v-1.82c0-.06.06-.11.11-.11h.7c.06,0,.12.06.12.11v1.5c0,.1.03.13.15.13h3.72c.06,0,.11.05.11.1v.57c0,.06-.06.1-.11.1h-4.19ZM29.43,100.6c0,.07-.03.1-.1.1h-.71c-.07,0-.1-.04-.1-.11v-5.18c0-.07.03-.1.1-.1h.71c.07,0,.1.03.1.1v5.19Z"/>
    <path class="st11" d="M31,99.47c-.06-.09,0-.17.08-.21,1.17-.49,2.21-1.3,2.51-1.88.04-.07.08-.12-.09-.12h-2.05c-.06,0-.11-.06-.11-.13v-.52c0-.06.06-.1.12-.1h2.68c.42,0,.66.11.66.4,0,.1-.06.28-.12.41-.15.3-.38.61-.67.92.37.33.93.66,1.32.82.12.04.14.12.07.22l-.22.38c-.05.1-.13.12-.25.07-.39-.14-1.1-.62-1.48-.97-.57.46-1.24.87-2,1.18-.06.02-.18.02-.23-.07l-.22-.42ZM32.12,96.1s-.12-.04-.12-.13v-.46c0-.07.08-.12.12-.12h1.87c.06,0,.13.06.13.13v.44c0,.06-.06.14-.13.14h-1.87ZM32.26,101.54c0-.76.93-1.34,2.42-1.34s2.4.58,2.4,1.34-.9,1.34-2.41,1.34-2.41-.57-2.41-1.34ZM33.24,101.54c0,.36.54.64,1.44.64s1.44-.28,1.44-.64-.53-.64-1.43-.64-1.45.28-1.45.64ZM34.9,97.81c0-.06.06-.1.11-.1h1.1v-2.3c0-.07.03-.1.1-.1h.71c.07,0,.1.03.1.1v4.41c0,.07-.03.11-.1.11h-.71c-.07,0-.1-.03-.1-.1v-1.38h-1.1c-.06,0-.11-.05-.11-.1v-.54Z"/>
    <path class="st11" d="M8.59,110.8l-.38-.35c-.07-.07-.06-.15.02-.24.7-.64,1.18-1.42,1.48-2.29.26-.78.36-1.55.34-2.5,0-.06.06-.12.11-.12l.71.02c.06,0,.1.06.1.12,0,.66-.05,1.25-.14,1.81.19,1.02.95,2.13,1.66,2.69.09.06.09.15.02.26l-.34.41c-.06.07-.15.09-.26.02-.54-.41-1.22-1.29-1.47-1.98-.38.89-1,1.71-1.58,2.17-.1.08-.19.08-.28,0ZM13.78,112.49c-.07,0-.1-.03-.1-.1v-4.23h-1.65c-.06,0-.11-.05-.11-.1v-.57c0-.06.06-.1.11-.1h1.65v-2.38c0-.07.03-.1.1-.1h.71c.07,0,.1.03.1.1v7.38c0,.07-.03.1-.1.1h-.71Z"/>
    <path class="st11" d="M20.89,110.11v2.21c0,.07-.04.11-.11.11h-.7c-.07,0-.11-.04-.11-.11v-2.21h-1.67v2.21c0,.07-.04.11-.11.11h-.7c-.07,0-.11-.04-.11-.11v-2.21h-1.73c-.06,0-.11-.06-.11-.12v-.52c0-.06.05-.13.11-.13h6.96c.06,0,.12.07.12.13v.52c0,.06-.06.12-.12.12h-1.73ZM17.15,108.62c-.42,0-.54-.14-.54-.49v-1.17c0-.34.11-.49.53-.49h3.51c.09,0,.1-.07.1-.17v-.4c0-.09,0-.09-.1-.09h-3.92c-.06,0-.11-.04-.11-.1v-.55c0-.06.06-.1.11-.1h4.37c.44,0,.54.11.54.47v1.18c0,.38-.1.47-.54.47h-3.49c-.09,0-.1.02-.1.1v.47c0,.1,0,.1.1.1h4.08c.06,0,.12.04.12.1v.53c0,.06-.07.12-.11.12h-4.56Z"/>
    <path class="st11" d="M23.36,110.57l-.33-.38c-.06-.07-.05-.18.04-.23,1.28-.9,2.12-2.33,2.31-3.45.03-.15.02-.2-.11-.2h-1.68c-.06,0-.09-.06-.09-.12v-.51c0-.08.03-.12.1-.12h2.13c.46,0,.65.15.65.43,0,.1,0,.23-.02.33-.11.6-.31,1.19-.61,1.76.32.58.93,1.31,1.29,1.57.12.09.1.16.02.25l-.3.38c-.07.1-.17.1-.27,0-.32-.23-.85-.86-1.19-1.42-.45.65-1.01,1.22-1.69,1.73-.06.06-.18.06-.24-.02ZM27.57,112.24c-.07,0-.11-.04-.11-.11v-3.85h-.95c-.06,0-.11-.05-.11-.1v-.55c0-.06.06-.1.11-.1h.95v-2.39c0-.07.04-.1.11-.1h.65c.07,0,.11.03.11.1v6.99c0,.07-.04.11-.11.11h-.65ZM29.05,112.51c-.07,0-.1-.03-.1-.1v-7.4c0-.07.04-.1.11-.1h.69c.07,0,.1.03.1.1v7.4c0,.07-.03.1-.1.1h-.7Z"/>
    <path class="st11" d="M34.61,109.03v.56h1.5c.44,0,.54.11.54.47v.82c0,.38-.1.48-.54.48h-3.37c-.09,0-.1.02-.1.1v.18c0,.1,0,.1.1.1h3.97c.06,0,.12.04.12.1v.5c0,.06-.07.11-.11.11h-4.45c-.42,0-.54-.14-.54-.48v-.81c0-.34.11-.48.53-.48h3.39c.09,0,.1,0,.1-.1v-.17c0-.12,0-.12-.1-.12h-3.81c-.06,0-.11-.04-.11-.1v-.52c0-.06.06-.11.11-.11h1.89v-.56h-3.03c-.07,0-.11-.04-.11-.11v-.49c0-.06.05-.12.11-.12h6.96c.06,0,.12.06.12.12v.49c0,.06-.06.11-.12.11h-3.05ZM31.47,107.93l-.14-.43c-.02-.06.03-.15.1-.16,1.28-.18,2.36-.44,3.25-.76.19-.06.07-.1,0-.1h-2.74c-.07,0-.11-.04-.11-.11v-.45c0-.06.04-.1.11-.1h3.63c.47,0,.69.16.69.36,0,.18-.12.35-.28.49-.15.14-.35.27-.6.39.48.09,1.01.18,1.56.23.09,0,.13.09.1.15l-.12.4c-.02.06-.09.12-.19.11-.59-.06-1.77-.29-2.54-.46-.78.23-1.67.4-2.51.52-.07,0-.19-.02-.22-.08ZM33.07,105.5s-.12-.05-.12-.12v-.41c0-.07.08-.12.12-.12h2.05c.06,0,.14.06.14.13v.39c0,.06-.06.13-.14.13h-2.05Z"/>
  </g>
  <text class="st2" transform="translate(183.1 153.13) rotate(2.31)"><tspan x="0" y="0">서류보완</tspan></text>
  <text class="st2" transform="translate(201.5 120.56)"><tspan x="0" y="0">No</tspan></text>
  <text class="st0" transform="translate(388.06 153.7)"><tspan x="0" y="0">보완</tspan></text>
  <g>
    <path class="st11" d="M323.02,97.43l-.36-.42c-.13-.13-.08-.21.04-.28,1.34-.91,2.03-1.86,2.03-3.77,0-.1.07-.16.13-.16l.79.04c.08,0,.12.05.12.14,0,.57-.05,1.06-.16,1.5.41.86,1.26,1.56,1.88,1.85.1.04.12.12.05.22l-.31.5c-.06.1-.14.13-.25.08-.72-.32-1.35-.87-1.79-1.56-.42.76-1.04,1.32-1.87,1.9-.14.11-.22.07-.3-.03ZM325.08,101.02c-.54,0-.78-.17-.78-.64v-1.85c0-.46.19-.65.65-.65h3.92c.54,0,.69.18.69.66v1.85c0,.46-.19.63-.65.63h-3.83ZM328.52,98.82c0-.1-.02-.12-.12-.12h-2.95c-.11,0-.13,0-.13.11v1.26c0,.11.02.12.13.12h2.95c.1,0,.12,0,.12-.12v-1.25ZM329.57,97.31c0,.08-.04.12-.13.12h-.79c-.06,0-.13-.05-.13-.13v-4.57c0-.06.06-.12.13-.12h.79c.08,0,.13.04.13.12v4.58Z"/>
    <path class="st11" d="M331.39,99.15l-.42-.4c-.08-.08-.07-.18.03-.28.78-.71,1.33-1.58,1.67-2.57.29-.86.41-1.67.38-2.73,0-.07.06-.14.13-.14l.8.03c.06,0,.12.06.12.13,0,.73-.04,1.35-.15,1.94.24,1.13,1.07,2.31,1.85,2.94.1.07.1.16.02.28l-.38.46c-.06.08-.17.1-.29.02-.58-.46-1.32-1.4-1.64-2.17-.43,1-1.13,1.95-1.78,2.48-.12.09-.22.09-.31,0ZM337.73,96.76v4.28c0,.08-.04.12-.12.12h-.8c-.08,0-.12-.04-.12-.12v-8.31c0-.08.04-.12.12-.12h.8c.08,0,.12.04.12.12v3.17h1.22c.06,0,.13.04.13.11v.63c0,.07-.06.13-.13.13h-1.22Z"/>
    <path class="st11" d="M340.65,96.78c-.4-.03-.65-.18-.65-.6v-2.67c0-.42.14-.57.6-.57h3.17c.08,0,.13.04.13.12v.6c0,.08-.04.12-.13.12h-2.58c-.11,0-.16.03-.16.16v1.75c0,.19.04.23.27.24.76.04,2.12-.04,3.09-.23.1-.03.17,0,.2.09l.1.5c.03.11-.06.17-.13.18-.95.24-2.75.36-3.92.31ZM341.59,101c-.53,0-.68-.15-.68-.63v-2.65c0-.06.05-.11.12-.11h.79c.06,0,.13.04.13.11v.82h3.2v-.85c0-.06.05-.12.12-.12h.8c.06,0,.12.05.12.12v2.71c0,.41-.16.6-.67.6h-3.91ZM345.14,99.38h-3.2v.62c0,.1.05.15.16.15h2.87c.11,0,.16-.05.16-.15v-.62ZM346.18,95.36v1.68c0,.08-.04.12-.12.12h-.8c-.08,0-.12-.04-.12-.14v-4.29c0-.08.04-.12.12-.12h.8c.08,0,.12.04.12.12v1.76h1.22c.06,0,.13.05.13.11v.64c0,.06-.06.12-.13.12h-1.22Z"/>
    <path class="st11" d="M349.19,97.43c-.53,0-.68-.15-.68-.63v-3.67c0-.06.05-.11.12-.11h.78c.06,0,.13.04.13.11v1.4h1.91v-1.41c0-.06.05-.12.12-.12h.79c.06,0,.12.05.12.12v.86h1.53v-1.25c0-.08.04-.12.12-.12h.8c.08,0,.12.04.12.12v5.9c0,.08-.04.12-.12.12h-.8c-.08,0-.12-.04-.12-.12v-2.02h-1.53v.22c0,.4-.16.6-.67.6h-2.6ZM351.44,95.36h-1.91v1.04c0,.1.05.15.16.15h1.58c.11,0,.16-.05.16-.15v-1.04ZM350.48,101c-.54,0-.69-.17-.69-.64v-1.85c0-.06.07-.13.14-.13h.76c.08,0,.14.07.14.13v1.49c0,.12.04.14.16.14h4.17c.06,0,.13.05.13.12v.64c0,.07-.06.11-.13.11h-4.68ZM353.99,95.8v-1.01h-1.53v1.01h1.53Z"/>
    <path class="st11" d="M331.18,109.78l-.37-.43c-.06-.08-.05-.2.04-.26,1.44-1.01,2.39-2.63,2.6-3.88.04-.17.03-.23-.13-.23h-1.89c-.06,0-.1-.06-.1-.13v-.58c0-.09.04-.14.11-.14h2.39c.51,0,.73.17.73.49,0,.11,0,.26-.03.37-.13.68-.35,1.34-.68,1.98.36.65,1.04,1.48,1.45,1.76.13.1.11.18.03.28l-.34.42c-.08.11-.19.11-.31,0-.36-.26-.95-.97-1.34-1.59-.5.73-1.13,1.38-1.9,1.94-.07.06-.2.06-.27-.02ZM335.92,111.67c-.08,0-.13-.04-.13-.13v-4.33h-1.07c-.06,0-.13-.05-.13-.12v-.62c0-.06.06-.11.13-.11h1.07v-2.69c0-.08.05-.12.13-.12h.73c.08,0,.13.04.13.12v7.87c0,.08-.04.13-.13.13h-.73ZM337.59,111.97c-.08,0-.12-.04-.12-.12v-8.33c0-.08.04-.12.13-.12h.77c.08,0,.12.04.12.12v8.33c0,.08-.04.12-.12.12h-.78Z"/>
    <path class="st11" d="M343.85,108.06v.63h1.68c.5,0,.61.13.61.53v.93c0,.42-.12.54-.61.54h-3.79c-.1,0-.11.02-.11.12v.2c0,.12,0,.12.12.12h4.47c.06,0,.14.05.14.12v.57c0,.06-.08.13-.13.13h-5.01c-.47,0-.6-.15-.6-.54v-.91c0-.39.13-.54.59-.54h3.82c.1,0,.11,0,.11-.11v-.19c0-.14,0-.14-.12-.14h-4.29c-.06,0-.13-.04-.13-.11v-.59c0-.06.06-.13.13-.13h2.12v-.63h-3.41c-.08,0-.13-.04-.13-.13v-.55c0-.07.05-.14.13-.14h7.84c.06,0,.13.07.13.14v.55c0,.06-.07.13-.13.13h-3.43ZM340.31,106.81l-.15-.49c-.03-.07.04-.17.12-.18,1.44-.21,2.66-.5,3.66-.86.22-.07.08-.12,0-.12h-3.09c-.08,0-.13-.04-.13-.13v-.5c0-.07.04-.11.13-.11h4.09c.53,0,.77.18.77.41,0,.21-.13.4-.32.55-.17.16-.4.31-.67.44.54.1,1.13.2,1.76.26.1,0,.14.1.12.17l-.13.45c-.03.07-.1.14-.22.13-.67-.07-1.99-.32-2.86-.52-.87.26-1.88.45-2.83.59-.08,0-.22-.02-.24-.09ZM342.11,104.08s-.13-.05-.13-.13v-.46c0-.08.09-.13.13-.13h2.3c.07,0,.15.07.15.14v.44c0,.07-.07.14-.15.14h-2.3Z"/>
  </g>
  <g>
    <path class="st10" d="M379.52,102.25c-.4-.03-.65-.18-.65-.6v-2.67c0-.42.14-.57.6-.57h3.17c.08,0,.13.04.13.12v.6c0,.08-.04.12-.13.12h-2.57c-.11,0-.16.03-.16.16v1.75c0,.19.04.23.27.24.76.04,2.12-.04,3.09-.23.1-.03.17,0,.2.09l.1.5c.03.11-.06.17-.13.18-.95.24-2.75.36-3.92.31ZM380.45,106.48c-.53,0-.68-.15-.68-.63v-2.65c0-.06.05-.11.12-.11h.79c.06,0,.13.04.13.11v.82h3.2v-.85c0-.06.05-.12.12-.12h.8c.06,0,.12.05.12.12v2.71c0,.41-.16.6-.68.6h-3.91ZM384,104.86h-3.2v.62c0,.1.05.15.16.15h2.87c.11,0,.16-.05.16-.15v-.62ZM385.04,100.83v1.68c0,.08-.04.12-.12.12h-.8c-.08,0-.12-.04-.12-.14v-4.29c0-.08.04-.12.12-.12h.8c.08,0,.12.04.12.12v1.76h1.22c.06,0,.13.05.13.11v.64c0,.06-.06.12-.13.12h-1.22Z"/>
    <path class="st10" d="M388.05,102.9c-.53,0-.68-.15-.68-.63v-3.67c0-.06.05-.11.12-.11h.78c.06,0,.13.04.13.11v1.4h1.91v-1.41c0-.06.05-.12.12-.12h.79c.06,0,.12.05.12.12v.86h1.53v-1.25c0-.08.04-.12.12-.12h.8c.08,0,.12.04.12.12v5.9c0,.08-.04.12-.12.12h-.8c-.08,0-.12-.04-.12-.12v-2.02h-1.53v.22c0,.4-.16.6-.68.6h-2.6ZM390.3,100.84h-1.91v1.04c0,.1.05.15.16.15h1.58c.11,0,.16-.05.16-.15v-1.04ZM389.34,106.48c-.54,0-.69-.17-.69-.64v-1.85c0-.06.07-.13.13-.13h.77c.08,0,.14.07.14.13v1.49c0,.12.04.14.16.14h4.17c.06,0,.13.05.13.12v.64c0,.07-.06.11-.13.11h-4.68ZM392.85,101.27v-1.01h-1.53v1.01h1.53Z"/>
    <path class="st10" d="M398.14,102.51c-.04-.1-.04-.2.08-.26,1.48-.62,2.5-1.58,2.84-2.66.06-.19.05-.25-.13-.25h-2.42c-.08,0-.13-.07-.13-.14v-.59c0-.08.04-.13.13-.13h3.03c.53,0,.72.15.72.54,0,.1-.06.4-.08.46-.46,1.65-1.63,2.81-3.53,3.59-.14.06-.23.05-.29-.07l-.23-.48ZM400.21,106.49c-.54,0-.68-.17-.68-.64v-1.88c0-.46.18-.65.64-.65h4.02c.54,0,.68.18.68.66v1.88c0,.46-.18.63-.64.63h-4.02ZM403.83,104.27c0-.1-.02-.12-.12-.12h-3.05c-.1,0-.12,0-.12.11v1.29c0,.11.02.12.12.12h3.05c.1,0,.12,0,.12-.12v-1.28ZM402.09,100.36c0-.06.06-.11.13-.11h1.61v-2.05c0-.08.04-.12.12-.12h.8c.08,0,.12.04.12.12v4.56c0,.08-.04.12-.12.12h-.8c-.08,0-.12-.04-.12-.12v-1.65h-1.61c-.07,0-.13-.04-.13-.11v-.64Z"/>
    <path class="st10" d="M410.65,102.84v1.47h3.39c.06,0,.13.07.13.14v.59c0,.06-.07.13-.13.13h-7.84c-.07,0-.13-.07-.13-.13v-.59c0-.1.04-.14.13-.14h3.41v-1.47h-1.71c-.48,0-.65-.22-.65-.64v-3.02c0-.46.19-.59.65-.59h4.94c.08,0,.13.04.13.12v.6c0,.08-.04.13-.13.13h-4.39c-.11,0-.16.05-.16.15v.7h4.44c.06,0,.13.05.13.12v.58c0,.07-.06.12-.13.12h-4.44v.73c0,.14.03.15.16.15h4.44c.1,0,.14,0,.14.11v.6c0,.1-.04.14-.11.14h-2.28Z"/>
  </g>
  <text class="st0" transform="translate(583.96 153.7)"><tspan x="0" y="0">보완</tspan></text>
  <g>
    <path class="st11" d="M434.77,97.33c-1.29,0-2.17-.97-2.17-2.17s.88-2.17,2.17-2.17,2.21,1.02,2.21,2.17-.91,2.17-2.21,2.17ZM434.77,93.92c-.68,0-1.16.57-1.16,1.26s.48,1.28,1.16,1.28,1.18-.56,1.18-1.28-.49-1.26-1.18-1.26ZM434.77,100.99c-.54,0-.68-.17-.68-.64v-2.03c0-.06.06-.13.13-.13h.78c.07,0,.13.06.13.13v1.67c0,.12.05.14.16.14h4.14c.06,0,.13.04.13.11v.65c0,.07-.07.11-.13.11h-4.66ZM439.29,98.57c0,.08-.04.12-.12.12h-.8c-.08,0-.12-.04-.12-.13v-5.82c0-.08.04-.12.12-.12h.8c.08,0,.12.04.12.12v5.83Z"/>
    <path class="st11" d="M440.71,97.35c-.08,0-.13-.04-.13-.14v-.59c0-.08.04-.13.13-.13h7.83c.06,0,.13.06.13.13v.59c0,.07-.07.14-.13.14h-7.83ZM446.78,93.88c-.23.24-.55.46-.95.7.59.17,1.51.38,2.16.48.1,0,.16.07.12.18l-.21.5c-.03.07-.1.14-.2.11-.83-.1-2.07-.43-2.96-.75-.96.39-2.08.71-3.16.89-.1.03-.16-.04-.19-.1l-.15-.54c-.03-.07.03-.15.09-.16,1.83-.39,3.09-.8,4.01-1.36.14-.09.27-.15,0-.15h-3.29c-.08,0-.12-.04-.12-.13v-.6c0-.07.04-.11.12-.11h4.35c.48,0,.72.14.73.41,0,.18-.12.4-.34.64ZM444.63,101.17c-1.83,0-2.85-.6-2.85-1.58s1.04-1.58,2.85-1.58,2.84.61,2.84,1.58-1.02,1.58-2.84,1.58ZM444.63,98.79c-1.2,0-1.82.37-1.82.8s.62.79,1.82.79,1.82-.37,1.82-.79-.62-.8-1.82-.8Z"/>
    <path class="st11" d="M449.68,97.44l-.36-.42c-.13-.13-.08-.21.04-.28,1.34-.91,2.03-1.86,2.03-3.77,0-.1.07-.16.13-.16l.79.04c.08,0,.12.05.12.14,0,.57-.05,1.06-.16,1.5.41.86,1.26,1.56,1.88,1.85.1.04.12.12.05.22l-.31.5c-.06.1-.14.13-.25.08-.72-.32-1.35-.87-1.79-1.56-.42.76-1.04,1.32-1.87,1.9-.14.11-.22.07-.3-.03ZM451.74,101.03c-.54,0-.78-.17-.78-.64v-1.85c0-.46.19-.65.65-.65h3.92c.54,0,.69.18.69.66v1.85c0,.46-.19.63-.65.63h-3.83ZM455.18,98.83c0-.1-.02-.12-.12-.12h-2.95c-.11,0-.13,0-.13.11v1.26c0,.11.02.12.13.12h2.95c.1,0,.12,0,.12-.12v-1.25ZM456.22,97.32c0,.08-.04.12-.13.12h-.79c-.06,0-.13-.05-.13-.13v-4.57c0-.06.06-.12.13-.12h.79c.08,0,.13.04.13.12v4.58Z"/>
    <path class="st11" d="M463.13,98.17c.06,0,.16,0,.17.09l.05.59c0,.1-.05.15-.12.16-1.33.19-3.77.35-5.47.32-.08,0-.14-.06-.14-.13v-.61c0-.07.05-.14.14-.14,1.71.05,3.89-.09,5.37-.28ZM462.55,95.23c0,1.27-.96,2.06-2.21,2.06s-2.18-.79-2.18-2.06.96-2.09,2.19-2.09,2.2.83,2.2,2.09ZM459.17,95.23c0,.77.5,1.24,1.18,1.24s1.2-.48,1.2-1.24-.49-1.23-1.2-1.23-1.18.48-1.18,1.23ZM464.76,101.05c0,.08-.04.12-.13.12h-.79c-.06,0-.13-.04-.13-.12v-8.31c0-.06.06-.12.13-.12h.79c.08,0,.13.04.13.12v8.31Z"/>
    <path class="st11" d="M471.59,97.09c.06,0,.16,0,.17.1l.05.58c0,.1-.05.14-.12.15-.61.1-1.41.17-2.29.22v2.6c0,.08-.06.14-.14.14h-.74c-.1,0-.14-.05-.14-.14v-2.57c-.76.03-1.52.04-2.17.03-.08,0-.13-.06-.13-.13v-.62c0-.08.04-.13.13-.13,1.71.04,3.89,0,5.37-.23ZM471.01,94.79c0,1.04-.91,1.77-2.18,1.77s-2.18-.73-2.18-1.77.92-1.76,2.18-1.76,2.18.73,2.18,1.76ZM467.66,94.81c0,.57.57.95,1.17.95.65,0,1.19-.38,1.19-.95s-.54-.93-1.19-.93c-.6,0-1.17.38-1.17.93ZM473.22,101.05c0,.08-.04.12-.13.12h-.79c-.06,0-.13-.04-.13-.12v-8.31c0-.06.06-.12.13-.12h.79c.08,0,.13.04.13.12v8.31Z"/>
    <path class="st11" d="M477.78,97.26v1.3c0,.07-.06.13-.13.13h-.75c-.07,0-.13-.06-.13-.13v-1.22c-.71.03-1.56.05-2.04.03-.07,0-.13-.07-.13-.14v-.56c0-.07.05-.13.13-.13,1.66,0,4.06-.07,5.39-.26.06,0,.14.03.15.1l.06.51c0,.1-.05.14-.12.17-.67.12-1.69.19-2.43.22ZM479.4,94.37c0,.94-.86,1.67-2.08,1.67s-2.06-.73-2.06-1.67.84-1.63,2.06-1.63,2.08.74,2.08,1.63ZM476.64,101.01c-.55,0-.69-.17-.69-.64v-1.29c0-.06.06-.13.13-.13h.77c.07,0,.13.06.13.13v.92c0,.12.04.14.17.14h4.59c.06,0,.13.05.13.12v.64c0,.07-.06.11-.13.11h-5.1ZM476.25,94.39c0,.5.49.86,1.07.86s1.08-.37,1.08-.86-.49-.85-1.08-.85-1.07.38-1.07.85ZM480.75,99.34c-.08,0-.12-.04-.12-.13v-.82h-1.54c-.06,0-.13-.05-.13-.12v-.57c0-.06.06-.11.13-.11h1.54v-4.87c0-.08.04-.12.12-.12h.8c.08,0,.12.04.12.12v6.48c0,.08-.04.13-.12.13h-.8Z"/>
    <path class="st11" d="M485.35,98.82v-.77c-.84-.17-1.45-.72-1.45-1.49,0-.9.9-1.52,1.98-1.52s1.99.62,1.99,1.52c0,.76-.66,1.32-1.51,1.47v.75c.79-.04,1.56-.1,2.2-.2.06,0,.16,0,.17.09l.05.57c0,.1-.04.14-.11.15-1.34.22-3.82.34-5.53.31-.08,0-.13-.06-.13-.13v-.59c0-.09.04-.14.13-.14.68.03,1.45,0,2.21-.02ZM483.44,94.73c-.06,0-.13-.07-.13-.14v-.5c0-.06.08-.14.14-.14h4.75c.07,0,.13.06.13.14v.51c0,.07-.06.13-.13.13h-4.76ZM484.65,93.57s-.14-.04-.14-.14v-.52c0-.08.1-.14.14-.14h2.39c.07,0,.14.07.14.14v.5c0,.08-.06.15-.14.15h-2.39ZM484.87,96.56c0,.42.42.73,1.01.73s1.02-.31,1.02-.73-.41-.72-1.02-.72-1.01.3-1.01.72ZM490.14,101.05c0,.08-.04.12-.13.12h-.79c-.06,0-.13-.04-.13-.12v-8.31c0-.06.06-.12.13-.12h.79c.08,0,.13.04.13.12v8.31Z"/>
    <path class="st11" d="M453.9,108.24l-.36-.42c-.13-.13-.08-.21.04-.28,1.34-.91,2.03-1.86,2.03-3.77,0-.1.07-.16.13-.16l.79.04c.08,0,.12.05.12.14,0,.57-.05,1.06-.16,1.5.41.86,1.26,1.56,1.88,1.85.1.04.12.12.05.22l-.31.5c-.06.1-.14.13-.25.08-.72-.32-1.35-.87-1.79-1.56-.42.76-1.04,1.32-1.87,1.9-.14.11-.22.07-.3-.03ZM455.97,111.83c-.54,0-.78-.17-.78-.64v-1.85c0-.46.19-.65.65-.65h3.92c.54,0,.69.18.69.66v1.85c0,.46-.19.63-.65.63h-3.83ZM459.4,109.63c0-.1-.02-.12-.12-.12h-2.95c-.11,0-.13,0-.13.11v1.26c0,.11.02.12.13.12h2.95c.1,0,.12,0,.12-.12v-1.25ZM460.45,108.12c0,.08-.04.12-.13.12h-.79c-.06,0-.13-.05-.13-.13v-4.57c0-.06.06-.12.13-.12h.79c.08,0,.13.04.13.12v4.58Z"/>
    <path class="st11" d="M467.36,108.97c.06,0,.16,0,.17.09l.05.59c0,.1-.05.15-.12.16-1.33.19-3.77.35-5.47.32-.08,0-.14-.06-.14-.13v-.61c0-.07.05-.14.14-.14,1.71.05,3.89-.09,5.37-.28ZM466.78,106.03c0,1.27-.96,2.06-2.21,2.06s-2.18-.79-2.18-2.06.96-2.09,2.19-2.09,2.2.83,2.2,2.09ZM463.4,106.03c0,.77.5,1.24,1.18,1.24s1.2-.48,1.2-1.24-.49-1.23-1.2-1.23-1.18.48-1.18,1.23ZM468.99,111.84c0,.08-.04.12-.13.12h-.79c-.06,0-.13-.04-.13-.12v-8.31c0-.06.06-.12.13-.12h.79c.08,0,.13.04.13.12v8.31Z"/>
  </g>
  <g>
    <path class="st11" d="M515.28,97.43l-.36-.42c-.13-.13-.08-.21.04-.28,1.34-.91,2.03-1.86,2.03-3.77,0-.1.07-.16.13-.16l.79.04c.08,0,.12.05.12.14,0,.57-.05,1.06-.16,1.5.41.86,1.26,1.56,1.88,1.85.1.04.12.12.05.22l-.31.5c-.06.1-.14.13-.25.08-.72-.32-1.35-.87-1.79-1.56-.42.76-1.04,1.32-1.87,1.9-.14.11-.22.07-.3-.03ZM517.34,101.02c-.54,0-.78-.17-.78-.64v-1.85c0-.46.19-.65.65-.65h3.92c.54,0,.69.18.69.66v1.85c0,.46-.19.63-.65.63h-3.83ZM520.78,98.82c0-.1-.02-.12-.12-.12h-2.95c-.11,0-.13,0-.13.11v1.26c0,.11.02.12.13.12h2.95c.1,0,.12,0,.12-.12v-1.25ZM521.83,97.31c0,.08-.04.12-.13.12h-.79c-.06,0-.13-.05-.13-.13v-4.57c0-.06.06-.12.13-.12h.79c.08,0,.13.04.13.12v4.58Z"/>
    <path class="st11" d="M528.74,98.16c.06,0,.16,0,.17.09l.05.59c0,.1-.05.15-.12.16-1.33.19-3.77.35-5.47.32-.08,0-.13-.06-.13-.13v-.61c0-.07.05-.14.13-.14,1.71.05,3.89-.09,5.37-.28ZM528.15,95.22c0,1.27-.96,2.06-2.21,2.06s-2.18-.79-2.18-2.06.96-2.09,2.19-2.09,2.2.83,2.2,2.09ZM524.78,95.22c0,.77.5,1.24,1.18,1.24s1.2-.48,1.2-1.24-.49-1.23-1.2-1.23-1.18.48-1.18,1.23ZM530.37,101.04c0,.08-.04.12-.13.12h-.79c-.06,0-.13-.04-.13-.12v-8.31c0-.06.06-.12.13-.12h.79c.08,0,.13.04.13.12v8.31Z"/>
    <path class="st11" d="M532.91,96.78c-.4-.03-.65-.18-.65-.6v-2.67c0-.42.14-.57.6-.57h3.17c.08,0,.13.04.13.12v.6c0,.08-.04.12-.13.12h-2.57c-.11,0-.16.03-.16.16v1.75c0,.19.04.23.27.24.76.04,2.12-.04,3.09-.23.1-.03.17,0,.2.09l.1.5c.03.11-.06.17-.13.18-.95.24-2.75.36-3.92.31ZM533.85,101c-.53,0-.68-.15-.68-.63v-2.65c0-.06.05-.11.12-.11h.79c.06,0,.13.04.13.11v.82h3.2v-.85c0-.06.05-.12.12-.12h.8c.06,0,.12.05.12.12v2.71c0,.41-.16.6-.68.6h-3.91ZM537.4,99.38h-3.2v.62c0,.1.05.15.16.15h2.87c.11,0,.16-.05.16-.15v-.62ZM538.44,95.36v1.68c0,.08-.04.12-.12.12h-.8c-.08,0-.12-.04-.12-.14v-4.29c0-.08.04-.12.12-.12h.8c.08,0,.12.04.12.12v1.76h1.22c.06,0,.13.05.13.11v.64c0,.06-.06.12-.13.12h-1.22Z"/>
    <path class="st11" d="M541.44,97.43c-.53,0-.68-.15-.68-.63v-3.67c0-.06.05-.11.12-.11h.78c.06,0,.13.04.13.11v1.4h1.91v-1.41c0-.06.05-.12.12-.12h.79c.06,0,.12.05.12.12v.86h1.53v-1.25c0-.08.04-.12.12-.12h.8c.08,0,.12.04.12.12v5.9c0,.08-.04.12-.12.12h-.8c-.08,0-.12-.04-.12-.12v-2.02h-1.53v.22c0,.4-.16.6-.68.6h-2.6ZM543.69,95.36h-1.91v1.04c0,.1.05.15.16.15h1.58c.11,0,.16-.05.16-.15v-1.04ZM542.74,101c-.54,0-.69-.17-.69-.64v-1.85c0-.06.07-.13.13-.13h.77c.08,0,.14.07.14.13v1.49c0,.12.04.14.16.14h4.17c.06,0,.13.05.13.12v.64c0,.07-.06.11-.13.11h-4.68ZM546.25,95.8v-1.01h-1.53v1.01h1.53Z"/>
    <path class="st11" d="M523.44,109.78l-.37-.43c-.06-.08-.05-.2.04-.26,1.44-1.01,2.39-2.63,2.6-3.88.04-.17.03-.23-.13-.23h-1.89c-.06,0-.1-.06-.1-.13v-.58c0-.09.04-.14.11-.14h2.39c.51,0,.73.17.73.49,0,.11,0,.26-.03.37-.13.68-.35,1.34-.68,1.98.36.65,1.04,1.48,1.45,1.76.14.1.11.18.03.28l-.34.42c-.08.11-.19.11-.31,0-.36-.26-.95-.97-1.34-1.59-.5.73-1.13,1.38-1.9,1.94-.07.06-.2.06-.27-.02ZM528.18,111.67c-.08,0-.13-.04-.13-.13v-4.33h-1.07c-.06,0-.13-.05-.13-.12v-.62c0-.06.06-.11.13-.11h1.07v-2.69c0-.08.04-.12.13-.12h.73c.08,0,.13.04.13.12v7.87c0,.08-.04.13-.13.13h-.73ZM529.85,111.97c-.08,0-.12-.04-.12-.12v-8.33c0-.08.04-.12.13-.12h.77c.08,0,.12.04.12.12v8.33c0,.08-.04.12-.12.12h-.78Z"/>
    <path class="st11" d="M536.11,108.06v.63h1.68c.5,0,.61.13.61.53v.93c0,.42-.12.54-.61.54h-3.79c-.1,0-.11.02-.11.12v.2c0,.12,0,.12.12.12h4.47c.06,0,.13.05.13.12v.57c0,.06-.08.13-.13.13h-5.01c-.47,0-.6-.15-.6-.54v-.91c0-.39.13-.54.59-.54h3.82c.1,0,.11,0,.11-.11v-.19c0-.14,0-.14-.12-.14h-4.29c-.06,0-.13-.04-.13-.11v-.59c0-.06.06-.13.13-.13h2.12v-.63h-3.41c-.08,0-.13-.04-.13-.13v-.55c0-.07.05-.14.13-.14h7.84c.06,0,.13.07.13.14v.55c0,.06-.07.13-.13.13h-3.43ZM532.57,106.81l-.15-.49c-.03-.07.04-.17.12-.18,1.44-.21,2.66-.5,3.66-.86.22-.07.08-.12,0-.12h-3.09c-.08,0-.13-.04-.13-.13v-.5c0-.07.04-.11.13-.11h4.09c.53,0,.77.18.77.41,0,.21-.13.4-.31.55-.17.16-.4.31-.68.44.54.1,1.13.2,1.76.26.1,0,.14.1.12.17l-.13.45c-.03.07-.1.14-.22.13-.67-.07-1.99-.32-2.86-.52-.87.26-1.88.45-2.83.59-.08,0-.22-.02-.24-.09ZM534.37,104.08s-.13-.05-.13-.13v-.46c0-.08.09-.13.13-.13h2.3c.07,0,.15.07.15.14v.44c0,.07-.07.14-.15.14h-2.3Z"/>
  </g>
  <path class="st10" d="M575.41,102.25c-.4-.03-.65-.18-.65-.6v-2.67c0-.42.14-.57.6-.57h3.17c.08,0,.13.04.13.12v.6c0,.08-.04.12-.13.12h-2.58c-.11,0-.16.03-.16.16v1.75c0,.19.04.23.27.24.76.04,2.12-.04,3.09-.23.1-.03.17,0,.2.09l.1.5c.03.11-.06.17-.13.18-.95.24-2.75.36-3.92.31ZM576.35,106.48c-.53,0-.68-.15-.68-.63v-2.65c0-.06.05-.11.12-.11h.79c.06,0,.13.04.13.11v.82h3.2v-.85c0-.06.05-.12.12-.12h.8c.06,0,.12.05.12.12v2.71c0,.41-.16.6-.67.6h-3.91ZM579.89,104.86h-3.2v.62c0,.1.05.15.16.15h2.87c.11,0,.16-.05.16-.15v-.62ZM580.94,100.83v1.68c0,.08-.04.12-.12.12h-.8c-.08,0-.12-.04-.12-.14v-4.29c0-.08.04-.12.12-.12h.8c.08,0,.12.04.12.12v1.76h1.22c.06,0,.13.05.13.11v.64c0,.06-.06.12-.13.12h-1.22Z"/>
  <path class="st10" d="M583.94,102.9c-.53,0-.68-.15-.68-.63v-3.67c0-.06.05-.11.12-.11h.78c.06,0,.13.04.13.11v1.4h1.91v-1.41c0-.06.05-.12.12-.12h.79c.06,0,.12.05.12.12v.86h1.53v-1.25c0-.08.04-.12.12-.12h.8c.08,0,.12.04.12.12v5.9c0,.08-.04.12-.12.12h-.8c-.08,0-.12-.04-.12-.12v-2.02h-1.53v.22c0,.4-.16.6-.67.6h-2.6ZM586.19,100.84h-1.91v1.04c0,.1.05.15.16.15h1.58c.11,0,.16-.05.16-.15v-1.04ZM585.24,106.48c-.54,0-.69-.17-.69-.64v-1.85c0-.06.07-.13.14-.13h.76c.08,0,.14.07.14.13v1.49c0,.12.04.14.16.14h4.17c.06,0,.13.05.13.12v.64c0,.07-.06.11-.13.11h-4.68ZM588.75,101.27v-1.01h-1.53v1.01h1.53Z"/>
  <path class="st10" d="M594.03,102.51c-.05-.1-.04-.2.08-.26,1.48-.62,2.5-1.58,2.83-2.66.06-.19.05-.25-.13-.25h-2.42c-.08,0-.13-.07-.13-.14v-.59c0-.08.05-.13.14-.13h3.02c.53,0,.72.15.72.54,0,.1-.06.4-.08.46-.46,1.65-1.63,2.81-3.53,3.59-.13.06-.22.05-.29-.07l-.22-.48ZM596.1,106.49c-.54,0-.68-.17-.68-.64v-1.88c0-.46.18-.65.64-.65h4.01c.54,0,.68.18.68.66v1.88c0,.46-.18.63-.64.63h-4.01ZM599.73,104.27c0-.1-.02-.12-.12-.12h-3.05c-.1,0-.12,0-.12.11v1.29c0,.11.02.12.12.12h3.05c.1,0,.12,0,.12-.12v-1.28ZM597.98,100.36c0-.06.06-.11.13-.11h1.61v-2.05c0-.08.04-.12.12-.12h.8c.08,0,.12.04.12.12v4.56c0,.08-.04.12-.12.12h-.8c-.08,0-.12-.04-.12-.12v-1.65h-1.61c-.07,0-.13-.04-.13-.11v-.64Z"/>
  <path class="st10" d="M606.54,102.84v1.47h3.39c.06,0,.13.07.13.14v.59c0,.06-.07.13-.13.13h-7.84c-.07,0-.13-.07-.13-.13v-.59c0-.1.04-.14.13-.14h3.41v-1.47h-1.71c-.48,0-.65-.22-.65-.64v-3.02c0-.46.19-.59.65-.59h4.94c.08,0,.13.04.13.12v.6c0,.08-.04.13-.13.13h-4.39c-.11,0-.16.05-.16.15v.7h4.44c.06,0,.13.05.13.12v.58c0,.07-.06.12-.13.12h-4.44v.73c0,.14.03.15.16.15h4.44c.1,0,.14,0,.14.11v.6c0,.1-.04.14-.11.14h-2.28Z"/>
  <g>
    <path class="st11" d="M69.12,102.22c-.06-.09-.02-.19.07-.25,1.11-.55,2.05-1.37,2.48-2.21.06-.1.06-.19-.1-.19h-1.98c-.06,0-.11-.06-.11-.12v-.53c0-.06.06-.1.12-.1h2.57c.47,0,.71.17.66.52-.02.12-.05.24-.1.35-.15.35-.35.68-.62,1.02.38.35.99.78,1.37.95.12.05.14.12.07.22l-.26.42c-.05.07-.13.09-.23.05-.37-.15-1.05-.64-1.46-1.06-.58.54-1.26,1.01-1.98,1.35-.06.03-.18.06-.26-.06l-.23-.38ZM71.07,106c-.47,0-.61-.14-.61-.56v-2.37c0-.06.05-.1.1-.1h.7c.06,0,.11.04.11.1v.74h2.9v-.77c0-.06.06-.1.11-.1h.7c.06,0,.11.05.11.1v2.42c0,.36-.15.54-.61.54h-3.53ZM74.29,104.56h-2.9v.56c0,.09.05.14.15.14h2.61c.1,0,.14-.05.14-.14v-.56ZM72.91,100.26c0-.06.06-.1.11-.1h1.26v-1.53c0-.07.04-.1.11-.1h.7c.06,0,.11.05.11.1v3.82c0,.06-.06.11-.11.11h-.7c-.07,0-.11-.04-.11-.11v-1.56h-1.26c-.06,0-.11-.05-.11-.1v-.54Z"/>
    <path class="st11" d="M80.33,103.34v2.61c0,.07-.04.11-.11.11h-.7c-.07,0-.11-.04-.11-.11v-2.61h-3.01c-.06,0-.11-.07-.11-.13v-.52c0-.06.05-.12.11-.12h6.96c.06,0,.12.06.12.12v.52c0,.06-.06.13-.12.13h-3.03ZM77.07,101.81l-.27-.51c-.03-.07,0-.15.09-.18,1.51-.42,2.43-1.14,2.56-2.46,0-.07.06-.14.14-.14l.67.02c.07,0,.11.04.11.13,0,.16-.02.3-.05.44.3.87,1.4,1.58,2.55,1.86.07.02.13.08.1.15l-.24.53c-.02.07-.08.1-.17.08-1.03-.19-2.17-.87-2.63-1.61-.51.82-1.45,1.41-2.67,1.72-.07.02-.16.02-.19-.03Z"/>
  </g>
  <g>
    <path class="st11" d="M120.78,97.92c-1.14,0-1.93-.86-1.93-1.93s.78-1.93,1.93-1.93,1.96.9,1.96,1.93-.81,1.93-1.96,1.93ZM120.78,94.89c-.61,0-1.03.5-1.03,1.12s.42,1.14,1.03,1.14,1.05-.5,1.05-1.14-.43-1.12-1.05-1.12ZM120.78,101.17c-.48,0-.61-.15-.61-.57v-1.81c0-.06.06-.11.11-.11h.7c.06,0,.12.06.12.11v1.48c0,.1.04.13.14.13h3.68c.06,0,.12.04.12.1v.58c0,.06-.06.1-.12.1h-4.14ZM124.79,99.02c0,.07-.03.1-.1.1h-.71c-.07,0-.1-.04-.1-.11v-5.17c0-.07.03-.1.1-.1h.71c.07,0,.1.03.1.1v5.18Z"/>
    <path class="st11" d="M126.06,97.94c-.07,0-.11-.04-.11-.13v-.53c0-.07.04-.11.11-.11h6.96c.06,0,.12.06.12.11v.53c0,.06-.06.13-.12.13h-6.96ZM131.45,94.86c-.2.22-.49.41-.84.62.53.15,1.34.34,1.92.42.09,0,.14.06.1.16l-.18.44c-.02.06-.09.12-.18.1-.74-.09-1.84-.38-2.63-.66-.86.34-1.85.63-2.81.79-.09.02-.14-.03-.17-.09l-.14-.48c-.02-.06.02-.14.08-.14,1.62-.34,2.74-.71,3.56-1.21.13-.08.24-.14,0-.14h-2.92c-.07,0-.1-.04-.1-.11v-.54c0-.06.03-.1.1-.1h3.86c.42,0,.64.12.65.36,0,.16-.1.35-.3.57ZM129.53,101.33c-1.62,0-2.53-.54-2.53-1.41s.92-1.41,2.53-1.41,2.53.54,2.53,1.41-.9,1.41-2.53,1.41ZM129.53,99.22c-1.06,0-1.61.33-1.61.71s.55.7,1.61.7,1.62-.33,1.62-.7-.55-.71-1.62-.71Z"/>
    <path class="st11" d="M137.51,98.54v2.61c0,.07-.04.11-.11.11h-.7c-.07,0-.11-.04-.11-.11v-2.61h-3.01c-.06,0-.11-.07-.11-.13v-.52c0-.06.05-.12.11-.12h6.96c.06,0,.12.06.12.12v.52c0,.06-.06.13-.12.13h-3.03ZM134.26,97.01l-.27-.51c-.03-.07,0-.15.09-.18,1.51-.42,2.43-1.14,2.56-2.46,0-.07.06-.14.14-.14l.67.02c.07,0,.11.04.11.13,0,.16-.02.3-.05.44.3.87,1.4,1.58,2.55,1.86.07.02.13.08.1.15l-.24.53c-.02.07-.08.1-.17.08-1.03-.19-2.17-.87-2.63-1.61-.51.82-1.45,1.41-2.67,1.72-.07.02-.16.02-.19-.03Z"/>
    <path class="st11" d="M145.03,98.54v2.61c0,.07-.04.11-.11.11h-.7c-.07,0-.11-.04-.11-.11v-2.61h-3.01c-.06,0-.11-.07-.11-.13v-.52c0-.06.05-.12.11-.12h6.96c.06,0,.12.06.12.12v.52c0,.06-.06.13-.12.13h-3.03ZM141.78,97.01l-.27-.51c-.03-.07,0-.15.09-.18,1.51-.42,2.43-1.14,2.56-2.46,0-.07.06-.14.14-.14l.67.02c.07,0,.11.04.11.13,0,.16-.02.3-.05.44.3.87,1.4,1.58,2.55,1.86.07.02.13.08.1.15l-.24.53c-.02.07-.08.1-.17.08-1.03-.19-2.17-.87-2.63-1.61-.51.82-1.45,1.41-2.67,1.72-.07.02-.16.02-.19-.03Z"/>
    <path class="st11" d="M150.13,98.07c-.47,0-.58-.12-.58-.54v-1.28c0-.42.1-.52.58-.52h3.5c.1,0,.12,0,.12-.13v-.62c0-.12-.02-.11-.12-.11h-3.94c-.06,0-.1-.06-.1-.11v-.54c0-.06.05-.1.1-.1h4.38c.45,0,.58.11.58.53v1.29c0,.42-.13.53-.58.53h-3.51c-.1,0-.11,0-.11.11v.62c0,.12.02.13.12.13h4.14c.06,0,.11.04.11.1v.54c0,.06-.07.1-.11.1h-1.04v1.21h1.91c.06,0,.12.07.12.13v.5c0,.06-.06.12-.12.12h-6.96c-.06,0-.11-.06-.11-.12v-.5c0-.06.05-.13.11-.13h1.91v-1.21h-.4ZM152.77,99.28v-1.21h-1.34v1.21h1.34Z"/>
    <path class="st11" d="M130.97,107.01c-.46-.02-.58-.21-.58-.58v-2.74c0-.06.06-.12.11-.12h.69c.06,0,.12.06.12.12v2.42c0,.1.03.12.15.13.69.04,1.83-.03,2.82-.24.06,0,.14.02.14.08l.08.52c0,.06-.03.1-.09.11-.96.26-2.52.34-3.45.3ZM131.73,110.79c-.47,0-.61-.14-.61-.56v-2.4c0-.06.05-.1.1-.1h.7c.06,0,.11.04.11.1v.75h2.85v-.78c0-.06.05-.1.1-.1h.71c.06,0,.1.05.1.1v2.45c0,.36-.14.54-.6.54h-3.48ZM134.89,109.33h-2.85v.58c0,.09.05.14.14.14h2.56c.1,0,.14-.05.14-.14v-.58ZM135.8,105.79v1.42c0,.07-.03.11-.1.11h-.71c-.07,0-.1-.04-.1-.12v-3.76c0-.07.03-.1.1-.1h.71c.07,0,.1.03.1.1v1.58h1.09c.06,0,.11.04.11.1v.57c0,.06-.06.1-.11.1h-1.09Z"/>
    <path class="st11" d="M141.28,108.32v2.44c0,.07-.04.11-.11.11h-.7c-.07,0-.11-.04-.11-.11v-2.44h-3.02c-.06,0-.11-.06-.11-.12v-.53c0-.06.05-.12.11-.12h6.96c.06,0,.12.06.12.12v.53c0,.06-.06.12-.12.12h-3.02ZM138.9,106.65c-.47,0-.61-.13-.61-.57v-2.63c0-.06.05-.1.1-.1h.7c.06,0,.11.04.11.1v.9h3.2v-.9c0-.06.05-.1.1-.1h.71c.06,0,.1.05.1.1v2.65c0,.35-.14.54-.6.54h-3.83ZM142.41,105.12h-3.2v.65c0,.1.03.12.13.12h2.94c.1,0,.13-.02.13-.12v-.65Z"/>
  </g>
  <g>
    <path class="st11" d="M183.88,104.39l-.38-.35c-.07-.07-.06-.15.02-.24.7-.64,1.18-1.42,1.48-2.29.26-.78.36-1.55.34-2.5,0-.06.06-.12.11-.12l.71.02c.06,0,.1.06.1.12,0,.66-.05,1.26-.14,1.81.19,1.02.95,2.13,1.66,2.69.09.06.09.15.02.26l-.34.41c-.06.07-.15.09-.26.02-.54-.41-1.22-1.29-1.47-1.98-.38.89-1,1.71-1.58,2.17-.1.08-.19.08-.28,0ZM189.07,106.08c-.07,0-.1-.03-.1-.1v-4.23h-1.65c-.06,0-.11-.05-.11-.1v-.57c0-.06.06-.1.11-.1h1.65v-2.38c0-.07.03-.1.1-.1h.71c.07,0,.1.03.1.1v7.38c0,.07-.03.1-.1.1h-.71Z"/>
    <path class="st11" d="M196.19,103.7v2.21c0,.07-.04.11-.11.11h-.7c-.07,0-.11-.04-.11-.11v-2.21h-1.67v2.21c0,.07-.04.11-.11.11h-.7c-.07,0-.11-.04-.11-.11v-2.21h-1.73c-.06,0-.11-.06-.11-.12v-.52c0-.06.05-.13.11-.13h6.96c.06,0,.12.07.12.13v.52c0,.06-.06.12-.12.12h-1.73ZM192.44,102.21c-.42,0-.54-.14-.54-.49v-1.17c0-.34.11-.49.53-.49h3.51c.09,0,.1-.07.1-.17v-.4c0-.09,0-.09-.1-.09h-3.92c-.06,0-.11-.04-.11-.1v-.55c0-.06.06-.1.11-.1h4.37c.44,0,.54.11.54.47v1.18c0,.38-.1.47-.54.47h-3.49c-.09,0-.1.02-.1.1v.47c0,.1,0,.1.1.1h4.08c.06,0,.12.04.12.1v.53c0,.06-.07.12-.11.12h-4.56Z"/>
    <path class="st11" d="M198.82,102.42c-.04-.09-.03-.18.07-.23,1.31-.55,2.22-1.4,2.52-2.37.06-.17.05-.22-.11-.22h-2.15c-.07,0-.11-.06-.11-.13v-.53c0-.07.04-.11.12-.11h2.69c.47,0,.64.14.64.48,0,.09-.06.35-.07.41-.41,1.46-1.45,2.49-3.13,3.19-.12.06-.2.04-.26-.06l-.2-.42ZM200.66,105.96c-.48,0-.61-.15-.61-.57v-1.67c0-.41.16-.58.57-.58h3.57c.48,0,.61.16.61.58v1.67c0,.41-.16.56-.57.56h-3.57ZM203.88,103.99c0-.09-.02-.1-.1-.1h-2.71c-.09,0-.1,0-.1.1v1.14c0,.1.02.1.1.1h2.71c.09,0,.1,0,.1-.1v-1.14ZM202.33,100.52c0-.06.06-.1.12-.1h1.43v-1.82c0-.07.03-.1.1-.1h.71c.07,0,.1.03.1.1v4.05c0,.07-.03.1-.1.1h-.71c-.07,0-.1-.03-.1-.1v-1.46h-1.43c-.06,0-.12-.04-.12-.1v-.57Z"/>
    <path class="st11" d="M209.94,102.72v1.3h3.01c.06,0,.12.06.12.13v.52c0,.06-.06.12-.12.12h-6.96c-.06,0-.11-.06-.11-.12v-.52c0-.09.04-.13.11-.13h3.03v-1.3h-1.52c-.42,0-.58-.19-.58-.57v-2.69c0-.41.17-.52.58-.52h4.39c.07,0,.11.03.11.1v.54c0,.07-.04.11-.11.11h-3.9c-.1,0-.14.05-.14.14v.62h3.94c.06,0,.11.05.11.1v.52c0,.06-.06.1-.11.1h-3.94v.65c0,.12.02.14.14.14h3.94c.09,0,.13,0,.13.1v.54c0,.09-.04.12-.1.12h-2.02Z"/>
  </g>
  <text class="st1" transform="translate(240.72 19.5)"><tspan x="0" y="0">신청인에게 인증심사 결과 전달</tspan></text>
  <text class="st1" transform="translate(431.37 19.5)"><tspan x="0" y="0">신청인에게 인증심의 결과 전달</tspan></text>
  <circle class="st11" cx="76.28" cy="71.25" r="4.25"/>
  <circle class="st11" cx="137" cy="71.25" r="4.25"/>
  <circle class="st11" cx="198.8" cy="71.25" r="4.25"/>
  <circle class="st3" cx="198.8" cy="138" r="4.25"/>
  <circle class="st3" cx="303.32" cy="30.98" r="4.25"/>
  <circle class="st3" cx="496.72" cy="30.98" r="4.25"/>
  <circle class="st11" cx="265.9" cy="71.25" r="4.25"/>
  <circle class="st11" cx="339.31" cy="71.25" r="4.25"/>
  <circle class="st12" cx="396.52" cy="71.25" r="4.25"/>
  <circle class="st11" cx="461.86" cy="71.25" r="4.25"/>
  <circle class="st11" cx="531.57" cy="71.25" r="4.25"/>
  <circle class="st12" cx="592.42" cy="71.25" r="4.25"/>
  <circle class="st11" cx="648.06" cy="71.25" r="4.25"/>
  <rect class="st11" x="19.04" y="67.29" width="7.93" height="7.93" transform="translate(-43.65 37.13) rotate(-45)"/>
  <g>
    <line class="st6" x1="303.32" y1="71.25" x2="303.32" y2="70.25"/>
    <line class="st7" x1="303.32" y1="68.22" x2="303.32" y2="40.73"/>
    <line class="st6" x1="303.32" y1="39.72" x2="303.32" y2="38.72"/>
  </g>
  <g>
    <line class="st6" x1="198.8" y1="127.89" x2="198.8" y2="126.89"/>
    <line class="st5" x1="198.8" y1="124.87" x2="198.8" y2="109.71"/>
    <line class="st6" x1="198.8" y1="108.69" x2="198.8" y2="107.69"/>
    <polygon class="st3" points="201.29 127.16 198.8 131.48 196.3 127.16 201.29 127.16"/>
  </g>
  <g>
    <line class="st6" x1="169.98" y1="78.36" x2="169.98" y2="79.36"/>
    <line class="st8" x1="169.98" y1="81.35" x2="169.98" y2="136"/>
    <polyline class="st6" points="169.98 137 169.98 138 170.98 138"/>
    <line class="st9" x1="172.79" y1="138" x2="190" y2="138"/>
    <line class="st6" x1="190.91" y1="138" x2="191.91" y2="138"/>
    <polygon class="st3" points="167.49 79.09 169.98 74.77 172.47 79.09 167.49 79.09"/>
  </g>
  <text class="st2" transform="translate(398.29 120.56)"><tspan x="0" y="0">No</tspan></text>
  <circle class="st3" cx="395.59" cy="138" r="4.25"/>
  <g>
    <line class="st6" x1="395.59" y1="127.89" x2="395.59" y2="126.89"/>
    <line class="st5" x1="395.59" y1="124.87" x2="395.59" y2="109.71"/>
    <line class="st6" x1="395.59" y1="108.69" x2="395.59" y2="107.69"/>
    <polygon class="st3" points="398.08 127.16 395.59 131.48 393.1 127.16 398.08 127.16"/>
  </g>
  <g>
    <line class="st6" x1="366.78" y1="78.36" x2="366.78" y2="79.36"/>
    <line class="st8" x1="366.78" y1="81.35" x2="366.78" y2="136"/>
    <polyline class="st6" points="366.78 137 366.78 138 367.78 138"/>
    <line class="st9" x1="369.59" y1="138" x2="386.8" y2="138"/>
    <line class="st6" x1="387.7" y1="138" x2="388.7" y2="138"/>
    <polygon class="st3" points="364.28 79.09 366.78 74.77 369.27 79.09 364.28 79.09"/>
  </g>
  <text class="st2" transform="translate(593 120.56)"><tspan x="0" y="0">No</tspan></text>
  <circle class="st3" cx="590.29" cy="138" r="4.25"/>
  <g>
    <line class="st6" x1="590.29" y1="127.89" x2="590.29" y2="126.89"/>
    <line class="st5" x1="590.29" y1="124.87" x2="590.29" y2="109.71"/>
    <line class="st6" x1="590.29" y1="108.69" x2="590.29" y2="107.69"/>
    <polygon class="st3" points="592.79 127.16 590.29 131.48 587.8 127.16 592.79 127.16"/>
  </g>
  <g>
    <line class="st6" x1="561.48" y1="78.36" x2="561.48" y2="79.36"/>
    <line class="st8" x1="561.48" y1="81.35" x2="561.48" y2="136"/>
    <polyline class="st6" points="561.48 137 561.48 138 562.48 138"/>
    <line class="st9" x1="564.29" y1="138" x2="581.5" y2="138"/>
    <line class="st6" x1="582.4" y1="138" x2="583.4" y2="138"/>
    <polygon class="st3" points="558.98 79.09 561.48 74.77 563.97 79.09 558.98 79.09"/>
  </g>
  <g>
    <line class="st6" x1="496.72" y1="71.25" x2="496.72" y2="70.25"/>
    <line class="st7" x1="496.72" y1="68.22" x2="496.72" y2="40.73"/>
    <line class="st6" x1="496.72" y1="39.72" x2="496.72" y2="38.72"/>
  </g>
</svg>