<?xml version="1.0" encoding="UTF-8"?>
<svg id="_레이어_1" data-name="레이어_1" xmlns="http://www.w3.org/2000/svg" version="1.1" viewBox="0 0 1920 1116.77">
  <!-- Generator: Adobe Illustrator 29.6.0, SVG Export Plug-In . SVG Version: 2.1.1 Build 207)  -->
  <defs>
    <style>
      .st0 {
        letter-spacing: -.06em;
      }

      .st0, .st1, .st2 {
        font-size: 22.5px;
      }

      .st0, .st1, .st2, .st3, .st4, .st5, .st6 {
        font-family: NanumGothic, NanumGothic;
      }

      .st1 {
        letter-spacing: -.04em;
      }

      .st3 {
        font-size: 19.4px;
      }

      .st4, .st6 {
        font-size: 22px;
      }

      .st7 {
        stroke-width: 2px;
      }

      .st7, .st8 {
        fill: none;
        stroke: #000;
        stroke-miterlimit: 10;
      }

      .st9 {
        fill: #ffc364;
      }

      .st5 {
        font-size: 23.06px;
      }

      .st6 {
        glyph-orientation-vertical: 0deg;
        letter-spacing: .74em;
        text-orientation: upright;
        writing-mode: tb;
      }

      .st8 {
        stroke-width: 3px;
      }

      .st10 {
        fill: #ffe5c0;
      }

      .st11 {
        font-family: NanumGothicOTFBold-KSCpc-EUC-H, NanumGothicOTF;
        font-size: 30.25px;
      }
    </style>
  </defs>
  <rect class="st9" x="57.35" y="697.41" width="94.27" height="380.79"/>
  <rect class="st10" x="57.35" y="288.55" width="94.27" height="408.89"/>
  <rect class="st9" x="151.61" y="1008.52" width="1711.87" height="69.66"/>
  <rect class="st10" x="151.61" y="628.82" width="1711.87" height="69.66"/>
  <text class="st5" transform="translate(164.63 230.87)"><tspan x="0" y="0">구분</tspan></text>
  <text class="st2" transform="translate(755.47 197.6)"><tspan x="0" y="0">지역 인증</tspan></text>
  <text class="st11" transform="translate(95.89 75.79)"><tspan x="0" y="0">지역 및 개별시설(공원, 교통수당, 여객시설, 도로) 인증</tspan></text>
  <text class="st0" transform="translate(345.72 263.33)"><tspan x="0" y="0">10만m²이상 ~ 200만m²미만 </tspan></text>
  <text class="st0" transform="translate(667.9 263.33)"><tspan x="0" y="0">200만m²이상 ~ 300만m²미만 </tspan></text>
  <text class="st1" transform="translate(1063.56 263.33)"><tspan x="0" y="0">300만m²이상</tspan></text>
  <text class="st2" transform="translate(1313.24 263.33)"><tspan x="0" y="0">공원,교통수단,여객시설,도로</tspan></text>
  <text class="st3" transform="translate(1772.23 130.99)"><tspan x="0" y="0">[단위:만원]</tspan></text>
  <text class="st2" transform="translate(1386.43 195.87)"><tspan x="0" y="0">개별시설 인증</tspan></text>
  <text class="st2" transform="translate(1718.73 229.23)"><tspan x="0" y="0">비고</tspan></text>
  <g>
    <path d="M1696.83,385.09c-.16,0-.28,0-.36-.01-.08,0-.14-.03-.18-.07-.04-.04-.06-.09-.07-.18,0-.08-.01-.2-.01-.36l.02-.48c0-.19.06-.34.18-.46l3.63-4c2.7-2.92,4.05-5.13,4.05-6.64,0-.88-.29-1.61-.88-2.2-.57-.57-1.28-.86-2.13-.86-1.19,0-2.43.33-3.72.99-.21.1-.32.06-.35-.13l-.13-.73c-.04-.25.03-.4.22-.46.75-.34,1.42-.59,2.02-.75s1.22-.24,1.85-.24c1.41,0,2.53.35,3.37,1.06.94.76,1.41,1.85,1.41,3.26,0,.54-.13,1.14-.39,1.78-.26.65-.63,1.32-1.1,2.02-.29.41-.71.95-1.24,1.61-.54.66-1.15,1.36-1.84,2.11-.51.56-1.02,1.12-1.53,1.69s-1.02,1.14-1.53,1.69h7.7c.21,0,.31.1.31.31v.75c0,.21-.1.31-.31.31h-8.97Z"/>
    <path d="M1710.72,384.76c-.21-.07-.31-.21-.31-.4v-.92c0-.25.1-.32.31-.22.53.25,1.04.43,1.55.53s1.06.15,1.66.15c1.29,0,2.34-.32,3.14-.95.88-.67,1.32-1.64,1.32-2.9,0-2.48-1.42-3.72-4.25-3.72-.56,0-1.06.03-1.51.09s-.94.16-1.49.31c-.16.04-.29.03-.39-.06-.1-.08-.15-.2-.15-.36l.13-7.02c0-.31.03-.49.08-.54.05-.05.23-.08.54-.08h7.52c.21,0,.31.1.31.31v.73c0,.21-.1.31-.31.31h-6.64c-.01.92-.03,1.83-.05,2.71-.02.88-.04,1.78-.05,2.71.72-.28,1.59-.42,2.62-.42,1.54,0,2.79.42,3.74,1.25.95.87,1.43,2.02,1.43,3.48,0,1.77-.55,3.15-1.65,4.11-1.06.92-2.5,1.39-4.33,1.39-.66,0-1.23-.04-1.72-.11s-.98-.2-1.5-.37Z"/>
    <path d="M1723.85,369.65c0-.62.12-1.03.35-1.24s.68-.32,1.32-.32h6.05c.35,0,.63.02.85.07.21.04.38.12.51.24.12.12.21.28.25.48.04.21.07.46.07.77v6.8c0,.62-.12,1.03-.35,1.24s-.68.32-1.32.32h-6.05c-.35,0-.63-.02-.85-.07-.21-.04-.38-.13-.51-.25-.12-.12-.21-.29-.25-.48s-.07-.45-.07-.76v-6.8ZM1725.9,369.41c-.21,0-.35.04-.42.12-.07.08-.11.23-.11.45v6.14c0,.22.04.37.11.45.07.08.21.12.42.12h5.3c.21,0,.35-.04.42-.12.07-.08.11-.23.11-.45v-6.14c0-.22-.04-.37-.11-.45-.07-.08-.21-.12-.42-.12h-5.3ZM1739.45,386.48c0,.09-.04.15-.11.2s-.15.07-.22.07h-11.2c-.69,0-1.14-.13-1.35-.4-.21-.26-.32-.7-.32-1.3v-4.29c0-.21.1-.31.31-.31h.9c.21,0,.31.1.31.31v4.2c0,.21.03.33.1.38.07.05.2.08.41.08h10.85c.07,0,.15.03.22.08s.11.11.11.19v.79ZM1738.46,381.16c0,.21-.1.31-.31.31h-.9c-.21,0-.31-.1-.31-.31v-13.99c0-.21.1-.31.31-.31h.9c.21,0,.31.1.31.31v6.29h3.04c.09,0,.16.03.23.08s.1.12.1.21v.75c0,.07-.03.14-.1.2s-.14.09-.23.09h-3.04v6.38Z"/>
    <path d="M1749.26,382.06c-.07,0-.14-.03-.2-.1-.06-.07-.09-.14-.09-.23v-3.54c-.46.03-.94.05-1.45.07s-1.02.03-1.51.04c-.49.01-.96.03-1.39.03-.43,0-.8,0-1.09-.01-.09,0-.16-.03-.23-.09s-.1-.12-.1-.2v-.75c0-.09.03-.16.1-.21s.14-.08.23-.08c.43,0,.93,0,1.52-.01.59,0,1.19-.02,1.8-.03.62-.01,1.21-.03,1.78-.05.57-.02,1.05-.05,1.45-.08.51-.03,1.09-.07,1.72-.13.63-.06,1.26-.12,1.89-.2s1.23-.15,1.79-.23c.56-.08,1.04-.16,1.42-.23.07-.01.14,0,.21.03.07.04.11.08.12.14l.11.75c.02.18-.07.29-.26.33-.94.16-1.99.32-3.16.47-1.17.15-2.31.27-3.44.34v3.63c0,.09-.03.17-.08.23-.05.07-.12.1-.21.1h-.95ZM1754.71,371.34c0,.56-.12,1.08-.37,1.56-.25.48-.6.91-1.04,1.26s-.98.65-1.6.86c-.62.21-1.28.32-2,.32s-1.36-.1-1.96-.31c-.6-.21-1.12-.49-1.56-.86-.44-.37-.79-.79-1.03-1.28-.25-.48-.38-1-.38-1.56,0-.62.12-1.17.38-1.67.25-.5.59-.92,1.03-1.28.44-.35.96-.62,1.56-.8.6-.18,1.25-.27,1.96-.27s1.31.1,1.91.29,1.13.46,1.6.8c.46.34.83.77,1.1,1.26.27.5.41,1.06.41,1.67ZM1753.26,371.32c0-.44-.1-.83-.29-1.17-.19-.34-.45-.62-.77-.85-.32-.23-.7-.4-1.13-.52-.43-.12-.89-.18-1.38-.18s-.96.06-1.38.18c-.43.12-.79.29-1.1.53-.31.23-.55.52-.72.85s-.26.71-.26,1.16c0,.84.32,1.5.96,2,.64.5,1.48.75,2.52.75.48,0,.94-.07,1.38-.21.43-.14.81-.33,1.13-.57s.58-.53.77-.87c.19-.34.29-.7.29-1.1ZM1760.43,386.48c0,.09-.04.15-.11.2-.07.04-.15.07-.22.07h-11.97c-.69,0-1.14-.13-1.35-.38-.21-.26-.32-.69-.32-1.29v-2.77c0-.21.1-.31.31-.31h.9c.21,0,.31.1.31.31v2.66c0,.21.03.33.1.38.07.05.2.08.41.08h11.62c.07,0,.15.03.22.08.07.05.11.11.11.19v.79ZM1758.39,379.13v-11.97c0-.21.1-.31.31-.31h.9c.21,0,.31.1.31.31v15.73c0,.21-.1.31-.31.31h-.9c-.21,0-.31-.1-.31-.31v-2.44h-4.4c-.19,0-.29-.09-.29-.26v-.79c0-.18.1-.26.29-.26h4.4Z"/>
    <path d="M1770.8,368.26c.18,0,.28.02.3.04.02.03,0,.13-.05.31l-6.14,17.73c-.06.15-.1.23-.13.25-.03.02-.12.03-.29.03h-.93c-.18,0-.27-.01-.3-.04-.02-.03,0-.12.06-.29l6.14-17.71c.06-.16.11-.26.14-.29.04-.03.15-.04.34-.04h.86Z"/>
    <path d="M1783.38,372.14c0,.69-.13,1.32-.41,1.9s-.64,1.08-1.11,1.51c-.47.43-1.02.76-1.65,1s-1.3.36-2.02.36-1.36-.12-1.97-.35c-.61-.23-1.14-.56-1.61-.98-.46-.42-.83-.92-1.09-1.51s-.4-1.23-.4-1.94c0-.75.13-1.42.4-2.01s.63-1.1,1.09-1.51c.46-.41,1-.73,1.61-.95.61-.22,1.27-.33,1.97-.33.66,0,1.3.11,1.93.33.62.22,1.18.54,1.66.95.48.41.87.91,1.17,1.51s.44,1.26.44,2.01ZM1781.84,372.11c0-.54-.1-1.03-.31-1.45-.21-.42-.48-.78-.81-1.06-.34-.28-.72-.49-1.17-.64-.44-.15-.89-.22-1.36-.22s-.94.07-1.38.21c-.43.14-.81.35-1.12.63-.32.28-.57.63-.75,1.06-.18.43-.28.92-.28,1.47,0,.53.09,1,.26,1.42s.42.78.74,1.08c.32.3.69.53,1.11.68s.89.23,1.41.23c.47,0,.92-.08,1.36-.23.44-.15.83-.38,1.17-.67.34-.29.61-.65.81-1.08.21-.42.31-.9.31-1.43ZM1789.3,386.94c0,.07-.03.13-.1.19-.07.05-.13.08-.19.08h-11.07c-.69,0-1.14-.13-1.35-.38-.21-.26-.32-.69-.32-1.31v-1.65c0-.62.13-1.03.38-1.24s.71-.32,1.38-.32h8.8c.21,0,.34-.03.39-.09s.09-.2.09-.42v-1.25c0-.22-.03-.36-.08-.42s-.18-.09-.38-.09h-10.32c-.07,0-.14-.02-.21-.07s-.1-.1-.1-.18v-.79c0-.07.03-.13.1-.18s.14-.07.21-.07h10.56c.35,0,.64.03.86.08.22.05.4.14.53.25.13.12.22.28.27.5.05.21.08.47.08.78v1.65c0,.62-.13,1.03-.38,1.24-.26.21-.71.32-1.38.32h-8.82c-.21,0-.33.03-.38.09-.05.06-.08.2-.08.42v1.34c0,.21.03.34.09.41s.19.1.4.1h10.71c.07,0,.14.02.21.07.06.04.1.1.1.18v.77ZM1788.84,377.17c0,.21-.1.31-.31.31h-.9c-.21,0-.31-.1-.31-.31v-10.01c0-.21.1-.31.31-.31h.9c.21,0,.31.1.31.31v10.01Z"/>
    <path d="M1721.49,414.35c-.1,0-.17,0-.19-.01s-.06-.05-.12-.12c-1.34-1.67-2.32-3.37-2.97-5.08-.64-1.72-.97-3.49-.97-5.32s.32-3.59.97-5.3c.65-1.72,1.63-3.42,2.97-5.1.06-.07.1-.11.12-.12.02,0,.07-.01.14-.01h.62c.09,0,.13,0,.13.02s-.02.06-.07.13c-2.3,3.61-3.45,7.07-3.45,10.38,0,1.69.29,3.39.88,5.1.59,1.72,1.45,3.48,2.6,5.28.07.1.04.15-.11.15h-.55Z"/>
    <path d="M1734.9,398.54c0,.69-.13,1.32-.41,1.9-.27.58-.64,1.08-1.11,1.51-.47.42-1.02.76-1.65,1s-1.3.36-2.02.36-1.36-.12-1.97-.35c-.61-.23-1.14-.56-1.61-.98-.46-.42-.83-.92-1.09-1.51-.26-.59-.4-1.23-.4-1.94,0-.75.13-1.42.4-2.01.26-.59.63-1.1,1.09-1.51.46-.41,1-.73,1.61-.95.61-.22,1.27-.33,1.97-.33.66,0,1.3.11,1.93.33.62.22,1.18.54,1.66.95.48.41.87.91,1.17,1.51.29.59.44,1.26.44,2.01ZM1733.36,398.51c0-.54-.1-1.03-.31-1.45-.21-.42-.48-.78-.81-1.06-.34-.28-.72-.49-1.17-.64-.44-.15-.89-.22-1.36-.22s-.94.07-1.38.21c-.43.14-.81.35-1.12.63-.32.28-.57.63-.75,1.06-.18.43-.28.92-.28,1.47s.09,1,.26,1.42.42.78.74,1.08c.32.3.69.53,1.11.68.43.15.89.23,1.41.23.47,0,.92-.08,1.36-.23.44-.15.83-.38,1.17-.67.34-.29.61-.65.81-1.08.21-.43.31-.9.31-1.43ZM1740.82,413.34c0,.07-.03.14-.1.19-.07.05-.13.08-.19.08h-11.07c-.69,0-1.14-.13-1.35-.39s-.32-.69-.32-1.31v-1.65c0-.62.13-1.03.38-1.24.26-.21.71-.32,1.38-.32h8.8c.21,0,.34-.03.39-.09s.09-.2.09-.42v-1.25c0-.22-.03-.36-.08-.42s-.18-.09-.38-.09h-10.32c-.07,0-.14-.02-.21-.07s-.1-.1-.1-.18v-.79c0-.07.03-.13.1-.18s.14-.07.21-.07h10.56c.35,0,.64.03.86.08.22.05.4.14.53.25.13.12.22.28.27.5.05.21.08.47.08.78v1.65c0,.62-.13,1.03-.38,1.24-.26.21-.71.32-1.38.32h-8.82c-.21,0-.33.03-.38.09-.05.06-.08.2-.08.42v1.34c0,.21.03.34.09.41.06.07.19.1.4.1h10.71c.07,0,.14.02.21.07.06.04.1.1.1.18v.77ZM1740.36,403.57c0,.21-.1.31-.31.31h-.9c-.21,0-.31-.1-.31-.31v-10.01c0-.21.1-.31.31-.31h.9c.21,0,.31.1.31.31v10.01Z"/>
    <path d="M1753.14,413.41c-.07,0-.14-.03-.2-.1-.06-.07-.09-.14-.09-.23v-7.17h-8.54c-.09,0-.17-.03-.23-.09-.06-.06-.1-.12-.1-.2v-.75c0-.09.03-.16.1-.21.07-.05.14-.08.23-.08h18.7c.07,0,.15.03.22.08.07.05.11.12.11.21v.75c0,.07-.04.14-.11.2-.07.06-.15.09-.22.09h-8.65v7.17c0,.09-.03.17-.08.23-.05.07-.12.1-.21.1h-.95ZM1754.44,393.74c-.03.19-.07.37-.11.55-.04.18-.09.34-.13.51.04.16.1.31.15.45s.12.28.2.41c.25.48.62.97,1.1,1.46.48.49,1.04.95,1.67,1.39.63.43,1.31.82,2.04,1.16.73.34,1.49.6,2.27.79.09.03.15.09.18.18.03.09.03.17,0,.24l-.35.75c-.04.07-.09.12-.14.15-.05.03-.15.03-.3,0-.78-.21-1.55-.49-2.31-.85-.76-.36-1.47-.77-2.13-1.24-.66-.47-1.26-.97-1.79-1.52-.54-.54-.97-1.09-1.31-1.65-.63,1.14-1.53,2.17-2.71,3.09-1.17.92-2.65,1.73-4.42,2.43-.23.09-.38.06-.44-.09l-.42-.77c-.03-.07-.03-.15-.01-.24.02-.09.08-.15.16-.18.96-.32,1.86-.75,2.73-1.29.87-.54,1.63-1.12,2.29-1.77s1.19-1.32,1.59-2.02c.4-.7.63-1.4.67-2.09.01-.18.11-.26.29-.26l.99.11c.07.01.14.04.2.09.06.04.07.12.04.22Z"/>
    <path d="M1765.04,414.35c-.13,0-.16-.05-.09-.15,1.14-1.8,2.01-3.56,2.59-5.28.58-1.72.87-3.42.87-5.1s-.29-3.37-.86-5.09c-.57-1.72-1.43-3.49-2.57-5.29-.04-.07-.06-.12-.06-.13s.04-.02.11-.02h.62c.07,0,.12,0,.14.01.02,0,.07.05.14.12,1.33,1.69,2.32,3.39,2.96,5.1.64,1.72.96,3.48.96,5.3s-.32,3.61-.96,5.32c-.64,1.72-1.62,3.41-2.96,5.08-.07.07-.12.11-.14.12-.02,0-.09.01-.19.01h-.55Z"/>
  </g>
  <text class="st4" transform="translate(1690.57 533.03)"><tspan x="0" y="0">위비용 3%</tspan></text>
  <g>
    <path d="M1696.83,758.72c-.16,0-.28,0-.36-.01-.08,0-.14-.03-.18-.07-.04-.04-.06-.1-.07-.18,0-.08-.01-.2-.01-.36l.02-.48c0-.19.06-.34.18-.46l3.63-4c2.7-2.92,4.05-5.13,4.05-6.64,0-.88-.29-1.61-.88-2.2-.57-.57-1.28-.86-2.13-.86-1.19,0-2.43.33-3.72.99-.21.1-.32.06-.35-.13l-.13-.73c-.04-.25.03-.4.22-.46.75-.34,1.42-.59,2.02-.75.6-.16,1.22-.24,1.85-.24,1.41,0,2.53.35,3.37,1.06.94.76,1.41,1.85,1.41,3.26,0,.54-.13,1.14-.4,1.78s-.63,1.32-1.1,2.02c-.29.41-.71.95-1.24,1.61-.54.66-1.15,1.36-1.84,2.11-.51.56-1.02,1.12-1.53,1.69-.51.57-1.02,1.14-1.53,1.69h7.7c.21,0,.31.1.31.31v.75c0,.21-.1.31-.31.31h-8.98Z"/>
    <path d="M1710.72,758.39c-.21-.07-.31-.21-.31-.4v-.92c0-.25.1-.32.31-.22.53.25,1.04.43,1.55.53s1.06.15,1.66.15c1.29,0,2.34-.31,3.15-.95.88-.67,1.32-1.64,1.32-2.9,0-2.48-1.42-3.72-4.25-3.72-.56,0-1.06.03-1.51.09s-.94.16-1.49.31c-.16.04-.29.03-.4-.05-.1-.08-.15-.2-.15-.36l.13-7.02c0-.31.03-.49.08-.54s.23-.08.54-.08h7.52c.21,0,.31.1.31.31v.73c0,.21-.1.31-.31.31h-6.64c-.01.92-.03,1.83-.05,2.71-.02.88-.04,1.78-.05,2.71.72-.28,1.59-.42,2.62-.42,1.54,0,2.79.42,3.74,1.25.95.87,1.43,2.02,1.43,3.48,0,1.77-.55,3.15-1.65,4.11-1.06.92-2.5,1.39-4.33,1.39-.66,0-1.23-.04-1.72-.11-.48-.07-.98-.2-1.5-.37Z"/>
    <path d="M1723.85,743.28c0-.62.12-1.03.35-1.24.23-.21.67-.32,1.32-.32h6.05c.35,0,.63.02.85.07.21.04.38.12.51.24.12.12.21.28.25.48s.07.46.07.77v6.8c0,.62-.12,1.03-.35,1.24-.23.21-.67.32-1.32.32h-6.05c-.35,0-.63-.02-.85-.07-.21-.04-.38-.13-.51-.25-.12-.12-.21-.29-.25-.48-.04-.2-.07-.45-.07-.76v-6.8ZM1725.89,743.03c-.21,0-.34.04-.42.12-.07.08-.11.23-.11.45v6.14c0,.22.04.37.11.45.07.08.21.12.42.12h5.3c.21,0,.34-.04.42-.12.07-.08.11-.23.11-.45v-6.14c0-.22-.04-.37-.11-.45-.07-.08-.21-.12-.42-.12h-5.3ZM1739.45,760.11c0,.09-.04.15-.11.2-.07.04-.15.07-.22.07h-11.2c-.69,0-1.14-.13-1.35-.4s-.32-.7-.32-1.3v-4.29c0-.21.1-.31.31-.31h.9c.21,0,.31.1.31.31v4.2c0,.21.03.33.1.38.07.05.2.08.41.08h10.85c.07,0,.15.03.22.08.07.05.11.11.11.19v.79ZM1738.46,754.78c0,.21-.1.31-.31.31h-.9c-.21,0-.31-.1-.31-.31v-13.99c0-.21.1-.31.31-.31h.9c.21,0,.31.1.31.31v6.29h3.04c.09,0,.17.03.23.08.07.05.1.12.1.21v.75c0,.07-.03.14-.1.2s-.14.09-.23.09h-3.04v6.38Z"/>
    <path d="M1749.26,755.68c-.07,0-.14-.03-.2-.1-.06-.07-.09-.14-.09-.23v-3.54c-.46.03-.94.05-1.45.07-.51.01-1.02.03-1.51.04-.49.01-.95.03-1.39.03-.43,0-.8,0-1.09-.01-.09,0-.17-.03-.23-.09-.07-.06-.1-.12-.1-.2v-.75c0-.09.03-.16.1-.21.07-.05.14-.08.23-.08.43,0,.93,0,1.52-.01.59,0,1.19-.02,1.8-.03.62-.01,1.21-.03,1.78-.05.57-.02,1.06-.05,1.45-.08.51-.03,1.08-.07,1.72-.13.63-.06,1.26-.12,1.89-.2.63-.07,1.23-.15,1.79-.23s1.04-.16,1.42-.23c.07-.01.14,0,.21.03.07.04.11.08.12.14l.11.75c.01.18-.07.29-.26.33-.94.16-1.99.32-3.16.47-1.17.15-2.31.27-3.44.34v3.63c0,.09-.03.17-.08.23-.05.07-.12.1-.21.1h-.95ZM1754.71,744.97c0,.56-.12,1.08-.37,1.56-.25.48-.6.91-1.04,1.27s-.98.65-1.59.86c-.62.21-1.28.32-2,.32s-1.36-.1-1.96-.31c-.6-.21-1.12-.49-1.56-.86-.44-.37-.79-.79-1.03-1.28-.25-.48-.37-1-.37-1.56,0-.62.12-1.17.37-1.67.25-.5.59-.92,1.03-1.28.44-.35.96-.62,1.56-.8s1.25-.28,1.96-.28,1.31.1,1.91.29,1.13.46,1.59.8c.46.34.83.77,1.1,1.27.27.5.41,1.06.41,1.67ZM1753.26,744.95c0-.44-.1-.83-.29-1.17-.19-.34-.45-.62-.77-.85s-.7-.4-1.13-.52-.89-.18-1.38-.18-.96.06-1.39.18c-.43.12-.79.29-1.1.53-.31.24-.55.52-.73.85s-.26.71-.26,1.15c0,.84.32,1.5.96,2,.64.5,1.48.75,2.52.75.48,0,.94-.07,1.38-.21.43-.14.81-.33,1.13-.57.32-.24.58-.53.77-.87.19-.34.29-.7.29-1.1ZM1760.43,760.11c0,.09-.04.15-.11.2s-.15.07-.22.07h-11.97c-.69,0-1.14-.13-1.35-.38s-.32-.69-.32-1.29v-2.77c0-.21.1-.31.31-.31h.9c.21,0,.31.1.31.31v2.66c0,.21.03.33.1.38.07.05.2.08.41.08h11.62c.07,0,.15.03.22.08.07.05.11.11.11.19v.79ZM1758.39,752.76v-11.97c0-.21.1-.31.31-.31h.9c.21,0,.31.1.31.31v15.73c0,.21-.1.31-.31.31h-.9c-.21,0-.31-.1-.31-.31v-2.44h-4.4c-.19,0-.29-.09-.29-.26v-.79c0-.18.1-.26.29-.26h4.4Z"/>
    <path d="M1770.8,741.89c.18,0,.28.01.3.04.02.03,0,.13-.05.31l-6.14,17.73c-.06.15-.1.23-.13.25s-.12.03-.29.03h-.92c-.18,0-.27-.01-.3-.04-.02-.03,0-.12.06-.29l6.14-17.71c.06-.16.11-.26.14-.29.04-.03.15-.04.34-.04h.86Z"/>
    <path d="M1783.38,745.76c0,.69-.14,1.32-.41,1.9-.27.58-.64,1.08-1.11,1.51-.47.42-1.02.76-1.65,1s-1.31.36-2.02.36-1.36-.12-1.97-.35-1.14-.56-1.61-.98c-.46-.42-.83-.92-1.09-1.51-.26-.59-.4-1.23-.4-1.94,0-.75.13-1.42.4-2.01.26-.59.63-1.1,1.09-1.51.46-.41,1-.73,1.61-.95.61-.22,1.27-.33,1.97-.33.66,0,1.3.11,1.93.33.62.22,1.18.54,1.66.95.48.41.87.91,1.17,1.51.29.59.44,1.26.44,2.01ZM1781.84,745.74c0-.54-.1-1.03-.31-1.45-.21-.42-.48-.78-.81-1.06-.34-.28-.73-.49-1.17-.64-.44-.15-.89-.22-1.36-.22s-.94.07-1.38.21c-.43.14-.81.35-1.12.63-.32.28-.57.63-.75,1.06-.18.43-.28.92-.28,1.47s.09,1,.26,1.42c.18.42.42.78.74,1.08.32.3.69.53,1.11.68.42.15.89.23,1.41.23.47,0,.92-.08,1.36-.23.44-.15.83-.38,1.17-.67.34-.29.61-.65.81-1.08.21-.43.31-.9.31-1.43ZM1789.3,760.57c0,.07-.03.14-.1.19-.07.05-.13.08-.19.08h-11.07c-.69,0-1.14-.13-1.35-.39s-.32-.69-.32-1.31v-1.65c0-.62.13-1.03.38-1.24.26-.21.71-.32,1.38-.32h8.8c.21,0,.34-.03.4-.09s.09-.2.09-.42v-1.25c0-.22-.03-.36-.08-.42-.05-.06-.18-.09-.38-.09h-10.32c-.07,0-.14-.02-.21-.07-.07-.04-.1-.1-.1-.18v-.79c0-.07.03-.13.1-.18.07-.04.14-.07.21-.07h10.56c.35,0,.64.03.86.08.22.05.4.14.53.25.13.12.22.28.27.5.05.21.08.47.08.78v1.65c0,.62-.13,1.03-.38,1.24-.26.21-.71.32-1.38.32h-8.82c-.21,0-.33.03-.38.09-.05.06-.08.2-.08.42v1.34c0,.21.03.34.09.41.06.07.19.1.4.1h10.71c.07,0,.14.02.21.07.07.04.1.1.1.18v.77ZM1788.84,750.8c0,.21-.1.31-.31.31h-.9c-.21,0-.31-.1-.31-.31v-10.01c0-.21.1-.31.31-.31h.9c.21,0,.31.1.31.31v10.01Z"/>
    <path d="M1721.48,787.98c-.1,0-.17,0-.19-.01-.02,0-.06-.05-.12-.12-1.33-1.67-2.32-3.37-2.97-5.08s-.97-3.49-.97-5.32.32-3.59.97-5.3,1.63-3.42,2.97-5.1c.06-.07.1-.11.12-.12.02,0,.07-.01.14-.01h.62c.09,0,.13,0,.13.02s-.02.06-.07.13c-2.3,3.61-3.45,7.07-3.45,10.38,0,1.69.29,3.39.88,5.1.59,1.72,1.45,3.48,2.6,5.28.07.1.04.15-.11.15h-.55Z"/>
    <path d="M1734.9,772.16c0,.69-.14,1.32-.41,1.9s-.64,1.08-1.11,1.51c-.47.43-1.02.76-1.65,1s-1.31.36-2.02.36-1.36-.12-1.97-.35c-.61-.23-1.14-.56-1.61-.98s-.83-.92-1.09-1.51c-.26-.59-.4-1.23-.4-1.94,0-.75.13-1.42.4-2.01.26-.59.63-1.1,1.09-1.51.46-.41,1-.73,1.61-.95s1.27-.33,1.97-.33c.66,0,1.3.11,1.93.33.62.22,1.18.54,1.66.95.48.41.87.91,1.17,1.51.29.59.44,1.26.44,2.01ZM1733.36,772.14c0-.54-.1-1.03-.31-1.45-.21-.42-.48-.78-.81-1.06-.34-.28-.73-.49-1.17-.64-.44-.15-.89-.22-1.36-.22s-.94.07-1.38.21-.81.35-1.12.63c-.32.28-.57.63-.75,1.06-.18.43-.28.92-.28,1.47,0,.53.09,1,.26,1.42.18.42.42.78.74,1.08s.69.53,1.11.68c.42.15.89.23,1.41.23.47,0,.92-.08,1.36-.23.44-.15.83-.38,1.17-.67.34-.29.61-.65.81-1.08.21-.42.31-.9.31-1.43ZM1740.82,786.97c0,.07-.03.13-.1.19-.07.05-.13.08-.19.08h-11.07c-.69,0-1.14-.13-1.35-.38-.21-.26-.32-.69-.32-1.31v-1.65c0-.62.13-1.03.38-1.24.26-.21.71-.32,1.38-.32h8.8c.21,0,.34-.03.4-.09s.09-.2.09-.42v-1.25c0-.22-.03-.36-.08-.42-.05-.06-.18-.09-.38-.09h-10.32c-.07,0-.14-.02-.21-.07-.07-.04-.1-.1-.1-.18v-.79c0-.07.03-.13.1-.18.07-.04.14-.07.21-.07h10.56c.35,0,.64.03.86.08.22.05.4.14.53.25.13.12.22.28.27.5.05.21.08.47.08.78v1.65c0,.62-.13,1.03-.38,1.24-.26.21-.71.32-1.38.32h-8.82c-.21,0-.33.03-.38.09-.05.06-.08.2-.08.42v1.34c0,.21.03.34.09.41s.19.1.4.1h10.71c.07,0,.14.02.21.07.07.04.1.1.1.18v.77ZM1740.36,777.2c0,.21-.1.31-.31.31h-.9c-.21,0-.31-.1-.31-.31v-10.01c0-.21.1-.31.31-.31h.9c.21,0,.31.1.31.31v10.01Z"/>
    <path d="M1753.14,787.03c-.07,0-.14-.03-.2-.1-.06-.07-.09-.14-.09-.23v-7.17h-8.54c-.09,0-.17-.03-.23-.09-.07-.06-.1-.12-.1-.2v-.75c0-.09.03-.16.1-.21.07-.05.14-.08.23-.08h18.7c.07,0,.15.03.22.08.07.05.11.12.11.21v.75c0,.07-.04.14-.11.2s-.15.09-.22.09h-8.65v7.17c0,.09-.03.17-.08.23-.05.07-.12.1-.21.1h-.95ZM1754.44,767.37c-.03.19-.07.37-.11.55-.04.18-.09.34-.13.51.04.16.09.31.15.45.06.14.12.28.2.41.25.48.62.97,1.1,1.46.48.49,1.04.95,1.67,1.39.63.43,1.31.82,2.05,1.15.73.34,1.49.6,2.27.79.09.03.15.09.18.18.03.09.03.17,0,.24l-.35.75c-.04.07-.09.12-.14.15-.05.03-.15.03-.3,0-.78-.21-1.55-.49-2.31-.85s-1.47-.77-2.13-1.24-1.26-.98-1.79-1.52c-.54-.54-.97-1.09-1.31-1.65-.63,1.14-1.53,2.17-2.71,3.09-1.17.92-2.65,1.73-4.42,2.43-.23.09-.38.06-.44-.09l-.42-.77c-.03-.07-.03-.15-.01-.24.02-.09.08-.15.17-.18.95-.32,1.86-.75,2.73-1.29s1.63-1.13,2.29-1.77c.66-.64,1.19-1.32,1.59-2.02s.63-1.4.67-2.09c.01-.18.11-.26.29-.26l.99.11c.07.01.14.04.2.09.06.04.07.12.04.22Z"/>
    <path d="M1765.04,787.98c-.13,0-.16-.05-.09-.15,1.14-1.8,2-3.56,2.58-5.28.58-1.72.87-3.42.87-5.1s-.29-3.37-.86-5.09-1.43-3.49-2.57-5.29c-.04-.07-.07-.12-.07-.13s.04-.02.11-.02h.62c.07,0,.12,0,.14.01.02,0,.07.05.14.12,1.33,1.69,2.32,3.39,2.96,5.1s.96,3.48.96,5.3-.32,3.61-.96,5.32-1.62,3.41-2.96,5.08c-.07.07-.12.11-.14.12-.02,0-.08.01-.19.01h-.55Z"/>
  </g>
  <text class="st4" transform="translate(1690.57 872.93)"><tspan x="0" y="0">위비용 3%</tspan></text>
  <text class="st4" transform="translate(457.8 327.44)"><tspan x="0" y="0">125</tspan></text>
  <text class="st4" transform="translate(443.15 395.01)"><tspan x="0" y="0">125(1)</tspan></text>
  <text class="st4" transform="translate(457.8 464.34)"><tspan x="0" y="0">175</tspan></text>
  <text class="st4" transform="translate(464.47 532.38)"><tspan x="0" y="0">13</tspan></text>
  <text class="st4" transform="translate(457.8 600.49)"><tspan x="0" y="0">180</tspan></text>
  <text class="st4" transform="translate(457.8 667.05)"><tspan x="0" y="0">618</tspan></text>
  <text class="st4" transform="translate(457.8 736.53)"><tspan x="0" y="0">125</tspan></text>
  <text class="st4" transform="translate(457.8 805.3)"><tspan x="0" y="0">175</tspan></text>
  <text class="st4" transform="translate(471.13 873.86)"><tspan x="0" y="0">9</tspan></text>
  <text class="st4" transform="translate(457.8 960.24)"><tspan x="0" y="0">120</tspan></text>
  <text class="st4" transform="translate(457.8 1048.43)"><tspan x="0" y="0">429</tspan></text>
  <text class="st4" transform="translate(1438.78 327.44)"><tspan x="0" y="0">75</tspan></text>
  <text class="st4" transform="translate(1424.13 395.01)"><tspan x="0" y="0">75(1)</tspan></text>
  <text class="st4" transform="translate(1432.11 464.33)"><tspan x="0" y="0">125</tspan></text>
  <text class="st4" transform="translate(1445.44 532.38)"><tspan x="0" y="0">8</tspan></text>
  <text class="st4" transform="translate(1432.11 600.49)"><tspan x="0" y="0">120</tspan></text>
  <text class="st4" transform="translate(1432.11 667.05)"><tspan x="0" y="0">403</tspan></text>
  <text class="st4" transform="translate(1438.78 736.53)"><tspan x="0" y="0">75</tspan></text>
  <text class="st4" transform="translate(1432.11 805.3)"><tspan x="0" y="0">125</tspan></text>
  <text class="st4" transform="translate(1445.44 873.86)"><tspan x="0" y="0">6</tspan></text>
  <text class="st4" transform="translate(1438.78 960.24)"><tspan x="0" y="0">80</tspan></text>
  <text class="st4" transform="translate(1432.11 1048.43)"><tspan x="0" y="0">286</tspan></text>
  <text class="st4" transform="translate(1104.82 327.44)"><tspan x="0" y="0">125</tspan></text>
  <text class="st4" transform="translate(1090.17 395.01)"><tspan x="0" y="0">375(3)</tspan></text>
  <text class="st4" transform="translate(1104.82 464.34)"><tspan x="0" y="0">175</tspan></text>
  <text class="st4" transform="translate(1111.49 532.38)"><tspan x="0" y="0">20</tspan></text>
  <text class="st4" transform="translate(1104.82 600.49)"><tspan x="0" y="0">300</tspan></text>
  <text class="st4" transform="translate(1104.82 667.05)"><tspan x="0" y="0">995</tspan></text>
  <text class="st4" transform="translate(1104.82 736.53)"><tspan x="0" y="0">125</tspan></text>
  <text class="st4" transform="translate(1104.82 805.3)"><tspan x="0" y="0">175</tspan></text>
  <text class="st4" transform="translate(1118.16 873.86)"><tspan x="0" y="0">9</tspan></text>
  <text class="st4" transform="translate(1104.82 960.24)"><tspan x="0" y="0">120</tspan></text>
  <text class="st4" transform="translate(1104.82 1048.43)"><tspan x="0" y="0">429</tspan></text>
  <text class="st4" transform="translate(782.46 327.44)"><tspan x="0" y="0">125</tspan></text>
  <text class="st4" transform="translate(767.81 395.01)"><tspan x="0" y="0">250(2)</tspan></text>
  <text class="st4" transform="translate(782.46 464.34)"><tspan x="0" y="0">175</tspan></text>
  <text class="st4" transform="translate(789.13 532.38)"><tspan x="0" y="0">17</tspan></text>
  <text class="st4" transform="translate(782.46 600.49)"><tspan x="0" y="0">240</tspan></text>
  <text class="st4" transform="translate(782.46 667.05)"><tspan x="0" y="0">807</tspan></text>
  <text class="st4" transform="translate(782.46 736.53)"><tspan x="0" y="0">125</tspan></text>
  <text class="st4" transform="translate(782.46 805.3)"><tspan x="0" y="0">175</tspan></text>
  <text class="st4" transform="translate(795.79 873.86)"><tspan x="0" y="0">9</tspan></text>
  <text class="st4" transform="translate(782.46 960.24)"><tspan x="0" y="0">120</tspan></text>
  <text class="st4" transform="translate(782.46 1048.43)"><tspan x="0" y="0">429</tspan></text>
  <text class="st4" transform="translate(200.89 327.44)"><tspan x="0" y="0">심사비</tspan></text>
  <text class="st4" transform="translate(180.21 395.01)"><tspan x="0" y="0">현장심사비</tspan></text>
  <text class="st4" transform="translate(200.89 464.33)"><tspan x="0" y="0">심의비</tspan></text>
  <text class="st4" transform="translate(200.89 532.38)"><tspan x="0" y="0">간접비</tspan></text>
  <text class="st4" transform="translate(200.89 600.49)"><tspan x="0" y="0">교통비</tspan></text>
  <text class="st4" transform="translate(221.57 667.05)"><tspan x="0" y="0">계</tspan></text>
  <text class="st4" transform="translate(200.89 736.53)"><tspan x="0" y="0">심사비</tspan></text>
  <text class="st4" transform="translate(200.89 805.3)"><tspan x="0" y="0">심의비</tspan></text>
  <text class="st4" transform="translate(200.89 873.86)"><tspan x="0" y="0">간접비</tspan></text>
  <text class="st4" transform="translate(200.89 960.24)"><tspan x="0" y="0">교통비</tspan></text>
  <text class="st4" transform="translate(221.57 1048.43)"><tspan x="0" y="0">계</tspan></text>
  <text class="st6" transform="translate(105.57 441.58)"><tspan x="0" y="0">본인증</tspan></text>
  <text class="st6" transform="translate(105.57 815.56)"><tspan x="0" y="0">예비인증</tspan></text>
  <text class="st4" transform="translate(1647.32 944.99)"><tspan x="0" y="0">*현장실사가 필요한</tspan><tspan x="0" y="26.4">경우 수수료에 포함</tspan></text>
  <line class="st8" x1="57.35" y1="153.93" x2="1862.65" y2="153.9"/>
  <line class="st7" x1="57.35" y1="288.55" x2="1862.65" y2="288.52"/>
  <line class="st7" x1="309.01" y1="221.21" x2="1613.83" y2="221.22"/>
  <line class="st7" x1="151.62" y1="356.31" x2="1613.83" y2="356.28"/>
  <line class="st7" x1="151.62" y1="423.73" x2="1613.83" y2="423.7"/>
  <line class="st7" x1="151.62" y1="492.1" x2="1862.65" y2="492.07"/>
  <line class="st7" x1="151.62" y1="560.47" x2="1862.65" y2="560.45"/>
  <line class="st7" x1="151.62" y1="628.85" x2="1862.65" y2="628.82"/>
  <line class="st7" x1="57.35" y1="697.44" x2="1862.65" y2="697.41"/>
  <line class="st7" x1="151.62" y1="762.75" x2="1613.87" y2="762.75"/>
  <line class="st7" x1="151.62" y1="832.07" x2="1862.65" y2="832.04"/>
  <line class="st7" x1="151.62" y1="901.39" x2="1862.65" y2="901.36"/>
  <line class="st7" x1="151.62" y1="1008.55" x2="1862.65" y2="1008.52"/>
  <line class="st8" x1="57.35" y1="1078.2" x2="1862.65" y2="1078.18"/>
  <line class="st7" x1="151.61" y1="288.52" x2="151.61" y2="1078.18"/>
  <line class="st7" x1="311.36" y1="153.93" x2="311.36" y2="1078.18"/>
  <line class="st7" x1="638.87" y1="221.22" x2="638.87" y2="1078.13"/>
  <line class="st7" x1="963.37" y1="221.77" x2="963.37" y2="1078.68"/>
  <line class="st7" x1="1290.13" y1="154.16" x2="1290.12" y2="1078.69"/>
  <line class="st7" x1="1613.83" y1="154.16" x2="1613.83" y2="1078.68"/>
</svg>